<?xml version="1.0" encoding="UTF-8"?>
<svg id="Layer_2" data-name="Layer 2" xmlns="http://www.w3.org/2000/svg" viewBox="0 0 559.25 167.78">
  <g id="Layer_1-2" data-name="Layer 1">
    <g>
      <path d="M262.24,103.14c-4.47,0-8.68.51-12.52,1.53-3.85,1.02-7.15,2.35-9.79,3.97-2.03,1.24-3.6,2.68-4.67,4.28-1.1,1.65-1.66,3.69-1.66,6.03v39.47c0,3.06.84,5.25,2.51,6.52,1.6,1.23,3.92,1.82,7.08,1.82,1.64,0,3.13-.13,4.43-.39,1.25-.25,2.26-.46,3.01-.63l.78-.17v-44.78c1.64-.83,3.6-1.55,5.85-2.13,2.48-.64,5.16-.96,7.97-.96s5.05.2,6.88.6l.69.15.37-.6c.45-.72.88-1.65,1.28-2.74.41-1.14.62-2.37.62-3.64,0-5.54-4.32-8.35-12.83-8.35Z" style="fill: #59bbf7;"/>
      <path d="M329.51,111.91c-2.78-2.83-6.15-5.02-10-6.52-3.84-1.49-8.15-2.25-12.81-2.25s-8.98.76-12.81,2.25c-3.85,1.5-7.21,3.67-10,6.45-2.79,2.79-4.96,6.22-6.46,10.19-1.49,3.95-2.24,8.45-2.24,13.37s.75,9.54,2.24,13.49c1.5,3.98,3.64,7.4,6.39,10.19,2.74,2.79,6.09,4.96,9.94,6.46,3.83,1.49,8.19,2.25,12.94,2.25s9.1-.76,12.94-2.25c3.85-1.5,7.19-3.69,9.94-6.52,2.74-2.82,4.89-6.27,6.38-10.24,1.49-3.96,2.24-8.46,2.24-13.36s-.75-9.28-2.24-13.24c-1.5-3.97-3.67-7.42-6.45-10.25ZM320.14,135.4c0,5.72-1.21,10.19-3.59,13.27-2.35,3.05-5.58,4.53-9.85,4.53s-7.51-1.46-9.86-4.47c-2.38-3.04-3.58-7.52-3.58-13.33s1.23-10.18,3.65-13.27c2.39-3.05,5.6-4.54,9.8-4.54s7.4,1.48,9.8,4.54c2.42,3.08,3.65,7.55,3.65,13.27Z" style="fill: #59bbf7;"/>
      <path d="M373.55,128.45l-6.12-1.5c-2.4-.54-4.07-1.22-4.98-2.02-.82-.72-1.22-1.61-1.22-2.74,0-1.56.71-2.68,2.23-3.55,1.66-.95,4.05-1.43,7.1-1.43,1.51,0,3.06.14,4.62.42,1.59.29,3.1.64,4.51,1.04,1.42.41,2.73.86,3.88,1.33,1.14.47,2.07.95,2.75,1.4l.58.39.56-.41c1.02-.74,1.9-1.74,2.64-2.98.75-1.27,1.14-2.76,1.14-4.43,0-1.81-.61-3.44-1.8-4.83-1.13-1.31-2.71-2.44-4.69-3.36-1.93-.9-4.24-1.6-6.85-2.07-2.58-.47-5.43-.7-8.46-.7-8,0-14.32,1.77-18.79,5.25-4.55,3.54-6.86,8.23-6.86,13.93,0,5,1.59,9.05,4.73,12.05,3.06,2.94,7.81,5.16,14.1,6.6l6.99,1.62c4.5.97,6.68,2.85,6.68,5.75,0,1.64-.71,2.9-2.16,3.83-1.57,1.01-3.99,1.52-7.18,1.52-3.85,0-7.27-.56-10.17-1.68-2.95-1.13-5.59-2.44-7.85-3.89l-.54-.35-.54.35c-1.29.83-2.33,1.9-3.11,3.19-.8,1.31-1.2,2.87-1.2,4.63,0,1.89.64,3.63,1.91,5.18,1.21,1.48,2.92,2.75,5.08,3.76,2.1.99,4.61,1.75,7.47,2.26,2.82.51,6,.76,9.45.76,8.48,0,15.06-1.72,19.53-5.12,4.56-3.46,6.87-8.32,6.87-14.43,0-5.15-1.65-9.39-4.9-12.6-3.19-3.15-8.38-5.56-15.41-7.17Z" style="fill: #59bbf7;"/>
      <path d="M432.59,120.46c1.93,0,3.51-.6,4.69-1.79s1.79-3.02,1.79-5.44c0-1.33-.18-2.6-.54-3.78-.36-1.15-.77-2.11-1.23-2.85l-.29-.47h-17.86v-6.53c0-3.05-.82-5.24-2.44-6.51-1.57-1.23-3.87-1.72-7.03-1.72h-8.1v56.23c0,7.1,2.04,12.29,6.05,15.42,3.94,3.07,9.36,4.63,16.12,4.63,5.24,0,8.98-.86,11.42-2.62,2.51-1.81,3.78-4.16,3.78-6.98,0-1.39-.26-2.64-.78-3.73-.5-1.05-1.13-1.96-1.87-2.7l-.48-.48-.62.27c-1.11.47-2.37.88-3.75,1.19-1.37.31-2.74.47-4.07.47-2.68,0-4.77-.52-6.2-1.56h0c-1.35-.97-2.01-2.58-2.01-4.92v-26.15h13.44Z" style="fill: #59bbf7;"/>
      <path d="M493.29,110.7c-2.49-2.36-5.54-4.24-9.05-5.56-3.5-1.32-7.39-1.99-11.56-1.99s-8,.65-11.66,1.92c-3.69,1.29-6.97,3.29-9.76,5.95-2.79,2.66-5.03,6-6.65,9.93-1.62,3.92-2.44,8.57-2.44,13.83s.84,10.24,2.5,14.32c1.67,4.1,4.01,7.59,6.97,10.38,2.96,2.79,6.57,4.9,10.71,6.26,4.11,1.36,8.72,2.04,13.7,2.04,3.12,0,6.07-.26,8.78-.76,2.73-.51,5.14-1.25,7.15-2.19,2.07-.97,3.73-2.16,4.94-3.55,1.28-1.47,1.93-3.18,1.93-5.08,0-1.52-.43-2.96-1.28-4.28-.83-1.29-1.91-2.32-3.21-3.07l-.52-.3-.51.32c-1.75,1.12-4.09,2.19-6.96,3.2-2.82,1-5.96,1.5-9.32,1.5-4.44,0-8.21-.92-11.19-2.72-2.64-1.6-4.55-4.13-5.7-7.53l33.47-4.82c2.36-.36,4.24-1.21,5.59-2.51,1.4-1.35,2.11-3.35,2.11-5.95,0-3.85-.72-7.49-2.14-10.79-1.42-3.3-3.4-6.18-5.9-8.55ZM484.38,126.59l-25.41,3.78c.47-4.11,1.88-7.35,4.2-9.63,2.57-2.53,5.68-3.76,9.51-3.76s6.61,1.04,8.47,3.1c1.7,1.88,2.79,4.06,3.22,6.52Z" style="fill: #59bbf7;"/>
      <path d="M537.06,103.14c-4.47,0-8.68.51-12.52,1.53-3.85,1.01-7.14,2.35-9.79,3.97-2.03,1.24-3.6,2.68-4.67,4.28-1.1,1.65-1.66,3.69-1.66,6.03v39.47c0,3.06.84,5.25,2.51,6.52,1.61,1.23,3.92,1.82,7.08,1.82,1.64,0,3.13-.13,4.43-.39,1.25-.25,2.26-.46,3.01-.63l.78-.17v-44.78c1.64-.83,3.6-1.55,5.85-2.13,2.48-.64,5.16-.96,7.97-.96s5.05.2,6.88.6l.69.15.37-.6c.45-.72.88-1.65,1.27-2.74.41-1.14.62-2.37.62-3.64,0-5.54-4.32-8.35-12.83-8.35Z" style="fill: #59bbf7;"/>
    </g>
    <g>
      <path d="M313.36,17.81c-1.13-4.44-2.82-7.96-5.06-10.55-2.25-2.59-5.01-4.44-8.27-5.57C296.76.57,293.05,0,288.89,0c-15.36,0-30.77,18.19-41.25,27.66-4.11,3.71-6.16,4.93-6.16,4.93v54.17h21.94v-47.94c0-6.86.99-11.82,2.96-14.85,1.97-3.03,7.16-4.55,11.89-4.56,4.72,0,9.92,1.52,11.89,4.56,1.97,3.04,2.96,7.99,2.96,14.85v47.94h21.94v-52.49c0-6.53-.56-12.01-1.69-16.46" style="fill: #fff;"/>
      <path d="M89.89,44.56c0,3.71.34,7.15,1.01,10.3.67,3.15,1.69,5.91,3.04,8.27,1.35,2.36,3.12,4.19,5.32,5.49,2.19,1.29,4.81,1.94,7.85,1.94,5.74,0,10.01-2.08,12.83-6.25,2.81-4.16,4.22-10.74,4.22-19.75,0-7.76-1.3-14.04-3.88-18.82-2.59-4.78-6.98-7.17-13.17-7.17-5.4,0-9.62,2.02-12.66,6.07-3.04,4.05-4.56,10.69-4.56,19.92M67.27,44.56c0-14.29,3.49-25.29,10.47-33C84.71,3.86,94.5,0,107.11,0c6.75,0,12.6,1.07,17.55,3.21,4.95,2.14,9.06,5.15,12.32,9.03,3.26,3.88,5.71,8.58,7.34,14.1,1.63,5.51,2.45,11.59,2.45,18.23,0,14.29-3.46,25.29-10.38,33-6.92,7.71-16.68,11.56-29.29,11.56-6.75,0-12.6-1.07-17.55-3.21-4.95-2.13-9.09-5.15-12.41-9.03-3.32-3.88-5.8-8.58-7.43-14.09-1.63-5.51-2.45-11.59-2.45-18.23" style="fill: #fff;"/>
      <path d="M347.43,44.56c0,3.71.34,7.15,1.01,10.3.67,3.15,1.69,5.91,3.04,8.27,1.35,2.36,3.12,4.19,5.32,5.49,2.2,1.29,4.81,1.94,7.85,1.94,5.74,0,10.01-2.08,12.83-6.25,2.81-4.16,4.22-10.74,4.22-19.75,0-7.76-1.29-14.04-3.88-18.82-2.59-4.78-6.98-7.17-13.17-7.17-5.4,0-9.62,2.02-12.66,6.07-3.04,4.05-4.56,10.69-4.56,19.92M324.81,44.56c0-14.29,3.49-25.29,10.47-33,6.98-7.71,16.76-11.57,29.37-11.57,6.75,0,12.6,1.07,17.55,3.21,4.95,2.14,9.06,5.15,12.32,9.03,3.26,3.88,5.71,8.58,7.34,14.1,1.63,5.51,2.45,11.59,2.45,18.23,0,14.29-3.46,25.29-10.38,33-6.92,7.71-16.68,11.56-29.29,11.56-6.75,0-12.6-1.07-17.55-3.21-4.95-2.13-9.09-5.15-12.41-9.03-3.32-3.88-5.79-8.58-7.43-14.09-1.63-5.51-2.45-11.59-2.45-18.23" style="fill: #fff;"/>
      <path d="M208.8,59.08c-1.24,3.83-3.01,6.7-5.32,8.61-2.31,1.91-5.6,2.87-9.87,2.87-5.06,0-8.95-2.14-11.65-6.41-2.7-4.28-4.05-10.52-4.05-18.73,0-9.23,1.58-15.95,4.73-20.17,3.15-4.22,7.53-6.33,13.17-6.33,5.17,0,9.5.74,13,2.2v37.97ZM216.35,1.86c-5.68-1.01-12.13-1.52-19.33-1.52-13.73,0-24.19,3.88-31.4,11.65-7.2,7.76-10.8,19.19-10.8,34.26s2.67,24.98,8.02,31.73c5.34,6.75,13.47,10.12,24.39,10.12,10.02,0,16.99-2.64,20.93-7.93h.68v5.4c0,5.96-1.38,10.6-4.14,13.92-2.76,3.32-7.96,4.98-15.61,4.98-2.68,0-5.13-.15-7.35-.43.36.58.72,1.14,1.06,1.74,3.1,5.38,5.53,11.72,6.6,16.64,1.48.11,1.99.11,3.07.11,11.93,0,21.21-2.9,27.85-8.69,6.64-5.79,9.96-14.82,9.96-27.09V5.4c-3.6-1.35-8.25-2.53-13.92-3.55" style="fill: #fff;"/>
      <path d="M57.55,49.46c-1.91-3.15-4.28-5.71-7.09-7.68-2.82-1.97-5.91-3.57-9.28-4.8-3.38-1.24-6.47-2.39-9.28-3.46-2.82-1.07-5.18-2.22-7.09-3.46-1.91-1.23-2.87-2.87-2.87-4.89,0-5.06,3.26-7.6,9.79-7.6,4.05,0,8.04.56,11.98,1.69,3.94,1.12,7.2,2.2,9.79,3.2l4.9-15.87c-2.93-1.69-6.98-3.2-12.16-4.56-5.17-1.35-10.97-2.03-17.38-2.03C19.52,0,12.37,2.2,7.42,6.58,2.47,10.97,0,17.33,0,25.66c0,5.06.95,9.2,2.87,12.41,1.91,3.2,4.28,5.85,7.09,7.93,2.81,2.08,5.91,3.71,9.28,4.9,3.38,1.18,6.47,2.34,9.28,3.46,2.81,1.12,5.17,2.36,7.09,3.71,1.92,1.36,2.87,3.15,2.87,5.4,0,2.93-.99,5.01-2.96,6.25-1.97,1.24-4.58,1.86-7.85,1.86-4.5,0-8.89-.7-13.17-2.11-3.34-1.1-6.16-2.22-8.48-3.35.2.7.39,1.4.57,2.11,1.6,6.41,2.08,12.57,1.61,17.8.86.28,1.74.56,2.66.83,5.23,1.52,10.83,2.28,16.8,2.28,10.91,0,19.1-2.45,24.56-7.34,5.46-4.9,8.18-11.62,8.18-20.17,0-4.95-.96-9-2.87-12.15" style="fill: #fff;"/>
      <path d="M464.95,68.22c.18-.72.37-1.41.57-2.11-2.31,1.13-5.13,2.25-8.47,3.35-4.28,1.41-8.66,2.11-13.17,2.11-3.26,0-5.88-.62-7.85-1.85-1.97-1.23-2.95-3.32-2.95-6.25,0-2.25.96-4.05,2.87-5.4,1.91-1.35,4.28-2.59,7.09-3.71,2.82-1.12,5.91-2.28,9.28-3.46,3.38-1.18,6.47-2.81,9.28-4.9,2.82-2.08,5.18-4.72,7.09-7.93,1.91-3.2,2.87-7.34,2.87-12.4,0-8.33-2.47-14.68-7.43-19.08C459.19,2.2,452.04,0,442.7,0c-6.41,0-12.21.68-17.38,2.03-5.18,1.35-9.23,2.87-12.15,4.56l4.89,15.87c2.59-1.01,5.85-2.08,9.79-3.2,3.94-1.12,7.93-1.69,11.98-1.69,6.53,0,9.79,2.53,9.79,7.59,0,2.03-.96,3.66-2.87,4.9-1.91,1.24-4.28,2.39-7.09,3.46-2.81,1.07-5.91,2.22-9.28,3.46-3.38,1.24-6.47,2.84-9.29,4.81-2.81,1.97-5.17,4.53-7.08,7.68-1.92,3.15-2.87,7.2-2.87,12.15,0,8.55,2.73,15.28,8.19,20.17,5.46,4.89,13.65,7.34,24.56,7.34,5.96,0,11.56-.76,16.79-2.28.92-.26,1.8-.54,2.66-.83-.46-5.23.02-11.38,1.61-17.8" style="fill: #fff;"/>
    </g>
    <g>
      <g>
        <path d="M550.1,10.62h-5.58v-2.54c0-1.1-.9-2-2-2s-2,.9-2,2v2.54h-13.75v-2.54c0-1.1-.9-2-2-2s-2,.9-2,2v2.54h-14.13v-2.54c0-1.1-.9-2-2-2s-2,.9-2,2v2.54h-4.83c-5.04,0-9.15,4.1-9.15,9.15v19.67c0,1.1.9,2,2,2s2-.9,2-2v-10.37h60.59v32.68c0,2.84-2.31,5.15-5.15,5.15h-28.08c-1.1,0-2,.9-2,2s.9,2,2,2h28.08c5.04,0,9.15-4.1,9.15-9.15V19.77c0-5.04-4.1-9.15-9.15-9.15ZM494.66,25.07v-5.3c0-2.84,2.31-5.15,5.15-5.15h4.83v2.53c0,1.1.9,2,2,2s2-.9,2-2v-2.53h14.13v2.53c0,1.1.9,2,2,2s2-.9,2-2v-2.53h13.75v2.53c0,1.1.9,2,2,2s2-.9,2-2v-2.53h5.58c2.84,0,5.15,2.31,5.15,5.15v5.3h-60.59Z" style="fill: #fff;"/>
        <path d="M513.45,54.93c0-6.31-5.13-11.44-11.44-11.44s-11.44,5.13-11.44,11.44,5.13,11.44,11.44,11.44,11.44-5.13,11.44-11.44ZM494.57,54.93c0-4.1,3.34-7.44,7.44-7.44s7.44,3.34,7.44,7.44-3.34,7.44-7.44,7.44-7.44-3.34-7.44-7.44Z" style="fill: #fff;"/>
        <path d="M508.29,70.3h-12.56c-7.12,0-12.9,5.79-12.9,12.9v1.56c0,1.1.9,2,2,2h34.37c1.1,0,2-.9,2-2v-1.56c0-7.12-5.79-12.9-12.9-12.9ZM486.83,82.76c.23-4.71,4.13-8.46,8.89-8.46h12.56c4.76,0,8.66,3.76,8.89,8.46h-30.35Z" style="fill: #fff;"/>
      </g>
      <circle cx="543.65" cy="41.41" r="4" style="fill: #59bbf7;"/>
      <circle cx="525.92" cy="41.42" r="4" style="fill: #59bbf7;"/>
      <circle cx="543.65" cy="55.24" r="4" style="fill: #59bbf7;"/>
      <circle cx="525.92" cy="55.25" r="4" style="fill: #59bbf7;"/>
    </g>
  </g>
</svg>