<?xml version="1.0" encoding="UTF-8"?>
<svg id="Layer_2" data-name="Layer 2" xmlns="http://www.w3.org/2000/svg" viewBox="0 0 76.44 76.1">
  <g id="Layer_2-2" data-name="Layer 2">
    <g>
      <path d="M67.29,60.25h-29.49c-1.1,0-2-.9-2-2s.9-2,2-2h29.49c2.84,0,5.15-2.31,5.15-5.15V9.14c0-2.84-2.31-5.14-5.15-5.14H16.99c-2.84,0-5.15,2.31-5.15,5.14v19.66c0,1.1-.9,2-2,2s-2-.9-2-2V9.14C7.84,4.1,11.94,0,16.99,0h50.3c5.05,0,9.15,4.1,9.15,9.14v41.96c0,5.04-4.1,9.14-9.15,9.14Z" style="fill: #13254a;"/>
      <path d="M19.19,55.72c-6.31,0-11.44-5.13-11.44-11.44s5.13-11.44,11.44-11.44,11.44,5.13,11.44,11.44-5.13,11.44-11.44,11.44ZM19.19,36.84c-4.1,0-7.44,3.34-7.44,7.44s3.34,7.44,7.44,7.44,7.44-3.34,7.44-7.44-3.34-7.44-7.44-7.44Z" style="fill: #13254a;"/>
      <path d="M36.38,76.1H2c-1.1,0-2-.9-2-2v-1.56c0-7.11,5.79-12.9,12.91-12.9h12.57c7.12,0,12.91,5.79,12.91,12.9v1.56c0,1.1-.9,2-2,2ZM4.01,72.1h30.35c-.23-4.7-4.13-8.46-8.89-8.46h-12.57c-4.76,0-8.66,3.76-8.89,8.46Z" style="fill: #13254a;"/>
      <path d="M60.69,40.37l.08-7.69-8.87-.09v-6.04h8.69v-7.52c1.78-.41,3.1-1.99,3.1-3.89,0-2.21-1.79-4-4-4s-4,1.79-4,4c0,1.82,1.23,3.34,2.9,3.82v5.58h-15.54v-5.57c1.69-.47,2.94-2,2.94-3.84,0-2.21-1.79-4-4-4s-4,1.79-4,4c0,1.88,1.31,3.45,3.06,3.87v5.53h-16.42v-5.54c1.72-.45,3-2,3-3.86,0-2.21-1.79-4-4-4s-4,1.79-4,4c0,1.86,1.28,3.41,3,3.86v7.54h27.27v6.02l-8.84-.09-.08,7.9c-1.73.44-3.02,1.99-3.02,3.86,0,2.21,1.79,4,4,4s4-1.79,4-4c0-1.85-1.27-3.4-2.98-3.85l.06-5.89,15.71.16-.06,5.71c-1.72.45-3,2-3,3.86,0,2.21,1.79,4,4,4s4-1.79,4-4c0-1.86-1.28-3.41-3-3.86Z" style="fill: #92278d;"/>
    </g>
  </g>
</svg>