<?xml version="1.0" encoding="UTF-8"?>
<svg id="Layer_2" data-name="Layer 2" xmlns="http://www.w3.org/2000/svg" viewBox="0 0 1150.76 161.9">
  <g id="Layer_1-2" data-name="Layer 1">
    <g>
      <path d="M1150.76,27.81C1095.29,7.84,1035.46,0,974.41,0c-133.04,0-271.71,37.21-382.64,66.98-21.88,5.87-42.54,11.42-61.9,16.34-189.3,48.11-260.26,63-368.21,28.54C88.04,88.34,29.57,55.42,0,36.97v.53c29.67,18.49,88.05,51.32,161.53,74.78,54.4,17.37,98.88,22.24,153.56,16.84,55.41-5.48,121.06-21.52,214.89-45.37,19.36-4.92,40.03-10.47,61.9-16.34C702.8,37.65,841.41.45,974.41.45c61.03,0,120.91,7.85,176.35,27.84v-.48Z" style="fill: #fff;"/>
      <path d="M1150.76,35.52c-2.92-1.01-5.87-2.01-8.87-3-130.93-43.25-283.2-19.2-415.65,6.73-45.75,8.96-90.07,18.82-129.16,27.53-26.77,5.96-52.06,11.59-75.31,16.39-76.9,15.89-139.97,28.65-193.43,36.27-64.5,9.2-111.95,6.78-169.24-8.64-25.41-6.81-50.59-15.15-74.83-24.78C47.82,71.44,18.56,56.42,0,46.1v.68c18.6,10.32,47.77,25.28,84.04,39.79,24.27,9.64,49.47,17.99,74.9,24.81,57.37,15.44,104.89,17.86,169.48,8.65,53.47-7.62,116.56-20.39,193.46-36.27,23.26-4.8,48.55-10.43,75.32-16.4,39.09-8.7,83.4-18.57,129.15-27.52,132.38-25.92,284.57-49.95,415.35-6.75,3.06,1.01,6.08,2.03,9.06,3.06v-.63Z" style="fill: #fff;"/>
      <path d="M1150.76,42.06c-8.05-2.59-16.39-5.09-25.02-7.51-124.13-34.75-264.46-11.03-400.16,11.92l-10.35,1.75c-32.61,5.5-63.49,10.98-93.36,16.28-38.94,6.91-75.73,13.43-108.21,18.53-87.61,13.75-147.95,22.92-190.73,29.37-65.48,9.88-112.14,9.13-166.42-2.65-26.05-5.6-50.89-12.47-73.84-20.4C47.34,77.15,18.6,64.23,0,55.14v.83c18.63,9.09,47.28,21.94,82.42,34.09,22.98,7.94,47.85,14.82,73.93,20.42,54.38,11.8,101.11,12.55,166.69,2.66,42.78-6.45,103.12-15.63,190.73-29.37,32.49-5.1,69.27-11.62,108.22-18.53,29.87-5.3,60.75-10.78,93.36-16.28l10.35-1.75c135.62-22.93,275.86-46.64,399.84-11.93,8.7,2.44,17.11,4.96,25.22,7.57v-.78Z" style="fill: #fff;"/>
      <path d="M1150.76,47.48c-12.65-3.82-26.34-7.48-41.18-10.9-48.1-11.11-102.64-14.54-166.73-10.49-57.28,3.62-117.27,12.78-175.28,21.65-20.74,3.17-42.18,6.45-63.35,9.45-68.28,9.69-139.6,19.51-198.66,25.71l-9.66,1.01c-74.11,7.77-127.65,13.39-178.38,21.46-55.93,8.9-105.16,12.88-163.6,3.34-26.4-4.23-50.91-9.62-72.85-16.02C46.85,82.72,18.62,71.84,0,64v.96c18.65,7.84,46.77,18.66,80.81,28.58,21.98,6.4,46.52,11.8,72.96,16.04,58.56,9.56,107.87,5.58,163.89-3.34,50.71-8.07,104.24-13.69,178.34-21.46l9.66-1.01c59.08-6.2,130.41-16.02,198.7-25.71,21.16-3,42.61-6.28,63.35-9.45,120.71-18.44,234.73-35.87,341.68-11.17,14.92,3.44,28.67,7.12,41.38,10.97v-.93Z" style="fill: #fff;"/>
      <path d="M1150.76,51.87c-17.14-4.91-36.18-9.4-57.34-13.27-93.12-17.05-190.64-2.5-293.88,12.91-34.61,5.16-70.4,10.5-106.32,14.64-69,7.94-134.86,13.53-195.75,16.6l-2.21.11c-75.49,3.81-130.04,6.57-183.15,15.47-61.25,10.26-107.2,15.08-160.8,9.33-26.71-2.77-50.89-6.69-71.86-11.64-33.13-7.82-60.83-16.71-79.45-23.3v1.1c18.65,6.59,46.24,15.43,79.21,23.21,21.02,4.96,45.24,8.88,71.99,11.66,53.72,5.76,99.74.94,161.08-9.34,53.05-8.89,107.57-11.64,183.03-15.46l2.21-.11c60.92-3.08,126.8-8.67,195.82-16.61,35.94-4.14,71.74-9.48,106.36-14.64,103.15-15.39,200.58-29.93,293.54-12.91,21.25,3.89,40.35,8.39,57.52,13.33v-1.08Z" style="fill: #fff;"/>
      <path d="M1150.76,55.34c-22.56-6.2-47.1-11.12-73.51-14.72-81.46-11.1-165.26,1.95-253.99,15.78-45.53,7.09-92.61,14.43-141.04,18.71-62.99,5.56-124.27,7.94-192.84,7.5h-.91c-74.12-.49-127.68-.84-181.78,8.68-52.47,9.24-102.02,17.96-158,15.32-27.76-1.31-50.94-3.68-70.88-7.26-32.07-5.75-59.23-12.72-77.83-18.06v1.23c18.62,5.33,45.69,12.27,77.62,17.99,19.99,3.58,43.22,5.96,71.03,7.27,56.11,2.65,105.72-6.09,158.26-15.34,54-9.51,107.51-9.16,181.57-8.67h.91c68.6.46,129.91-1.93,192.95-7.5,48.47-4.28,95.57-11.62,141.11-18.71,88.64-13.81,172.36-26.85,253.65-15.77,27.77,3.78,52.19,8.87,73.67,14.81v-1.27Z" style="fill: #fff;"/>
      <path d="M1150.76,58.03c-27.29-7.3-57.25-12.45-89.68-15.38-71.75-6.49-144.32,5.91-221.15,19.04-53.91,9.21-109.65,18.74-168.69,22.38-75.79,4.67-138.53,1.81-189.91-1.6l-1.09-.07c-69.39-4.61-124.2-8.25-178.95,1.86-7.81,1.44-15.59,2.92-23.11,4.35-44.28,8.41-86.1,16.35-132.09,16.96-28.34.38-50.55-.54-69.89-2.88-31.02-3.76-57.65-8.87-76.2-12.95v1.36c18.57,4.08,45.13,9.17,76.04,12.91,19.39,2.35,41.65,3.26,70.06,2.89,46.11-.61,87.99-8.57,132.32-16.99,7.52-1.43,15.3-2.91,23.11-4.35,54.58-10.08,109.32-6.44,178.62-1.84l1.09.07c51.42,3.42,114.22,6.28,190.08,1.6,59.11-3.64,114.89-13.18,168.83-22.39,76.74-13.11,149.22-25.5,220.81-19.03,34.31,3.1,64.03,8.47,89.8,15.36v-1.29Z" style="fill: #fff;"/>
      <path d="M1150.76,60.06c-29.98-7.94-65-13.53-105.86-15.39-63.75-2.9-127.19,9.37-194.35,22.35-60.13,11.62-122.3,23.63-190.29,26.01-72.16,2.53-132.51-3.65-186.98-10.7l-1.71-.22c-67.28-8.71-120.42-15.58-175.68-4.89-14.68,2.84-29.26,5.99-43.35,9.03-36.65,7.92-71.26,15.4-109.07,18.27-28.46,2.16-50.35,2.64-68.89,1.5-30-1.85-56.07-5.16-74.55-8v1.49c18.51,2.83,44.54,6.14,74.46,7.98,18.61,1.15,40.57.67,69.1-1.5,37.91-2.88,72.57-10.37,109.27-18.3,14.09-3.04,28.66-6.19,43.32-9.03,55.03-10.64,108.07-3.78,175.21,4.91l1.71.22c54.53,7.06,114.96,13.24,187.22,10.71,68.1-2.38,130.34-14.41,190.52-26.04,67.08-12.96,130.43-25.21,194.01-22.32,40.93,1.86,75.96,7.47,105.93,15.44v-1.52Z" style="fill: #fff;"/>
      <path d="M1150.76,61.49c-36.89-9.78-77.74-14.75-122.05-14.79h-.38c-57.08,0-113.04,12.41-172.29,25.55-64.55,14.31-131.3,29.12-206.78,29.75-73.36.61-133.47-9.9-184.05-19.79l-2.45-.48c-65.13-12.75-116.57-22.82-172.31-11.54-19.83,4.01-39.69,9.02-58.9,13.87-29.27,7.38-59.53,15.02-90.75,19.43-28.85,4.08-49.77,5.86-67.9,5.87-28.99-.02-54.51-1.6-72.9-3.19v1.63c18.42,1.59,43.93,3.17,72.9,3.19h.17c18.15,0,39.12-1.82,67.96-5.89,31.31-4.42,61.62-12.07,90.92-19.46,19.19-4.84,39.04-9.85,58.83-13.85,55.42-11.21,106.72-1.17,171.68,11.54l2.45.48c49.24,9.64,107.48,19.85,178.21,19.85,2.04,0,4.1,0,6.16-.03,75.65-.63,142.48-15.45,207.12-29.79,59.16-13.12,115.03-25.51,171.94-25.51h.38c44.64.04,85.37,4.98,122.05,14.73v-1.56Z" style="fill: #fff;"/>
      <path d="M1150.76,62.47c-41.84-11.27-88.15-15.89-138.24-13.75-51.91,2.23-102.09,15.05-155.22,28.63-67.5,17.25-137.32,35.1-219.01,33.6-71.69-1.3-128.78-14.98-181.1-28.88l-3.19-.85c-63-16.75-112.76-29.97-168.95-18.09-23.65,5-46.68,11.84-71.06,19.07-24.56,7.29-49.95,14.82-75.83,20.23-20.53,4.29-44.54,8.86-66.91,10.25-28.01,1.73-52.96,1.83-71.24,1.47v1.77c18.32.36,43.31.26,71.35-1.47,22.48-1.39,46.57-5.98,67.17-10.28,25.95-5.42,51.38-12.97,75.97-20.27,24.35-7.22,47.34-14.05,70.92-19.04,55.78-11.8,105.36,1.38,168.13,18.07l3.19.85c52.43,13.93,109.63,27.64,181.52,28.94,3.22.06,6.41.09,9.6.09,77.83,0,144.92-17.15,209.88-33.75,53.04-13.55,103.13-26.36,154.86-28.57,50.21-2.16,96.35,2.52,138.17,13.95v-1.97Z" style="fill: #fff;"/>
      <path d="M1150.76,63.09c-46.92-12.99-98.72-17.14-154.44-12.33-47.66,4.11-93.12,17.48-141.24,31.62-69.28,20.37-140.92,41.42-227.76,37.54-70.56-3.15-124.54-19.76-178.15-37.97l-3.87-1.31c-60.91-20.7-109.03-37.05-165.66-24.54-26.49,5.85-52.88,15.03-80.81,24.75-20.59,7.16-41.88,14.57-63.32,20.56-20.36,5.69-44.11,11.87-65.92,14.62-27.04,3.4-51.42,5.11-69.57,5.97v1.92c18.21-.86,42.67-2.57,69.81-5.99,21.94-2.76,45.78-8.97,66.2-14.67,21.5-6.01,42.82-13.42,63.44-20.6,27.88-9.7,54.21-18.86,80.59-24.69,56.12-12.4,104,3.88,164.63,24.48l3.87,1.31c53.75,18.25,107.87,34.9,178.68,38.07,87.15,3.9,158.96-17.21,228.39-37.62,48.03-14.12,93.4-27.46,140.86-31.55,62.15-5.36,113.21,1.1,154.28,12.5v-2.07Z" style="fill: #fff;"/>
      <path d="M1150.76,63.42c-52.17-14.96-109.46-18.55-170.65-10.63-44.27,5.73-85.94,19.75-130.06,34.59-70.13,23.6-142.64,47.99-233.71,41.51-69.7-4.96-122.65-25.08-175.2-47.04l-4.47-1.87c-58.87-24.62-105.37-44.07-162.46-30.91-28.44,6.56-57.49,18.32-88.25,30.77-17.34,7.02-35.26,14.28-53.14,20.55-19.86,7.04-43.1,14.81-64.93,18.99-26.09,5-49.89,8.26-67.89,10.32v2.07c18.07-2.06,42.02-5.34,68.28-10.37,21.97-4.21,45.31-12,65.23-19.07,17.92-6.29,35.87-13.55,53.22-20.58,30.68-12.42,59.66-24.15,87.94-30.68,56.44-13.02,102.67,6.32,161.2,30.8l4.47,1.87c52.72,22.03,105.83,42.21,175.85,47.2,10.21.73,20.17,1.07,29.93,1.07,77.73,0,142.11-21.66,204.58-42.68,44.02-14.81,85.6-28.8,129.67-34.5,69.04-8.93,125.46-2.14,170.38,10.77v-2.18Z" style="fill: #fff;"/>
      <path d="M1150.76,63.54c-57.61-17.22-120.4-20.16-186.86-8.72-41.59,7.16-80.22,21.94-121.13,37.59-70.24,26.88-142.88,54.67-237.4,45.44-74.8-7.31-131.12-35.52-172.24-56.11l-4.97-2.49c-54.63-27.4-101.81-51.06-159.36-37.21-30.12,7.25-61.79,22.03-95.32,37.68-14.18,6.62-28.84,13.46-43.32,19.66-19.59,8.44-42.5,17.81-63.95,23.36-25.17,6.51-48.38,11.26-66.2,14.51v2.24c17.92-3.25,41.34-8.04,66.75-14.61,21.59-5.59,44.6-15,64.26-23.46,14.51-6.21,29.19-13.06,43.39-19.69,33.43-15.6,65-30.34,94.9-37.54,56.76-13.66,101.38,8.71,157.86,37.04l4.97,2.49c41.28,20.67,97.81,48.99,173.02,56.34,12.75,1.25,25.09,1.82,37.09,1.82,77.45,0,140.29-24.04,201.32-47.4,40.8-15.61,79.33-30.36,120.71-37.48,75.84-13.06,137.63-5.79,186.48,8.85v-2.31Z" style="fill: #fff;"/>
      <path d="M1150.76,63.51c-53.11-16.57-120.43-24.4-203.07-6.65-39.49,8.48-75.67,24.12-113.97,40.68-69.79,30.17-141.96,61.37-239.31,49.29-74.31-9.23-129.2-41.56-169.28-65.18l-5.39-3.18c-52.77-31.14-98.35-58.04-156.37-43.47-31.51,7.91-65.68,26.16-101.86,45.48-11.17,5.97-22.72,12.13-34.05,17.89-18.02,9.18-41.46,20.64-62.96,27.72-24.27,7.91-46.88,14.08-64.51,18.49v2.43c17.75-4.43,40.65-10.67,65.24-18.68,21.66-7.14,45.2-18.64,63.29-27.86,11.35-5.77,22.91-11.94,34.09-17.91,36.05-19.25,70.09-37.43,101.32-45.27,57.08-14.33,102.27,12.33,154.6,43.21l5.39,3.18c40.26,23.72,95.39,56.2,170.19,65.48,14.86,1.85,29.12,2.69,42.89,2.69,77.01,0,138.19-26.45,197.64-52.15,38.2-16.51,74.27-32.11,113.53-40.54,82.51-17.71,149.66-9.79,202.58,6.84v-2.49Z" style="fill: #fff;"/>
      <path d="M1150.76,63.42c-3.01-.98-6.05-1.95-9.15-2.87-66.43-19.86-137.14-20.42-210.14-1.65-37.85,9.73-72.04,26.32-108.23,43.89-68.9,33.44-140.15,68.01-239.79,53-74.22-11.18-126.19-46.75-172.04-78.14-50.96-34.88-94.96-65.01-153.46-49.68-32.73,8.58-71.13,31.88-108.27,54.42-29.39,17.83-59.78,36.28-86.87,47.08-23.37,9.32-45.39,16.86-62.8,22.39v2.62c17.57-5.58,39.95-13.21,63.73-22.69,27.29-10.88,57.77-29.38,87.25-47.27,36.98-22.44,75.22-45.65,107.61-54.13,57.39-15.03,100.96,14.79,151.41,49.33,46.07,31.54,98.29,67.28,173.08,78.55,16.64,2.51,32.48,3.64,47.65,3.64,76.41,0,135.83-28.83,193.6-56.87,36.08-17.51,70.16-34.05,107.77-43.72,89.3-22.96,161.7-14.22,218.67,4.58v-2.48Z" style="fill: #fff;"/>
    </g>
  </g>
</svg>