<?xml version="1.0" encoding="UTF-8"?>
<svg id="Layer_2" data-name="Layer 2" xmlns="http://www.w3.org/2000/svg" viewBox="0 0 1153.91 193.75">
  <g id="Layer_1-2" data-name="Layer 1">
    <g>
      <path d="M0,134.85c8.33,4.16,17,8.38,26.05,12.67,84.46,39.99,174.1,53.84,274.04,42.33,87.85-10.11,171.06-37.7,251.54-64.39,21.17-7.02,41.16-13.65,61.27-19.98,200.84-63.24,276.12-82.8,390.59-37.53,63.29,25.03,116,58.18,150.42,82.76v-1.38c-34.49-24.57-87.03-57.52-150.01-82.43-57.8-22.86-105.07-29.28-163.18-22.16-58.85,7.21-128.55,28.31-228.16,59.67-20.12,6.33-40.12,12.97-61.29,19.99-157.53,52.23-336.07,111.44-524.75,22.11C17.31,142.13,8.48,137.83,0,133.59v1.26Z" style="fill: #f2f3f5;"/>
      <path d="M0,128.28c2.14,1.02,4.28,2.03,6.41,3.05l21.26,10.09c28.37,13.46,58.19,23.91,88.79,31,30.65,6.89,61.97,10.61,93.36,11.49l2.94.11h2.94s5.89.02,5.89.02c3.93,0,7.85.04,11.78-.01l11.77-.4,5.88-.2c1.96-.07,3.92-.25,5.88-.36l11.75-.78c1.96-.11,3.91-.29,5.87-.49l5.86-.57c3.9-.4,7.82-.71,11.71-1.18l11.68-1.45c31.15-3.95,61.98-9.98,92.64-16.6,30.65-6.7,61.21-13.78,91.61-21.55,30.4-7.74,60.67-15.96,91-23.93,15.17-3.97,30.35-7.89,45.59-11.58l45.75-10.94,91.51-21.88c15.25-3.64,30.49-7.35,45.78-10.77,15.3-3.38,30.7-6.33,46.18-8.66,30.94-4.7,62.52-6.02,93.57-1.89l5.81.84c1.93.29,3.88.51,5.79.92l11.52,2.22,11.42,2.72c1.91.41,3.78,1.02,5.66,1.54l5.65,1.61c3.78,1,7.48,2.31,11.2,3.52l5.58,1.84c1.86.61,3.68,1.35,5.52,2.02l11.01,4.11c1.83.7,3.68,1.34,5.49,2.08l5.42,2.26,10.85,4.52,2.71,1.13,2.67,1.22,5.34,2.44,10.68,4.9,10.52,5.23c7.06,3.39,13.91,7.21,20.83,10.88l2.59,1.39,2.55,1.46,5.1,2.91,5.1,2.91c1.71.96,3.4,1.94,5.07,2.97l10.05,6.09c3.36,2.02,6.62,4.19,9.93,6.28l4.95,3.17,4.88,3.27c.87.59,1.74,1.17,2.61,1.75v-1.51c-.64-.43-1.28-.85-1.91-1.28l-4.89-3.28-4.96-3.17c-3.32-2.09-6.59-4.27-9.95-6.3l-10.07-6.1c-1.67-1.03-3.37-2.02-5.08-2.98l-5.11-2.92-5.11-2.92-2.56-1.46-2.6-1.39c-6.94-3.68-13.79-7.5-20.87-10.9l-10.54-5.24-10.7-4.91-5.35-2.45-2.68-1.22-2.72-1.14-10.87-4.53-5.44-2.26c-1.82-.74-3.67-1.39-5.5-2.09l-11.03-4.12c-1.84-.67-3.66-1.41-5.53-2.02l-5.59-1.85c-3.73-1.22-7.44-2.52-11.24-3.53l-5.67-1.61c-1.89-.52-3.76-1.13-5.69-1.54l-11.46-2.73-11.57-2.23c-1.92-.41-3.88-.64-5.82-.93l-5.83-.84c-31.19-4.15-62.91-2.82-93.92,1.88-15.53,2.33-30.95,5.29-46.28,8.67-15.32,3.42-30.55,7.13-45.81,10.77l-91.52,21.87-45.76,10.94c-15.25,3.69-30.44,7.61-45.61,11.58-30.34,7.96-60.61,16.18-91,23.91-30.38,7.77-60.93,14.85-91.56,21.55-30.64,6.62-61.43,12.64-92.53,16.59l-11.66,1.45c-3.89.47-7.79.78-11.69,1.18l-5.85.57c-1.95.2-3.9.38-5.85.49l-11.72.78c-1.95.12-3.91.29-5.86.36l-5.87.2-11.74.4c-3.92.05-7.83,0-11.75.01h-5.87s-2.94-.02-2.94-.02l-2.93-.11c-31.3-.87-62.55-4.58-93.1-11.44-30.51-7.07-60.24-17.47-88.54-30.9l-21.25-10.08C4.65,129.06,2.32,127.97,0,126.86v1.42Z" style="fill: #f2f3f5;"/>
      <path d="M0,121.92l4.41,2.18,5.3,2.42,21.2,9.69c14.06,6.62,28.55,12.39,43.29,17.38,14.74,5,29.77,9.12,44.99,12.34,7.61,1.6,15.27,3,22.97,4.11l11.57,1.48c3.86.47,7.71,1.06,11.59,1.31l11.63.98c1.94.14,3.87.38,5.82.44l5.83.25,11.66.49c3.89.09,7.78.05,11.66.08,15.56.16,31.1-.74,46.61-1.84,3.87-.33,7.74-.74,11.61-1.1,3.87-.4,7.75-.69,11.6-1.21,7.71-.97,15.44-1.82,23.12-3.02,30.78-4.43,61.3-10.35,91.76-16.45,15.24-3.03,30.46-6.12,45.71-9.03,15.25-2.95,30.52-5.83,45.75-8.87,30.48-6.03,60.9-12.32,91.39-18.27,15.24-2.97,30.5-5.86,45.79-8.57l45.91-7.94c30.61-5.28,61.25-10.49,91.7-16.74,7.61-1.58,15.21-3.19,22.78-4.94,7.58-1.72,15.13-3.59,22.67-5.4,15.1-3.61,30.22-7.14,45.45-10.12,15.22-3,30.53-5.57,45.95-7.27,15.42-1.65,30.93-2.36,46.42-1.82,15.48.53,30.91,2.36,46.1,5.45l11.33,2.59c3.76.94,7.47,2.06,11.21,3.08,3.75.97,7.41,2.28,11.1,3.47l11.05,3.63c29.31,10.19,57.63,23.13,84.91,37.91,10.84,6,21.55,12.28,32.05,18.89v-1.6c-10.29-6.46-20.78-12.6-31.4-18.49-27.34-14.82-55.72-27.8-85.11-38.03l-11.08-3.64c-3.7-1.19-7.36-2.5-11.14-3.48-3.75-1.03-7.48-2.16-11.26-3.1l-11.38-2.61c-15.26-3.11-30.77-4.95-46.33-5.49-15.56-.55-31.15.16-46.62,1.81-15.47,1.71-30.82,4.28-46.07,7.28-15.26,2.98-30.4,6.51-45.51,10.12-7.56,1.81-15.09,3.67-22.66,5.39-7.56,1.75-15.16,3.35-22.76,4.93-30.42,6.24-61.05,11.44-91.66,16.7l-45.92,7.93c-15.3,2.71-30.57,5.59-45.82,8.56-30.5,5.95-60.92,12.22-91.4,18.25-15.23,3.04-30.49,5.93-45.74,8.88-15.26,2.92-30.48,6.02-45.72,9.05-30.46,6.1-60.95,12.03-91.68,16.46-7.67,1.2-15.38,2.05-23.08,3.02-3.84.52-7.71.81-11.57,1.21-3.86.36-7.72.77-11.58,1.1-15.47,1.1-30.97,2-46.48,1.85-3.88-.03-7.76.02-11.63-.07l-11.62-.49-5.81-.25c-1.94-.06-3.87-.29-5.8-.43l-11.59-.97c-3.87-.25-7.71-.83-11.56-1.3l-11.54-1.47c-7.67-1.1-15.3-2.49-22.89-4.09-15.17-3.2-30.15-7.31-44.84-12.28-14.69-4.97-29.11-10.71-43.17-17.32l-21.18-9.68-5.3-2.42L0,120.35v1.57Z" style="fill: #f2f3f5;"/>
      <path d="M0,115.64c4.39,2.12,8.79,4.24,13.22,6.29l21.17,9.31c28.04,12.83,57.56,22.68,87.89,28.53,7.58,1.46,15.21,2.68,22.87,3.63,3.83.52,7.68.81,11.52,1.16l11.53,1.04c3.85.29,7.71.39,11.56.59l5.78.27c1.93.08,3.85.22,5.78.19l11.57.06,5.79.03c1.93-.03,3.86-.12,5.78-.17,30.86-.81,61.59-4.32,92.02-9.27,30.44-4.95,60.66-11.05,90.94-16.74l22.73-4.17c7.59-1.28,15.17-2.66,22.77-3.87,15.2-2.44,30.45-4.67,45.69-6.91,30.48-4.48,60.98-8.87,91.54-12.79,15.28-1.96,30.57-3.8,45.88-5.46,15.31-1.66,30.65-3.12,45.98-4.66,30.66-3.08,61.36-6.12,91.81-11.15,15.22-2.53,30.37-5.53,45.32-9.36,14.94-3.77,29.87-7.56,44.85-11.17,14.97-3.62,30.01-6.93,45.15-9.68,15.14-2.71,30.39-4.9,45.74-5.77,30.67-1.88,61.68,1.22,91.13,10.18l5.55,1.56c1.85.51,3.71,1.03,5.53,1.65l10.97,3.58c1.82.6,3.66,1.17,5.48,1.81l5.41,2,10.82,4c3.57,1.42,7.12,2.92,10.68,4.37l5.34,2.2c1.78.73,3.51,1.57,5.27,2.34l10.52,4.75,10.37,5.06c10.82,5.39,21.49,11.09,31.94,17.18v-1.65c-10.24-5.96-20.7-11.54-31.3-16.83l-10.4-5.08-10.55-4.77c-1.76-.78-3.5-1.62-5.29-2.35l-5.35-2.2c-3.57-1.46-7.13-2.96-10.71-4.39l-10.85-4.02-5.43-2.01c-1.82-.64-3.66-1.21-5.49-1.82l-11-3.59c-1.82-.63-3.68-1.15-5.54-1.66l-5.57-1.57c-3.72-1.02-7.42-2.14-11.16-3.08l-11.3-2.59c-7.59-1.43-15.2-2.81-22.9-3.56-15.36-1.69-30.86-1.96-46.28-1.05-15.43.86-30.74,3.07-45.92,5.77-15.18,2.74-30.25,6.06-45.24,9.67-14.99,3.61-29.93,7.39-44.87,11.15-14.91,3.81-30.01,6.79-45.2,9.31-30.38,5-61.06,8.02-91.71,11.09-15.33,1.53-30.67,2.99-46,4.64-15.33,1.66-30.63,3.49-45.92,5.44-30.58,3.91-61.09,8.27-91.58,12.74-15.24,2.25-30.49,4.48-45.71,6.94-7.61,1.21-15.2,2.6-22.8,3.89l-22.74,4.18c-30.29,5.7-60.49,11.82-90.89,16.78-30.38,4.96-61.03,8.47-91.79,9.3-1.92.06-3.84.15-5.77.18l-5.77-.03-11.54-.05c-1.92.03-3.84-.11-5.76-.19l-5.76-.26c-3.84-.2-7.69-.3-11.52-.58l-11.49-1.03c-3.83-.35-7.67-.64-11.47-1.15-7.63-.95-15.22-2.15-22.77-3.61-30.21-5.82-59.58-15.59-87.58-28.39l-21.15-9.29C9.21,118.4,4.61,116.18,0,113.96v1.68Z" style="fill: #f2f3f5;"/>
      <path d="M0,109.57l16.99,7.88,2.61,1.2,2.65,1.12,5.29,2.24,10.58,4.47,10.59,4.47c1.77.74,3.52,1.51,5.3,2.22l5.36,2.1c7.17,2.74,14.41,5.28,21.72,7.6,14.63,4.63,29.56,8.32,44.67,11.02,7.56,1.34,15.16,2.39,22.8,3.18,7.63.85,15.3,1.1,22.96,1.53l5.74.3,5.75.06,11.5.09,2.88.02,2.87-.09,5.75-.19,11.49-.4c30.64-1.71,61.03-6.18,91.16-11.67,30.14-5.51,60.08-11.93,90.2-17.34,15.05-2.76,30.15-5.17,45.29-7.32,3.78-.6,7.58-.99,11.37-1.48l11.38-1.4c7.6-.87,15.21-1.66,22.82-2.44,30.45-3.12,60.95-5.71,91.49-7.59,15.27-.94,30.55-1.72,45.84-2.3,15.29-.59,30.59-.92,45.89-1.3,30.6-.79,61.27-1.54,91.76-5.01,15.24-1.72,30.4-4.24,45.33-7.82,14.9-3.65,29.64-7.75,44.42-11.77,29.52-8.04,59.09-16.17,89.31-20.81,15.09-2.36,30.35-3.64,45.61-3.47,15.26.13,30.48,1.76,45.42,4.87l11.17,2.58,5.58,1.29,5.52,1.53,11.04,3.06c3.66,1.09,7.28,2.32,10.92,3.47l5.46,1.76c1.83.56,3.6,1.28,5.4,1.92l10.77,3.93c3.56,1.38,7.09,2.85,10.64,4.28l5.31,2.16,5.24,2.33,5.24,2.33c1.75.77,3.5,1.54,5.21,2.39l10.33,4.97,10.19,5.26c.36.19.72.38,1.08.57v-1.65c-.13-.07-.26-.14-.39-.21l-10.22-5.28-10.36-5c-1.72-.85-3.47-1.63-5.22-2.4l-5.25-2.34-5.25-2.34-5.32-2.17c-3.56-1.43-7.09-2.91-10.67-4.3l-10.8-3.95c-1.81-.64-3.58-1.36-5.42-1.93l-5.47-1.77c-3.65-1.16-7.29-2.39-10.96-3.49l-11.08-3.08-5.54-1.54-5.6-1.3-11.21-2.6c-15.04-3.14-30.38-4.79-45.73-4.94-15.36-.17-30.71,1.1-45.87,3.46-30.36,4.64-59.98,12.77-89.51,20.78-14.77,4-29.54,8.1-44.38,11.72-14.85,3.55-29.95,6.05-45.13,7.75-30.38,3.44-61.01,4.16-91.6,4.93-15.3.37-30.61.69-45.92,1.27-15.31.57-30.6,1.33-45.89,2.26-30.57,1.87-61.1,4.43-91.57,7.53-7.62.79-15.23,1.58-22.84,2.46l-11.41,1.41c-3.8.49-7.61.89-11.4,1.49-15.17,2.17-30.3,4.6-45.37,7.37-30.15,5.44-60.09,11.89-90.19,17.41-30.09,5.51-60.4,9.98-90.92,11.71l-11.45.4-5.73.2-2.86.09-2.86-.02-11.46-.09-5.73-.05-5.72-.3c-7.63-.42-15.27-.66-22.86-1.51-7.59-.78-15.16-1.82-22.68-3.15-15.03-2.67-29.89-6.33-44.46-10.93-7.28-2.3-14.49-4.83-21.63-7.55l-5.33-2.09c-1.77-.71-3.53-1.48-5.29-2.21l-10.57-4.46-10.57-4.46-5.29-2.23-2.64-1.11-2.61-1.2L0,107.81v1.76Z" style="fill: #f2f3f5;"/>
      <path d="M0,103.82s.08.04.12.05l20.89,9.33,5.22,2.33c1.74.77,3.53,1.45,5.29,2.17l10.6,4.29,10.6,4.29c3.54,1.41,7.04,2.92,10.64,4.21,7.15,2.68,14.38,5.17,21.69,7.37,7.31,2.22,14.68,4.22,22.12,5.97,7.44,1.73,14.94,3.21,22.49,4.42,15.08,2.42,30.38,3.79,45.64,3.71,3.82.03,7.63.17,11.45.12l11.44-.34c7.64-.09,15.24-.84,22.86-1.34,3.81-.21,7.6-.69,11.39-1.1l11.38-1.25,11.33-1.61c3.77-.56,7.56-1.03,11.31-1.72,7.52-1.3,15.05-2.5,22.52-4.01l11.23-2.16,11.2-2.31c14.93-3.08,29.81-6.33,44.72-9.48,14.91-3.1,29.83-6.17,44.82-8.78l11.24-1.96c3.75-.64,7.52-1.15,11.28-1.73l11.29-1.68,11.32-1.38c3.78-.43,7.54-.98,11.33-1.32l11.36-1.02c7.57-.74,15.16-1.25,22.76-1.74,30.38-1.95,60.83-2.87,91.28-2.77,15.22.05,30.45.35,45.66.87,15.22.5,30.42,1.3,45.64,2.09,15.22.79,30.44,1.58,45.68,2,15.24.41,30.52.47,45.77-.39,15.25-.88,30.47-2.69,45.44-5.82,7.49-1.53,14.89-3.5,22.24-5.52,7.35-2.02,14.67-4.16,21.98-6.32,29.23-8.65,58.16-18.29,87.78-25.29,14.8-3.48,29.78-6.22,44.89-7.68,15.11-1.4,30.36-1.48,45.43.25,7.53.83,14.99,2.38,22.48,3.66.93.17,1.87.32,2.8.51l2.78.63,5.56,1.25,5.56,1.25c.93.21,1.86.41,2.78.64l2.75.74,11.01,2.98c1.84.47,3.65,1.06,5.46,1.63l5.44,1.71,5.44,1.71c1.81.58,3.59,1.26,5.38,1.88,3.58,1.29,7.18,2.51,10.73,3.85,10.98,4.16,21.78,8.79,32.39,13.83v-1.7c-10.42-4.96-21.04-9.51-31.82-13.63-3.57-1.36-7.18-2.59-10.77-3.89-1.8-.63-3.58-1.31-5.4-1.9l-5.46-1.73-5.46-1.73c-1.82-.57-3.63-1.18-5.48-1.65l-11.05-3.02-2.76-.75c-.93-.23-1.86-.43-2.79-.65l-5.58-1.27-5.58-1.27-2.79-.64c-.93-.2-1.88-.35-2.81-.52-7.52-1.31-15-2.88-22.61-3.73-15.21-1.77-30.59-1.69-45.81-.29-15.22,1.46-30.29,4.21-45.15,7.69-29.73,7-58.7,16.63-87.9,25.25-7.3,2.16-14.61,4.28-21.95,6.3-7.34,2.01-14.68,3.96-22.12,5.47-14.86,3.09-29.98,4.88-45.15,5.74-15.17.85-30.4.78-45.6.36-15.21-.43-30.42-1.23-45.63-2.03-15.21-.81-30.44-1.61-45.67-2.13-15.24-.53-30.48-.84-45.73-.91-30.49-.12-60.99.77-91.42,2.71-7.61.5-15.21,1.01-22.81,1.76l-11.4,1.04c-3.8.34-7.58.89-11.37,1.33l-11.36,1.39-11.31,1.7c-3.77.59-7.55,1.1-11.31,1.75l-11.27,1.97c-15.02,2.63-29.96,5.71-44.88,8.83-14.91,3.16-29.79,6.43-44.7,9.52l-11.18,2.31-11.21,2.16c-7.46,1.51-14.97,2.71-22.47,4.01-3.74.69-7.52,1.16-11.28,1.72l-11.29,1.62-11.34,1.26c-3.78.41-7.55.89-11.35,1.11-7.58.51-15.16,1.26-22.76,1.35l-11.4.35c-3.8.05-7.6-.08-11.4-.11-15.21.09-30.37-1.26-45.37-3.65-7.5-1.2-14.96-2.66-22.35-4.38-7.39-1.74-14.73-3.72-22-5.93-7.27-2.19-14.47-4.65-21.58-7.32-3.57-1.28-7.08-2.79-10.61-4.19l-10.58-4.28-10.59-4.28c-1.76-.72-3.54-1.4-5.28-2.17l-5.21-2.32L.89,102.21C.59,102.08.3,101.94,0,101.81v2.01Z" style="fill: #f2f3f5;"/>
      <path d="M0,98.01c1.46.69,2.92,1.38,4.38,2.08l20.95,9.02c3.5,1.48,6.97,3.05,10.49,4.46l10.63,4.12,21.28,8.23c7.15,2.61,14.4,4.98,21.7,7.14,14.61,4.31,29.53,7.6,44.6,9.82,7.54,1.08,15.13,1.88,22.74,2.36,7.6.47,15.25.68,22.85.4l11.42-.25c.95-.03,1.9-.03,2.85-.08l2.85-.2,5.7-.39,11.39-.79,11.35-1.27c15.14-1.63,30.14-4.27,45.09-7.05l11.17-2.31c3.72-.78,7.45-1.52,11.15-2.38,7.41-1.68,14.84-3.32,22.22-5.09,29.58-6.92,59.06-14.28,88.95-19.47,14.94-2.58,29.94-4.84,45.03-6.34,7.54-.72,15.08-1.59,22.65-1.9,7.57-.43,15.12-.97,22.71-1.12,30.32-.94,60.69-.37,90.96,1.64,30.28,1.97,60.45,5.4,90.55,9.42,30.1,3.89,60.3,8.21,90.8,8.5,15.23.14,30.51-.81,45.57-3.31,3.76-.66,7.49-1.43,11.24-2.18,3.7-.93,7.43-1.78,11.1-2.77,7.34-2,14.63-4.19,21.89-6.45,29.04-9.06,57.46-19.89,86.42-28.92,14.49-4.47,29.12-8.53,43.99-11.38,7.43-1.44,14.91-2.6,22.43-3.39,7.52-.78,15.08-1.15,22.64-1.11,7.56.07,15.1.48,22.61,1.57,3.76.48,7.52.9,11.27,1.41l11.2,1.92c14.89,2.79,29.67,6.24,44.12,10.86,11.15,3.49,22.16,7.45,32.97,11.9v-1.67c-10.65-4.4-21.5-8.32-32.48-11.79-14.49-4.67-29.33-8.19-44.28-11.03l-11.25-1.96c-3.77-.53-7.55-.97-11.33-1.45-7.53-1.11-15.19-1.55-22.81-1.64-7.63-.07-15.26.32-22.85,1.09-7.58.8-15.13,1.96-22.61,3.4-14.97,2.86-29.67,6.93-44.21,11.39-29.06,9.03-57.48,19.82-86.45,28.83-7.24,2.24-14.51,4.42-21.82,6.41-3.66.98-7.34,1.82-11,2.74-3.71.73-7.41,1.5-11.13,2.15-14.92,2.47-30.07,3.39-45.2,3.24-30.31-.32-60.43-4.65-90.53-8.57-30.11-4.05-60.34-7.51-90.69-9.52-30.34-2.04-60.79-2.65-91.19-1.73-7.6.16-15.2.71-22.79,1.14-7.61.33-15.17,1.2-22.74,1.93-15.14,1.52-30.2,3.81-45.18,6.4-29.98,5.23-59.5,12.63-89.06,19.58-7.38,1.78-14.79,3.42-22.19,5.1-3.7.87-7.41,1.61-11.13,2.39l-11.14,2.32c-14.9,2.79-29.85,5.43-44.91,7.07l-11.29,1.27-11.34.8-5.67.39-2.83.2c-.95.05-1.89.05-2.84.08l-11.36.26c-7.58.29-15.14.09-22.69-.37-7.55-.47-15.08-1.26-22.57-2.32-14.98-2.19-29.8-5.45-44.33-9.72-7.26-2.14-14.47-4.48-21.59-7.08l-21.24-8.19-10.62-4.1c-3.52-1.41-6.98-2.97-10.47-4.45l-20.91-8.99C3.45,97.51,1.73,96.69,0,95.88v2.14Z" style="fill: #f2f3f5;"/>
      <path d="M0,92.28l8.97,4.1c1.73.77,3.43,1.62,5.2,2.33l5.26,2.18,10.53,4.35,10.53,4.35c1.74.75,3.53,1.39,5.31,2.05l5.34,1.98,21.37,7.91c7.16,2.54,14.42,4.85,21.74,6.93,14.66,4.09,29.58,7.28,44.69,9.2,15.09,1.94,30.39,2.76,45.59,1.88l11.39-.67,5.69-.34,5.67-.61,11.34-1.22,2.84-.3,2.82-.42,5.64-.86c30.1-4.44,59.64-11.87,88.93-19.71,29.32-7.79,58.64-15.56,88.45-20.89l11.21-1.79,5.61-.89c1.87-.29,3.73-.63,5.62-.81l11.27-1.33,5.64-.67c.94-.1,1.88-.24,2.82-.32l2.83-.21,11.32-.84c3.77-.25,7.54-.65,11.32-.68l11.34-.32,5.67-.16,2.84-.08h2.84c30.28-.13,60.56,1.87,90.61,5.66,30.06,3.75,59.86,9.42,89.51,15.72,14.84,3.12,29.67,6.34,44.6,9.16,14.93,2.81,29.97,5.2,45.15,6.46l2.84.25,2.85.15,5.7.31c1.9.14,3.81.09,5.71.14l5.72.07c3.81-.12,7.62-.19,11.43-.4l5.7-.46c1.9-.15,3.8-.29,5.69-.58,3.77-.55,7.58-.9,11.31-1.7l5.62-1.07c.94-.16,1.87-.38,2.79-.62l2.78-.69,5.55-1.38c1.84-.5,3.66-1.04,5.49-1.56,1.83-.51,3.64-1.08,5.46-1.64,1.82-.56,3.64-1.1,5.44-1.7,28.98-9.25,56.98-21.09,85.33-31.81,14.18-5.35,28.46-10.43,43-14.61,14.52-4.22,29.35-7.42,44.36-9.05,7.5-.81,15.06-1.13,22.59-.97l2.83.06,2.83.18,5.66.37c3.77.27,7.55.41,11.31.91l11.27,1.28,11.21,1.77c3.75.52,7.44,1.37,11.15,2.1l5.56,1.13c1.85.38,3.68.88,5.52,1.31,11.39,2.69,22.65,5.94,33.72,9.75v-1.6c-10.94-3.79-22.07-7.04-33.34-9.74-1.85-.44-3.68-.95-5.54-1.34l-5.58-1.15c-3.73-.75-7.43-1.61-11.2-2.15l-11.26-1.82-11.33-1.32c-3.77-.52-7.57-.68-11.37-.96l-5.69-.39-2.85-.19-2.86-.07c-7.62-.19-15.26.11-22.84.9-15.16,1.61-30.11,4.83-44.72,9.05-14.63,4.18-28.97,9.26-43.18,14.61-28.41,10.71-56.39,22.5-85.26,31.67-1.8.59-3.61,1.13-5.42,1.68-1.81.55-3.62,1.11-5.44,1.62-1.82.51-3.63,1.06-5.46,1.55l-5.49,1.35-2.75.68c-.91.24-1.83.45-2.76.61l-5.56,1.05c-3.69.79-7.45,1.13-11.18,1.67-1.86.29-3.75.42-5.63.57l-5.64.45c-3.76.21-7.54.27-11.31.38l-5.66-.08c-1.89-.05-3.77,0-5.66-.14l-5.66-.31-2.83-.15-2.82-.26c-15.06-1.26-30.02-3.66-44.9-6.48-14.88-2.83-29.7-6.06-44.54-9.2-29.68-6.34-59.54-12.06-89.7-15.86-30.14-3.83-60.53-5.89-90.93-5.78h-2.85s-2.85.08-2.85.08l-5.7.17-11.4.34c-3.8.03-7.59.44-11.38.7l-11.37.86-2.84.21c-.95.08-1.89.22-2.83.32l-5.66.68-11.32,1.35c-1.89.19-3.76.53-5.64.83l-5.63.9-11.26,1.81c-29.94,5.39-59.33,13.22-88.63,21.04-29.29,7.87-58.7,15.31-88.65,19.77l-5.61.86-2.81.42-2.82.31-11.28,1.23-5.64.61-5.66.34-11.32.68c-15.09.89-30.23.09-45.21-1.81-15-1.88-29.82-5.04-44.39-9.09-7.28-2.05-14.49-4.34-21.62-6.86l-21.32-7.86-5.33-1.97c-1.78-.66-3.56-1.29-5.3-2.04l-10.51-4.33-10.51-4.33-5.25-2.16c-1.76-.7-3.46-1.55-5.19-2.31L0,90.07v2.21Z" style="fill: #f2f3f5;"/>
      <path d="M0,86.76c4.61,2.04,9.23,4.05,13.83,6.1,6.91,3.18,14.02,5.87,21.07,8.69l10.6,4.2c1.77.69,3.52,1.43,5.31,2.08l5.38,1.89,21.5,7.58c7.17,2.51,14.48,4.72,21.83,6.68,14.7,3.96,29.7,6.89,44.84,8.6,15.14,1.72,30.45,2.14,45.67,1.01,15.18-1.12,30.29-3.12,45.26-5.87,29.97-5.42,59.18-14.14,88.25-22.82,14.55-4.33,29.09-8.64,43.74-12.48,14.66-3.84,29.42-7.23,44.32-9.9,29.78-5.41,60.1-7.76,90.36-7,30.27.67,60.47,3.85,90.26,9.36,29.8,5.46,59.14,13.24,88.24,21.77,14.56,4.26,29.09,8.66,43.75,12.68,14.66,4,29.45,7.69,44.52,10.09,15.04,2.41,30.36,3.53,45.62,2.59l2.86-.16c.95-.05,1.91-.1,2.85-.24l5.69-.68,2.85-.34c.95-.1,1.88-.32,2.82-.48l5.64-1.03c7.49-1.52,14.88-3.53,22.12-5.84,29.06-9.21,56.75-21.93,84.54-34.08,13.9-6.08,27.84-12.05,42.03-17.36,7.09-2.67,14.25-5.12,21.48-7.35,7.23-2.22,14.53-4.2,21.92-5.77,7.39-1.58,14.85-2.8,22.36-3.54l5.64-.46,5.65-.24c3.78-.04,7.56.01,11.35.01,15.12.26,30.25,1.47,45.2,3.86,11.63,1.88,23.17,4.35,34.55,7.42v-1.52c-11.29-3.08-22.74-5.58-34.3-7.5-15.02-2.47-30.22-3.75-45.43-4.08-3.81-.02-7.61-.08-11.42-.06l-5.72.22-5.71.44c-7.6.71-15.14,1.91-22.6,3.47-7.46,1.55-14.83,3.55-22.11,5.78-7.28,2.23-14.49,4.69-21.61,7.36-14.26,5.32-28.24,11.27-42.16,17.34-27.83,12.12-55.47,24.76-84.36,33.87-7.22,2.29-14.5,4.26-21.89,5.74l-5.56,1.01c-.93.15-1.85.37-2.79.47l-2.81.33-5.61.66c-.93.13-1.87.19-2.82.23l-2.82.16c-15.05.91-30.18-.22-45.09-2.63-14.93-2.39-29.63-6.08-44.24-10.1-14.61-4.04-29.13-8.45-43.69-12.74-29.13-8.58-58.55-16.44-88.47-21.97-29.9-5.58-60.26-8.83-90.69-9.53-30.44-.71-60.96,1.7-90.9,7.18-14.98,2.71-29.81,6.14-44.51,10.02-14.7,3.88-29.26,8.22-43.81,12.57-29.06,8.72-58.15,17.45-87.96,22.89-14.88,2.76-29.9,4.76-44.99,5.9-15.06,1.14-30.22.76-45.24-.93-15.02-1.68-29.91-4.56-44.52-8.47-7.31-1.94-14.55-4.12-21.71-6.61l-21.46-7.52-5.37-1.88c-1.78-.64-3.53-1.38-5.3-2.06l-10.57-4.18c-7.04-2.8-14.14-5.47-21.03-8.63C9.78,88.78,4.88,86.66,0,84.5v2.26Z" style="fill: #f2f3f5;"/>
      <path d="M0,81.3c20.19,9.06,40.76,17.3,61.6,24.77,14.48,4.74,28.78,10.07,43.64,13.69,14.79,3.8,29.88,6.48,45.09,7.99,15.22,1.41,30.59,1.62,45.83.07,15.19-1.56,30.27-4.1,45.17-7.39,14.9-3.29,29.63-7.33,44.19-11.84,14.56-4.5,28.99-9.39,43.41-14.2,14.43-4.8,28.88-9.5,43.48-13.64,14.6-4.14,29.37-7.67,44.28-10.37,14.91-2.71,29.98-4.57,45.1-5.54,15.13-.97,30.31-1.05,45.45-.37,30.3,1.32,60.46,5.64,89.94,12.8,29.52,7.08,58.3,16.94,86.75,27.65,14.24,5.34,28.41,10.87,42.74,16.08,14.32,5.19,28.82,10.05,43.68,13.69,14.84,3.64,30.09,6.01,45.45,6.09,15.36.12,30.69-2.39,45.35-6.82,58.65-18.08,109.7-53.42,167.52-72.28,14.41-4.66,29.27-8.08,44.37-9.17l11.35-.71c3.79-.13,7.58-.13,11.37-.2l2.84-.04c.95,0,1.9.05,2.84.07l5.69.17c1.9.07,3.79.09,5.69.2l5.68.41c11.87.86,23.69,2.41,35.39,4.61v-1.41c-11.65-2.25-23.43-3.85-35.27-4.77l-5.7-.45c-1.9-.12-3.81-.15-5.72-.23l-5.72-.2c-.95-.03-1.91-.08-2.86-.09l-2.86.03c-3.81.05-7.63.04-11.44.14l-11.43.66c-15.27,1.02-30.31,4.4-44.85,9.02-14.57,4.59-28.69,10.44-42.6,16.66-13.9,6.26-27.57,12.96-41.25,19.63-13.68,6.67-27.35,13.31-41.26,19.41-6.94,3.07-13.96,5.96-21.04,8.67-7.08,2.71-14.24,5.21-21.5,7.36-14.47,4.32-29.5,6.73-44.59,6.57-15.09-.11-30.11-2.44-44.8-6.06-14.7-3.62-29.1-8.46-43.37-13.65-14.27-5.2-28.44-10.75-42.69-16.11-28.48-10.75-57.38-20.69-87.07-27.84-29.65-7.22-60.01-11.62-90.51-12.96-15.25-.67-30.54-.58-45.78.42-15.24.99-30.42,2.88-45.44,5.62-15.02,2.74-29.88,6.3-44.55,10.48-14.67,4.18-29.16,8.9-43.6,13.72-14.43,4.83-28.83,9.72-43.34,14.22-14.5,4.5-29.15,8.53-43.95,11.82-14.8,3.28-29.78,5.81-44.86,7.39-15.03,1.58-30.23,1.42-45.3.07-15.07-1.45-30.04-4.06-44.73-7.79-14.74-3.54-29.03-8.82-43.47-13.5C41.27,96.38,20.45,88.1,0,78.97v2.33Z" style="fill: #f2f3f5;"/>
      <path d="M0,75.89c22.06,9.89,44.56,18.79,67.43,26.66l21.89,6.94,5.47,1.73,5.54,1.56c1.84.54,3.71.97,5.56,1.47,1.85.49,3.71.96,5.58,1.38,7.46,1.8,14.99,3.3,22.56,4.52,7.58,1.21,15.2,2.2,22.86,2.76,15.31,1.14,30.76,1.07,46.04-.97,15.22-2.03,30.27-5.06,45.11-8.93,14.84-3.85,29.46-8.49,43.91-13.54,14.44-5.07,28.73-10.52,43.05-15.82,14.32-5.3,28.7-10.39,43.28-14.82,14.56-4.46,29.37-8.1,44.33-10.82,14.97-2.72,30.11-4.45,45.3-5.2,15.19-.75,30.43-.53,45.62.49,15.19,1.01,30.32,2.76,45.29,5.51,14.97,2.73,29.79,6.31,44.38,10.65,29.22,8.64,57.43,20.42,85.14,33.19,13.87,6.37,27.65,13,41.58,19.33,13.93,6.32,28.04,12.37,42.62,17.24,14.56,4.86,29.67,8.45,45.07,9.58,15.39,1.18,30.99-.35,45.87-4.4,14.87-4.08,29.1-9.92,43.03-16.3,13.91-6.45,27.47-13.55,40.94-20.79,26.93-14.46,53.48-29.69,81.59-41.52,14.02-5.94,28.51-10.85,43.41-13.87,14.96-2.64,30.18-4.21,45.42-4.52,12.02-.24,24.06.26,36.02,1.48v-1.29c-11.97-1.29-24.01-1.86-36.05-1.69-15.33.21-30.6,1.69-45.74,4.26-15.08,2.96-29.72,7.83-43.86,13.71-14.17,5.85-27.9,12.66-41.48,19.71-13.57,7.07-26.98,14.41-40.45,21.61-13.47,7.19-27.02,14.22-40.87,20.58-13.86,6.29-28.03,12.04-42.67,15.99-14.62,3.92-29.87,5.36-44.95,4.15-15.1-1.14-29.96-4.67-44.35-9.5-14.41-4.84-28.43-10.86-42.31-17.18-13.88-6.33-27.65-12.97-41.54-19.37-27.75-12.84-56.1-24.71-85.52-33.45-14.69-4.39-29.62-8.01-44.71-10.78-15.09-2.78-30.36-4.57-45.65-5.6-15.3-1.01-30.67-1.22-46-.44-15.33.77-30.61,2.54-45.7,5.3-15.1,2.76-30.02,6.45-44.67,10.96-14.66,4.47-29.1,9.61-43.43,14.93-14.34,5.32-28.6,10.78-42.99,15.85-14.39,5.05-28.92,9.68-43.66,13.52-14.73,3.86-29.68,6.87-44.75,8.93-15.03,2.06-30.3,2.19-45.45,1.11-7.58-.53-15.13-1.48-22.65-2.65-7.51-1.18-14.99-2.64-22.39-4.4-14.85-3.34-29.28-8.4-43.87-12.85C45.07,92.41,22.32,83.47,0,73.54v2.36Z" style="fill: #f2f3f5;"/>
      <path d="M0,70.7c24.02,10.81,48.62,20.35,73.67,28.52l11.03,3.43c3.67,1.18,7.4,2.15,11.09,3.24,7.38,2.2,14.89,4.04,22.41,5.73,7.53,1.69,15.14,3.05,22.78,4.15,7.64,1.1,15.33,1.93,23.05,2.34,15.43.87,30.99.42,46.3-2.09,15.24-2.55,30.29-6.1,45.07-10.55,14.79-4.43,29.3-9.68,43.63-15.33,14.33-5.65,28.48-11.68,42.71-17.47,14.22-5.8,28.54-11.3,43.12-16.01,14.56-4.75,29.42-8.51,44.47-11.22,15.05-2.7,30.3-4.28,45.58-4.78,15.29-.51,30.61.05,45.85,1.43,30.52,2.5,60.6,9.3,89.46,19.5,28.91,10.17,56.48,23.82,83.4,38.56,13.48,7.35,26.83,14.98,40.34,22.38,13.51,7.38,27.19,14.55,41.43,20.59,14.23,6.02,29.09,10.88,44.49,13.14,7.69,1.12,15.49,1.62,23.26,1.31,7.77-.3,15.52-1.34,23.09-3.06,15.17-3.52,29.53-9.45,43.48-16.04,13.93-6.64,27.42-14.13,40.73-21.85,26.63-15.43,52.61-31.94,79.94-45.91,6.82-3.5,13.74-6.83,20.78-9.85,7.04-3.02,14.18-5.82,21.47-8.15,3.66-1.12,7.32-2.23,11.04-3.12,1.84-.51,3.72-.88,5.6-1.27l5.63-1.18c3.74-.86,7.54-1.38,11.32-2.02,1.89-.29,3.78-.66,5.68-.89l5.71-.69c12.02-1.43,24.14-2.11,36.25-2.08v-1.15c-12.16-.12-24.32.48-36.41,1.83l-5.74.65c-1.91.21-3.81.57-5.72.85-3.8.62-7.63,1.11-11.39,1.95l-5.67,1.14c-1.89.38-3.78.74-5.65,1.24-3.77.87-7.47,1.96-11.17,3.07-7.38,2.3-14.59,5.06-21.7,8.05-7.11,2.99-14.09,6.28-20.97,9.75-27.53,13.91-53.59,30.35-80.24,45.63-13.32,7.65-26.78,15.05-40.64,21.58-13.85,6.47-28.13,12.29-42.96,15.66-7.42,1.66-14.98,2.64-22.57,2.9-7.59.27-15.2-.25-22.72-1.37-15.05-2.25-29.66-7.02-43.72-12.99-14.07-6-27.66-13.13-41.12-20.51-13.46-7.4-26.8-15.04-40.31-22.44-26.97-14.82-54.7-28.6-83.84-38.89-29.09-10.32-59.48-17.25-90.27-19.8-15.37-1.36-30.84-1.91-46.28-1.38-15.44.52-30.86,2.14-46.06,4.9-15.21,2.76-30.22,6.58-44.89,11.39-14.68,4.77-29.08,10.32-43.33,16.15-14.25,5.82-28.38,11.87-42.65,17.52-14.27,5.64-28.69,10.88-43.36,15.3-14.66,4.44-29.6,7.96-44.67,10.54-15.04,2.53-30.4,3.04-45.65,2.25-7.63-.38-15.25-1.17-22.83-2.23-7.58-1.06-15.12-2.38-22.6-4.02-7.48-1.64-14.92-3.44-22.29-5.6-3.68-1.07-7.4-2.02-11.06-3.18l-11-3.38C49.13,88.73,24.28,79.18,0,68.35v2.34Z" style="fill: #f2f3f5;"/>
      <path d="M0,65.48c11.99,5.38,24.13,10.45,36.39,15.19,14.49,5.58,29.14,10.75,43.98,15.32,7.44,2.21,14.89,4.44,22.41,6.37,7.48,2.08,15.08,3.79,22.7,5.34,7.62,1.55,15.32,2.79,23.04,3.74,7.73.95,15.5,1.64,23.29,1.88,15.57.53,31.26-.3,46.63-3.32,15.28-3.09,30.31-7.26,45.02-12.33,14.72-5.05,29.13-10.94,43.34-17.2,14.21-6.27,28.23-12.88,42.37-19.17,14.13-6.29,28.43-12.19,43.03-17.15,14.6-4.98,29.56-8.83,44.73-11.47,15.17-2.64,30.56-4.01,45.97-4.21,15.41-.21,30.83.73,46.16,2.49l5.75.69c1.91.23,3.83.44,5.73.77l11.41,1.81,11.32,2.3c1.9.35,3.75.87,5.63,1.31l5.61,1.39c14.92,3.86,29.56,8.8,43.82,14.66,28.58,11.7,55.48,27.16,81.57,43.77,13.07,8.29,25.98,16.87,39.04,25.26,13.07,8.37,26.3,16.58,40.16,23.73,13.84,7.13,28.4,13.2,43.73,16.62,15.3,3.48,31.34,3.88,46.77,1,7.72-1.4,15.27-3.64,22.6-6.32,7.34-2.67,14.48-5.82,21.48-9.24,14.01-6.81,27.44-14.67,40.66-22.81,26.41-16.32,51.92-33.98,78.55-49.78,13.3-7.91,26.9-15.32,41.05-21.53,7.09-3.06,14.32-5.79,21.72-8,3.72-1.06,7.41-2.22,11.15-3.19,3.76-.91,7.49-1.9,11.27-2.75,11.81-2.64,23.78-4.56,35.82-5.79v-1.09c-12.13,1.14-24.2,2.97-36.12,5.54-3.79.82-7.56,1.79-11.34,2.68-3.77.94-7.48,2.08-11.23,3.12-7.47,2.17-14.79,4.87-21.95,7.9-14.3,6.14-28.03,13.48-41.43,21.32-26.8,15.71-52.4,33.27-78.81,49.42-13.21,8.05-26.62,15.81-40.53,22.49-6.95,3.35-14.02,6.44-21.26,9.03-7.24,2.61-14.61,4.76-22.15,6.09-15.06,2.73-30.63,2.27-45.55-1.19-14.95-3.38-29.25-9.34-42.93-16.41-13.69-7.09-26.83-15.27-39.85-23.64-13.01-8.39-25.92-16.99-39.01-25.33-26.14-16.7-53.21-32.33-82.05-44.18-14.4-5.94-29.19-10.96-44.27-14.89l-5.67-1.41c-1.89-.46-3.77-.98-5.69-1.34l-11.45-2.34-11.54-1.85c-1.92-.34-3.85-.55-5.79-.79l-5.8-.7c-15.47-1.75-31.05-2.67-46.63-2.44-15.58.23-31.16,1.63-46.53,4.33-15.36,2.7-30.5,6.63-45.24,11.68-14.74,5.04-29.13,11-43.3,17.34-14.18,6.34-28.19,12.97-42.33,19.23-14.15,6.26-28.45,12.13-43.05,17.17-14.58,5.06-29.5,9.19-44.58,12.31-15.06,3.04-30.53,3.93-45.91,3.48-7.7-.21-15.39-.85-23.05-1.76-7.66-.91-15.29-2.09-22.86-3.6-7.57-1.51-15.11-3.16-22.57-5.2-7.5-1.88-14.92-4.07-22.34-6.24C53.48,85.15,26.43,74.87,0,63.16v2.32Z" style="fill: #f2f3f5;"/>
      <path d="M0,60.38c28.46,12.63,57.62,23.79,87.54,32.53,7.55,2.14,15.11,4.24,22.75,6.05,7.61,1.93,15.31,3.52,23.04,4.91,3.86.72,7.75,1.29,11.64,1.89,3.9.51,7.79,1.04,11.71,1.41,7.83.78,15.69,1.32,23.57,1.4,15.74.14,31.58-1.1,46.99-4.74,15.33-3.63,30.33-8.44,44.99-14.13,14.67-5.68,28.96-12.22,43.05-19.11,14.08-6.9,27.99-14.1,42.05-20.91,14.07-6.77,28.34-13.09,43.01-18.29,14.69-5.13,29.77-9.1,45.1-11.62,15.33-2.54,30.89-3.64,46.45-3.5,15.56.14,31.1,1.5,46.52,3.68,30.9,3.97,60.94,13.29,89.08,26.59,28.21,13.26,54.4,30.49,79.65,48.89,12.65,9.19,25.11,18.66,37.71,27.99,12.62,9.3,25.39,18.47,38.85,26.66,13.44,8.16,27.64,15.39,42.86,19.94,7.6,2.25,15.44,3.78,23.36,4.42,7.92.65,15.91.41,23.77-.72,7.86-1.11,15.57-3.14,23.02-5.75,7.46-2.6,14.7-5.77,21.77-9.24,14.1-7.01,27.55-15.17,40.69-23.74,26.27-17.16,51.4-35.88,77.39-53.3,6.49-4.36,13.05-8.62,19.67-12.77,6.64-4.11,13.37-8.08,20.23-11.83,6.85-3.74,13.87-7.18,21.04-10.24,3.56-1.58,7.25-2.89,10.89-4.3,3.63-1.45,7.35-2.65,11.04-3.92,11.31-3.77,22.82-7,34.47-9.56v-.95c-11.78,2.47-23.41,5.62-34.86,9.32-3.72,1.25-7.46,2.42-11.12,3.84-3.67,1.39-7.38,2.66-10.99,4.23-7.25,3.02-14.34,6.42-21.26,10.12-6.92,3.7-13.72,7.63-20.42,11.7-6.68,4.1-13.29,8.33-19.84,12.63-26.15,17.3-51.37,35.9-77.64,52.86-13.13,8.47-26.55,16.51-40.53,23.36-13.99,6.75-28.66,12.4-43.97,14.48-7.64,1.05-15.39,1.25-23.07.58-7.68-.67-15.28-2.19-22.68-4.42-14.81-4.49-28.76-11.58-42.03-19.67-13.29-8.12-25.97-17.25-38.54-26.56-12.56-9.32-25.01-18.83-37.68-28.07-25.3-18.5-51.66-35.92-80.15-49.38-28.41-13.49-58.9-23.02-90.14-27.07-15.57-2.18-31.29-3.53-47.04-3.64-15.75-.12-31.53,1.02-47.09,3.63-15.56,2.59-30.85,6.64-45.71,11.86-14.84,5.29-29.23,11.69-43.35,18.52-14.11,6.86-28.01,14.08-42.03,20.99-14.03,6.89-28.22,13.41-42.75,19.06-1.8.74-3.64,1.4-5.47,2.07l-5.49,2.01c-3.68,1.29-7.38,2.48-11.07,3.73-3.73,1.11-7.45,2.26-11.2,3.34-3.77.97-7.52,2.04-11.3,2.95-15.07,3.64-30.66,4.95-46.2,4.9-7.78-.04-15.55-.52-23.3-1.26-3.88-.35-7.74-.86-11.61-1.34-3.85-.57-7.71-1.12-11.55-1.81-7.68-1.34-15.33-2.87-22.9-4.76-7.61-1.75-15.14-3.81-22.67-5.89C58.21,81.85,28.91,70.77.25,58.25c-.08-.04-.17-.08-.25-.11v2.24Z" style="fill: #f2f3f5;"/>
      <path d="M0,55.12c1.9.84,3.8,1.7,5.72,2.53,29.08,12.62,58.87,23.78,89.51,32.14,15.32,4.17,30.84,7.64,46.55,10.07,15.7,2.43,31.61,3.83,47.54,3.62,15.92-.22,31.9-2.06,47.32-6.35,15.34-4.23,30.35-9.62,44.96-15.91,14.61-6.29,28.81-13.47,42.77-21.02,13.97-7.53,27.74-15.35,41.76-22.63,14.01-7.28,28.31-14,43.12-19.32,14.78-5.37,30.08-9.28,45.61-11.62,15.54-2.34,31.31-3.06,47.03-2.53,15.73.51,31.41,2.36,46.95,4.97,15.55,2.56,30.82,6.41,45.69,11.56,14.86,5.14,29.27,11.57,43.14,19.03,27.78,14.91,53.21,33.88,77.6,53.98,12.22,10.04,24.22,20.38,36.39,30.56,12.17,10.17,24.5,20.22,37.56,29.37,13.05,9.11,26.9,17.37,41.99,22.96,7.53,2.79,15.35,4.87,23.33,5.98,7.98,1.1,16.1,1.26,24.11.4,8.01-.83,15.9-2.62,23.5-5.17,7.61-2.54,14.94-5.78,22.06-9.36,14.24-7.2,27.68-15.77,40.78-24.72,26.18-17.99,51.02-37.71,76.48-56.54,12.73-9.41,25.56-18.69,38.85-27.26,6.65-4.27,13.4-8.39,20.34-12.18,3.47-1.89,6.96-3.74,10.54-5.41,3.58-1.69,7.09-3.5,10.73-5.06,10.46-4.73,21.14-8.99,31.98-12.79v-.85c-10.99,3.71-21.83,7.89-32.46,12.57-3.66,1.52-7.21,3.31-10.82,4.96-3.61,1.64-7.15,3.47-10.65,5.33-7.01,3.74-13.83,7.81-20.55,12.03-13.42,8.48-26.41,17.61-39.21,26.96-25.61,18.69-50.58,38.25-76.76,56-13.1,8.84-26.5,17.26-40.6,24.27-7.05,3.49-14.27,6.63-21.71,9.05-7.43,2.44-15.09,4.13-22.85,4.88-7.75.78-15.58.58-23.29-.53-7.7-1.13-15.28-3.12-22.59-5.86-14.66-5.46-28.26-13.59-41.14-22.62-12.89-9.06-25.13-19.08-37.25-29.25-12.12-10.18-24.11-20.55-36.35-30.66-24.43-20.22-50.03-39.42-78.12-54.56-14.02-7.58-28.62-14.14-43.69-19.38-15.05-5.28-30.64-9.11-46.35-11.68-15.7-2.61-31.56-4.44-47.5-4.92-15.93-.5-31.94.27-47.73,2.69-15.78,2.42-31.33,6.43-46.31,11.91-15.01,5.43-29.44,12.26-43.52,19.61-14.09,7.35-27.85,15.22-41.76,22.76-13.9,7.54-27.93,14.83-42.39,21.15-14.44,6.34-29.28,11.79-44.46,16.09-15.11,4.28-30.85,6.17-46.59,6.46-15.75.28-31.53-1.03-47.13-3.37-15.61-2.35-31.07-5.73-46.34-9.81-30.53-8.22-60.34-19.08-89.46-31.47C4.23,55.27,2.12,54.34,0,53.42v1.7Z" style="fill: #f2f3f5;"/>
    </g>
  </g>
</svg>