<?xml version="1.0" encoding="UTF-8"?>
<svg id="Layer_2" data-name="Layer 2" xmlns="http://www.w3.org/2000/svg" viewBox="0 0 1152.28 182.87">
  <g id="Layer_1-2" data-name="Layer 1">
    <g>
      <path d="M1152.28,0c-16.79.85-40.6,4.07-74.24,11.88-81.26,18.87-160.05,54.19-236.24,88.34-82.64,37.04-160.7,72.03-231.04,80.48-66.48,7.98-112.8-13.1-166.45-37.52-26.51-12.07-53.93-24.55-86.21-34.62-99.45-31.02-193.03-39.88-254.02-41.86-52.41-1.7-90.38,1.26-104.07,2.58v.45c13.63-1.32,51.61-4.29,104.06-2.59,60.96,1.97,154.5,10.84,253.89,41.83,32.26,10.06,59.66,22.53,86.16,34.6,45.81,20.85,86.3,39.28,138.55,39.28,9,0,18.35-.55,28.13-1.72,70.41-8.45,148.5-43.46,231.17-80.52,76.18-34.15,154.95-69.45,236.16-88.31,33.62-7.81,57.4-11.02,74.14-11.87v-.45Z" style="fill: #f2f3f5;"/>
      <path d="M1152.28,11.7c-16.29,1.28-37.63,4.52-65.6,10.86-86.45,19.56-166.48,50.34-243.87,80.1-79.8,30.69-155.18,59.68-223.89,69.9-69.58,10.35-115.92-10.56-164.98-32.69-27.06-12.21-55.04-24.83-89.02-33.72C226.44,69.93,95.7,72.82,32.88,74.21c-14.14.31-25.32.56-32.88.32v.59c7.6.25,18.78,0,32.89-.31,62.8-1.39,193.48-4.28,331.88,31.92,33.94,8.88,61.89,21.49,88.93,33.69,40.23,18.15,78.62,35.47,129.49,35.47,11.27,0,23.17-.85,35.82-2.73,68.78-10.23,144.18-39.23,224.01-69.93,77.37-29.75,157.37-60.52,243.78-80.08,27.94-6.34,49.23-9.57,65.47-10.85v-.58Z" style="fill: #f2f3f5;"/>
      <path d="M1152.28,23.54c-15.03,1.53-33.71,4.55-56.96,9.7-91.76,20.27-176.54,47.45-251.35,71.43-77.01,24.69-149.75,48.01-216.88,59.75-72.91,12.76-117.47-7.24-164.65-28.41-27.23-12.22-55.38-24.85-90.7-32.27-116.47-24.48-227.5-23.5-300.96-22.84-30.58.27-54.99.48-70.78-1.2v.73c15.87,1.69,40.26,1.47,70.79,1.2,73.44-.65,184.41-1.64,300.81,22.83,35.24,7.41,63.36,20.02,90.55,32.22,36.99,16.6,72.38,32.48,121.05,32.48,13.54,0,28.11-1.23,44.03-4.01,67.18-11.75,139.94-35.08,216.98-59.78,74.79-23.98,159.56-51.15,251.28-71.41,23.2-5.15,41.83-8.16,56.8-9.69v-.72Z" style="fill: #f2f3f5;"/>
      <path d="M1152.28,35.48c-13.41,1.63-29.35,4.33-48.31,8.44-97.44,21.03-183.44,43.05-259.32,62.47-77.26,19.78-143.98,36.86-209.38,49.89-76.38,15.22-119.45-4.07-165.05-24.49-27.15-12.16-55.23-24.73-91.64-30.47-98.33-15.5-192.2-14.43-267.63-13.56-46.46.53-85.29.98-110.94-2.96v.88c25.74,3.93,64.54,3.49,110.95,2.96,75.39-.87,169.22-1.94,267.48,13.55,36.3,5.72,64.32,18.27,91.42,30.41,34.25,15.34,67.07,30.03,113.59,30.03,15.6,0,32.74-1.65,51.99-5.49,65.42-13.03,132.16-30.12,209.43-49.9,75.87-19.42,161.86-41.44,259.29-62.47,18.9-4.1,34.78-6.79,48.13-8.43v-.87Z" style="fill: #f2f3f5;"/>
      <path d="M1152.28,47.46c-11.54,1.63-24.69,3.96-39.67,7.14-100.63,21.26-185.94,37.51-261.21,51.86-76.48,14.58-142.54,27.16-207.97,41.69-79.94,17.74-121.72-.99-165.95-20.82-26.91-12.06-54.74-24.54-92.1-28.42-81.92-8.5-161.59-6.59-231.88-4.91-63.83,1.53-116.74,2.8-153.49-4.07v1.03c36.87,6.85,89.75,5.58,153.52,4.05,70.26-1.69,149.9-3.6,231.75,4.9,37.2,3.86,64.95,16.3,91.79,28.33,31.88,14.29,62.49,28.01,106.95,28.01,17.44,0,37.02-2.11,59.64-7.13,65.41-14.52,131.46-27.1,207.94-41.68,75.27-14.34,160.59-30.6,261.23-51.86,14.96-3.18,28.02-5.48,39.46-7.07v-1.06Z" style="fill: #f2f3f5;"/>
      <path d="M1152.28,59.59c-9.36,1.45-19.67,3.33-31.03,5.7-106.96,22.14-193.58,32.89-270,42.38-73.07,9.07-136.18,16.91-199.66,32.35-83.53,20.33-126.07,1.18-167.2-17.34-26.55-11.95-54-24.31-92.22-26.17-66.66-3.24-134.5-.22-194.36,2.45-78.15,3.48-147.35,6.56-197.82-3.96v1.18c50.6,10.49,119.77,7.42,197.87,3.94,59.83-2.67,127.65-5.69,194.25-2.45,38,1.85,65.35,14.16,91.8,26.07,28.73,12.93,58.13,26.17,101.6,26.17,19.04,0,40.79-2.54,66.35-8.76,63.41-15.43,126.49-23.26,199.53-32.33,76.44-9.49,163.08-20.25,270.09-42.39,11.3-2.35,21.52-4.21,30.79-5.64v-1.19Z" style="fill: #f2f3f5;"/>
      <path d="M1152.28,71.78c-6.97,1.17-14.42,2.56-22.38,4.19-112.47,22.83-199.64,27.75-276.56,32.1-70.51,3.98-131.41,7.42-193.58,23.82-87.15,22.98-128.61,4.17-168.71-14.02-26.1-11.84-53.08-24.08-92.08-23.77-52.44.42-105.2,4.25-156.22,7.95-90.43,6.56-176.56,12.81-242.75-2.01v1.33c66.34,14.78,152.44,8.53,242.84,1.97,51-3.7,103.74-7.53,156.14-7.94.5,0,1,0,1.5,0,37.88,0,63.22,11.5,90.03,23.66,26.99,12.24,54.59,24.77,96.2,24.77,20.52,0,44.45-3.05,73.38-10.67,62.04-16.36,122.88-19.8,193.32-23.77,76.96-4.35,164.18-9.27,276.75-32.12,7.87-1.61,15.23-2.98,22.12-4.15v-1.31Z" style="fill: #f2f3f5;"/>
      <path d="M1152.28,84.03c-4.4.79-8.98,1.66-13.74,2.61-117.92,23.5-205.45,22.39-282.69,21.43-68.12-.86-126.94-1.6-187.94,15.67-90.77,25.7-131.26,7.13-170.42-10.83-26.75-12.27-52.01-23.85-91.74-21.23-39.38,2.61-79.82,6.97-118.93,11.18-104.56,11.26-204.06,21.98-286.82,2.26v1.5c32.6,7.73,69.96,11.21,114.72,10.8,54.78-.48,114.5-6.91,172.26-13.13,39.1-4.21,79.53-8.57,118.88-11.17,39.36-2.61,64.47,8.91,91.05,21.1,25.47,11.68,51.49,23.62,91.37,23.62,21.81,0,47.77-3.57,80.04-12.71,60.79-17.21,119.53-16.47,187.53-15.62,77.3.97,164.92,2.07,282.99-21.45,4.66-.93,9.14-1.79,13.45-2.56v-1.46Z" style="fill: #f2f3f5;"/>
      <path d="M1152.28,96.34c-1.68.32-3.37.64-5.09.98-123.37,24.16-211.12,16.85-288.53,10.41-65.82-5.48-122.67-10.21-182.58,7.87-94.38,28.48-134,10.05-172.31-7.77-26.15-12.17-50.85-23.66-91.24-18.56-27.62,3.49-56.28,7.79-83.99,11.95C216.87,117.98,101.84,135.22,0,110.12v1.63c36.98,9.08,75.67,12.6,115.29,12.6,69.69,0,142.27-10.89,213.48-21.57,27.7-4.16,56.35-8.45,83.95-11.94,39.93-5.05,64.43,6.35,90.37,18.42,18.94,8.81,38.52,17.92,65.31,21.27,6.99.87,14.25,1.31,21.81,1.31,25.19,0,53.66-4.87,86.31-14.73,59.62-17.99,116.33-13.27,181.99-7.81,77.52,6.45,165.39,13.76,288.97-10.44,1.62-.32,3.21-.62,4.78-.92v-1.61Z" style="fill: #f2f3f5;"/>
      <path d="M1152.28,108.68c-126.96,23.87-217.62,9.77-290.59-1.59-63.62-9.9-118.56-18.45-177.45.38-97.99,31.34-138.57,12.12-174.37-4.83-25.51-12.08-49.6-23.49-90.57-15.77-17.31,3.26-34.49,6.69-52.67,10.32C251.24,120.21,122.13,145.96,0,115.12v1.8c37.76,9.53,78.36,14.24,122.59,14.24,12.92,0,26.15-.4,39.7-1.2,69.46-4.11,138.19-17.82,204.66-31.08,18.18-3.63,35.36-7.05,52.66-10.31,40.42-7.62,64.27,3.67,89.52,15.63,22.06,10.45,45.92,21.75,83.67,21.75,24,0,53.62-4.57,91.96-16.83,58.5-18.71,113.26-10.19,176.66-.32,73.04,11.36,163.77,25.48,290.85,1.64v-1.75Z" style="fill: #f2f3f5;"/>
      <path d="M1152.28,120.89c-127.7,21.96-215.98,1.67-287.34-14.74-61.49-14.14-114.6-26.35-172.54-6.81-101.6,34.27-141.44,15-176.59-2-24.83-12.01-48.28-23.35-89.76-12.86-8.52,2.16-17.13,4.36-25.81,6.59C278.48,122.26,142.14,157.18,0,120.17v1.94c43.6,11.31,86.64,15.88,128.88,15.88,95.71,0,187.28-23.46,271.82-45.12,8.69-2.23,17.29-4.43,25.81-6.59,40.82-10.33,62.91.36,88.49,12.73,21.09,10.2,43.84,21.21,80.34,21.21,24.89,0,56.17-5.12,97.66-19.12,57.44-19.37,110.31-7.22,171.53,6.86,49.1,11.29,106.17,24.41,178.56,24.41,32.98,0,69.17-2.74,109.2-9.61v-1.88Z" style="fill: #f2f3f5;"/>
      <path d="M1152.28,132.91c-128.18,19.73-214.14-6.6-283.9-27.98-29.84-9.14-58.04-17.78-85.24-21.42-30.17-4.03-56.41-1.59-82.59,7.69-105.2,37.28-144.39,17.85-178.97.72-25.17-12.47-46.9-23.25-88.78-9.84l-3.78,1.21C309.54,121.56,163.64,168.26,0,125.14v2.11c66.07,17.42,134.37,21.65,207.27,12.95,80.66-9.62,155.94-33.73,222.36-55l3.78-1.21c41.1-13.16,62.5-2.55,87.28,9.73,16.8,8.32,35.83,17.76,63.48,20.16,31.55,2.75,69.84-4.06,117.05-20.79,56.43-19.99,105.03-5.1,166.57,13.75,52.59,16.11,114.34,35.04,196.4,35.03,27.03,0,56.27-2.06,88.09-6.94v-2.03Z" style="fill: #f2f3f5;"/>
      <path d="M1152.28,144.73c-128.42,17.2-212.11-15.02-280.28-41.27-59.82-23.04-107.08-41.24-163.3-20.38-108.82,40.37-149.13,19.84-181.52,3.34-24.41-12.43-45.48-23.16-87.64-6.72C303.8,132.66,167.54,175.78,0,130.27v2.14c72.04,19.31,144.2,23.7,219.02,13.45,80.84-11.08,153.65-37.77,221.3-64.16,41.26-16.09,61.94-5.56,85.88,6.63,16.45,8.38,35.1,17.87,63.09,20.02,32.05,2.45,71.35-5.16,120.15-23.26,55.46-20.57,102.38-2.5,161.78,20.37,68.36,26.33,152.27,58.63,281.06,41.44v-2.17Z" style="fill: #f2f3f5;"/>
      <path d="M1152.28,156.34c-128.46,14.43-209.91-23.54-276.49-54.59-57.82-26.97-103.5-48.27-158.94-26.8-112.45,43.55-152.26,22.67-184.25,5.89-23.63-12.4-44.04-23.1-86.33-3.51C326.9,132.63,185.54,185.68,0,135.19v2.39c49.83,13.54,98.8,20.27,147.63,20.27,26.92,0,53.81-2.04,80.77-6.12,85.86-12.98,157.98-44.14,218.83-72.33,41.27-19.12,60.26-9.15,84.3,3.46,18.12,9.5,38.7,20.3,73.16,20.3,27.17,0,62.97-6.72,112.97-26.08,54.53-21.12,99.81,0,157.14,26.74,56.79,26.48,124.33,57.99,222.48,57.98,17.33,0,35.63-.99,54.98-3.16v-2.31Z" style="fill: #f2f3f5;"/>
      <path d="M1152.28,167.72c-128.29,11.44-207.54-32.15-272.54-67.92-55.89-30.75-100.03-55.05-154.74-32.98-116.11,46.82-155.5,25.5-187.15,8.36-23.78-12.87-42.57-23.05-84.84-.22C330.8,140.93,191.54,192.92,0,140.2v2.53c82.53,22.68,160.82,27.52,237.68,14.84,85.55-14.12,157.44-48.61,216.48-80.48,41.12-22.2,59.39-12.31,82.53.22,15.87,8.59,33.86,18.33,62.66,20.02,33.17,1.95,74.57-7.3,126.56-28.27,53.64-21.63,97.34,2.41,152.66,32.86,58.05,31.94,127.39,70.1,232.67,70.1,13.1,0,26.77-.6,41.04-1.87v-2.45Z" style="fill: #f2f3f5;"/>
    </g>
  </g>
</svg>