<?xml version="1.0" encoding="UTF-8"?>
<svg id="Layer_2" data-name="Layer 2" xmlns="http://www.w3.org/2000/svg" viewBox="0 0 1137.58 284.15">
  <g id="Layer_1-2" data-name="Layer 1">
    <g>
      <path d="M1137.58,100.32c-5.13,3.23-10.5,6.47-16.11,9.66-46.03,26.15-117.64,54.44-197.44,40.72-36.06-6.2-63.09-27.81-89.22-48.71-36.89-29.5-75.04-60-138.83-46.84-46.19,9.53-79.77,39.77-112.24,69.02-45.08,40.6-87.65,78.96-159.93,62.38-60.69-13.92-95.85-44.44-133.07-76.75-30.5-26.47-62.04-53.85-109.85-74.04C115.68,8.21,48.17,1.14,3.02.06c-1.02-.02-2.01-.04-3.02-.06v.98c1,.02,2,.04,3.02.06,45.06,1.08,112.43,8.13,177.49,35.61,47.67,20.13,79.14,47.45,109.59,73.87,37.32,32.39,72.57,62.99,133.5,76.96,11.94,2.74,23.07,3.99,33.54,3.99,53.33,0,89.42-32.51,127.26-66.6,32.37-29.16,65.85-59.32,111.78-68.79,63.35-13.07,101.31,17.29,138.02,46.65,26.23,20.98,53.36,42.67,89.67,48.92,35.37,6.08,72.1,4.52,109.16-4.64,29.65-7.33,59.57-19.51,88.95-36.2,5.43-3.08,10.62-6.21,15.6-9.34v-1.16Z" style="fill: #fff;"/>
      <path d="M1137.58,112.04c-2.99,1.8-6,3.56-9.03,5.28-25.56,14.42-52.74,26.11-81.11,33.68-14.17,3.8-28.61,6.6-43.18,8.31l-10.95,1.07-10.99.55-2.75.13h-2.75s-5.5-.01-5.5-.01h-5.5s-5.49-.31-5.49-.31l-5.49-.3-2.75-.15c-.91-.06-1.82-.19-2.74-.28l-10.94-1.18c-3.63-.49-7.24-1.16-10.86-1.73-1.8-.32-3.63-.54-5.41-.95l-5.35-1.21c-1.8-.36-3.54-.91-5.3-1.42-1.75-.53-3.53-.97-5.26-1.57-3.45-1.22-6.93-2.36-10.29-3.83-3.42-1.32-6.71-2.94-10.02-4.49-1.66-.78-3.25-1.68-4.88-2.52l-2.43-1.28c-.81-.43-1.59-.91-2.39-1.36-12.78-7.21-24.71-15.81-36.48-24.59l-17.64-13.23c-5.93-4.36-11.92-8.64-18.07-12.69-6.18-4-12.5-7.81-19.07-11.18-6.6-3.29-13.37-6.26-20.4-8.55-1.74-.62-3.54-1.04-5.31-1.58l-2.66-.76c-.89-.24-1.8-.41-2.7-.61l-5.41-1.17-5.48-.82c-.91-.12-1.82-.3-2.74-.38l-2.76-.23c-1.84-.14-3.68-.33-5.52-.42l-5.54-.08c-.92,0-1.85-.04-2.77-.03l-2.76.14-5.53.28c-1.84.16-3.67.41-5.5.61l-2.75.32c-.92.09-1.83.21-2.74.39l-5.45.97-2.72.49c-.9.18-1.8.42-2.69.63l-5.38,1.29c-1.78.48-3.54,1.04-5.31,1.56l-2.65.79c-.88.27-1.74.61-2.61.91l-5.21,1.85-5.12,2.1-2.56,1.06-2.51,1.17-5.01,2.35c-3.25,1.73-6.58,3.34-9.74,5.23-1.59.93-3.21,1.81-4.78,2.77l-4.69,2.92c-24.91,15.86-46.73,35.81-69.42,54.42-11.36,9.31-22.98,18.32-35.39,26.14-12.39,7.81-25.64,14.36-39.68,18.55-14.01,4.23-28.74,6-43.36,5.34-7.31-.34-14.59-1.25-21.79-2.62-7.2-1.35-14.32-3.16-21.39-5.09-14.09-4.07-27.86-9.26-41-15.79-6.58-3.23-13.02-6.75-19.29-10.56-6.28-3.78-12.44-7.79-18.43-12.02-24.07-16.84-46.05-36.47-69.64-54.07-5.89-4.42-11.89-8.67-17.98-12.81-6.11-4.11-12.35-8.02-18.69-11.77-12.71-7.45-25.99-13.9-39.62-19.48-27.26-11.14-55.69-19.32-84.6-24.83-28.92-5.52-58.31-8.42-87.72-9.11-3.31-.08-6.62-.13-9.93-.14v1.14c3.3.02,6.6.06,9.9.14,29.36.69,58.69,3.59,87.53,9.1,28.84,5.5,57.19,13.67,84.37,24.78,13.58,5.56,26.81,11.99,39.47,19.41,6.31,3.74,12.54,7.63,18.62,11.73,6.07,4.12,12.06,8.37,17.94,12.77,23.54,17.56,45.52,37.21,69.67,54.1,6.01,4.24,12.19,8.26,18.5,12.06,6.29,3.83,12.77,7.36,19.38,10.61,13.2,6.57,27.04,11.78,41.2,15.87,7.11,1.94,14.24,3.76,21.5,5.12,7.24,1.37,14.58,2.3,21.96,2.64,14.75.67,29.62-1.12,43.76-5.38,14.16-4.23,27.52-10.83,39.98-18.68,12.48-7.86,24.14-16.9,35.52-26.22,22.72-18.65,44.51-38.56,69.29-54.35l4.67-2.9c1.56-.96,3.17-1.84,4.75-2.76,3.15-1.88,6.45-3.48,9.68-5.2l4.97-2.34,2.49-1.16,2.54-1.05,5.08-2.09,5.17-1.84c.87-.3,1.72-.63,2.59-.9l2.63-.78c1.76-.51,3.5-1.06,5.27-1.55l5.34-1.28c.89-.21,1.78-.44,2.67-.62l2.7-.48,5.41-.97c.9-.18,1.81-.3,2.72-.39l2.73-.32c1.82-.2,3.63-.45,5.46-.6l5.48-.28,2.74-.14c.91-.01,1.83.02,2.74.03l5.49.08c1.83.09,3.65.28,5.47.42l2.73.22c.91.08,1.81.26,2.72.38l5.43.81,5.36,1.16c.89.2,1.79.36,2.67.61l2.64.75c1.75.53,3.54.94,5.26,1.56,6.96,2.26,13.68,5.21,20.23,8.48,6.52,3.34,12.8,7.13,18.96,11.11,6.12,4.04,12.1,8.3,18.01,12.65l17.64,13.23c11.78,8.8,23.76,17.42,36.61,24.67.8.45,1.59.93,2.4,1.37l2.45,1.28c1.64.84,3.25,1.74,4.92,2.53,3.34,1.56,6.65,3.18,10.1,4.52,3.38,1.48,6.89,2.62,10.37,3.86,1.74.61,3.54,1.05,5.3,1.59,1.77.51,3.53,1.06,5.35,1.43l5.4,1.22c1.8.41,3.63.63,5.44.95,3.64.57,7.26,1.24,10.91,1.74l10.99,1.19c.92.09,1.83.22,2.75.28l2.76.15,5.52.3,5.52.3h5.52s5.52.02,5.52.02h2.76s2.76-.13,2.76-.13l11.03-.55,11-1.08c14.63-1.72,29.12-4.53,43.35-8.35,28.47-7.61,55.74-19.34,81.37-33.8,2.85-1.61,5.67-3.27,8.47-4.95v-1.32Z" style="fill: #fff;"/>
      <path d="M1137.58,124.03c-4.22,2.43-8.49,4.77-12.81,7.02-25.65,13.37-52.91,23.76-81.14,30.14-14.12,3.14-28.46,5.26-42.88,6.32l-5.41.35-2.71.18c-.9.06-1.81.04-2.71.07l-10.84.19c-7.22-.22-14.46-.3-21.66-1.05l-5.4-.45c-1.8-.12-3.59-.45-5.38-.67-3.58-.5-7.17-.93-10.74-1.48-7.1-1.36-14.25-2.54-21.22-4.41-6.95-1.93-13.84-4.13-20.5-6.94-3.37-1.3-6.62-2.87-9.91-4.37-1.64-.75-3.23-1.62-4.85-2.42-1.61-.82-3.23-1.62-4.79-2.52l-4.74-2.62-4.66-2.76c-1.56-.91-3.1-1.86-4.62-2.84-1.53-.97-3.07-1.91-4.58-2.9-6.06-3.95-12.02-8.06-17.95-12.22-11.84-8.34-23.58-16.89-35.94-24.54-6.21-3.78-12.53-7.38-19.1-10.52-6.59-3.08-13.34-5.85-20.33-7.95-13.96-4.16-28.65-5.98-43.2-5.06-1.82.12-3.64.21-5.45.34l-5.42.66c-3.63.35-7.19,1.14-10.77,1.76-1.8.29-3.56.74-5.33,1.17-1.77.44-3.55.82-5.3,1.31-3.48,1.06-7.01,1.98-10.42,3.26-6.9,2.31-13.57,5.26-20.12,8.41l-4.87,2.46c-1.63.81-3.19,1.74-4.79,2.6-3.21,1.71-6.29,3.64-9.42,5.48-24.77,15.29-46.92,34.19-69.94,51.73-11.51,8.77-23.29,17.23-35.78,24.51-12.47,7.28-25.69,13.35-39.59,17.23-13.88,3.92-28.38,5.58-42.79,5.02-14.43-.55-28.67-3.47-42.64-7.15-13.95-3.78-27.63-8.61-40.76-14.66-6.58-3-13.04-6.25-19.35-9.79-6.32-3.51-12.53-7.23-18.6-11.16-24.37-15.65-46.83-34.06-70.64-50.66-11.89-8.31-24.14-16.15-36.85-23.18-12.74-7-26.02-12.96-39.54-18.23-27.08-10.5-55.23-18.13-83.8-23.2-28.58-5.07-57.59-7.64-86.61-7.99-3.57-.03-7.14-.04-10.71,0v1.26c3.56-.03,7.13-.02,10.69,0,28.95.35,57.89,2.93,86.4,7.99,28.5,5.07,56.56,12.68,83.55,23.16,13.48,5.26,26.71,11.19,39.38,18.17,12.66,7,24.86,14.82,36.72,23.12,23.75,16.56,46.22,34.99,70.67,50.71,6.09,3.95,12.33,7.69,18.67,11.21,6.34,3.55,12.83,6.82,19.44,9.84,13.2,6.09,26.95,10.94,40.97,14.75,14.03,3.7,28.37,6.65,42.95,7.21,14.55.57,29.21-1.1,43.23-5.06,14.04-3.92,27.38-10.04,39.93-17.36,12.57-7.33,24.39-15.81,35.93-24.6,23.05-17.58,45.17-36.46,69.81-51.67,3.11-1.84,6.18-3.75,9.37-5.45,1.59-.86,3.14-1.78,4.76-2.59l4.83-2.44c6.51-3.12,13.12-6.05,19.97-8.35,3.38-1.27,6.87-2.19,10.32-3.24,1.74-.49,3.5-.86,5.25-1.3,1.75-.42,3.5-.87,5.28-1.16,3.55-.61,7.08-1.41,10.68-1.75l5.37-.66c1.8-.14,3.6-.23,5.4-.34,14.4-.92,28.91.88,42.72,4.99,6.91,2.07,13.6,4.81,20.13,7.86,6.52,3.11,12.8,6.69,18.97,10.44,12.3,7.61,24.02,16.14,35.88,24.49,5.93,4.17,11.91,8.29,17.99,12.25,1.52.99,3.07,1.94,4.6,2.92,1.53.98,3.07,1.93,4.64,2.85l4.69,2.78,4.77,2.64c1.58.9,3.2,1.71,4.83,2.54,1.63.81,3.23,1.68,4.88,2.44,3.31,1.51,6.59,3.09,9.98,4.4,6.7,2.83,13.65,5.04,20.66,6.99,7.04,1.89,14.21,3.06,21.34,4.43,3.59.56,7.2.99,10.79,1.49,1.8.22,3.59.54,5.41.67l5.43.45c7.23.75,14.5.83,21.76,1.04l10.89-.2c.91-.03,1.82-.01,2.72-.07l2.72-.18,5.44-.36c14.49-1.07,28.89-3.21,43.07-6.36,28.35-6.41,55.71-16.85,81.44-30.27,4.12-2.14,8.19-4.38,12.23-6.69v-1.45Z" style="fill: #fff;"/>
      <path d="M1137.58,136.1c-5.48,2.98-11.04,5.82-16.68,8.51-25.76,12.28-53.08,21.31-81.16,26.39-14.03,2.6-28.27,4.01-42.52,4.45-14.25.41-28.55-.03-42.7-1.84-1.77-.21-3.55-.35-5.31-.62l-5.28-.84-5.28-.84-2.64-.42c-.88-.15-1.75-.36-2.62-.54l-10.47-2.21c-1.75-.33-3.47-.82-5.19-1.27l-5.17-1.36c-13.67-4.01-26.91-9.44-39.52-16.08-6.33-3.28-12.48-6.9-18.59-10.59-6.07-3.76-12.07-7.62-18.03-11.57-11.92-7.87-23.75-15.95-36.17-23.13-6.23-3.54-12.56-6.94-19.14-9.84-6.58-2.87-13.32-5.42-20.26-7.31-13.88-3.78-28.4-5.24-42.74-4.14-14.34,1-28.52,3.99-42.06,8.78-3.42,1.11-6.72,2.54-10.07,3.83l-4.93,2.17-2.46,1.09-2.42,1.18c-6.5,3.05-12.75,6.59-18.95,10.18-12.32,7.34-24.13,15.47-35.73,23.84-11.61,8.35-23.06,16.93-34.72,25.17-11.66,8.24-23.57,16.13-36.12,22.9-12.53,6.77-25.72,12.37-39.49,15.97-13.75,3.63-28.03,5.18-42.24,4.69-7.11-.22-14.2-1.02-21.21-2.18l-2.63-.44c-.88-.16-1.74-.36-2.62-.55l-5.23-1.12-5.23-1.12-2.61-.56-1.31-.28-1.29-.35-10.31-2.84c-1.71-.5-3.46-.89-5.14-1.48l-5.07-1.71-5.07-1.71c-1.68-.59-3.4-1.09-5.03-1.79l-9.93-3.98-2.48-.99-2.43-1.12-4.85-2.24-4.85-2.24c-1.63-.72-3.18-1.62-4.77-2.42-3.16-1.66-6.34-3.27-9.48-4.96l-9.29-5.32c-24.62-14.47-47.59-31.57-71.59-47.18-11.98-7.84-24.35-15.08-37.01-21.8-12.75-6.57-26.02-12.04-39.45-17-26.88-9.91-54.76-17.02-83.01-21.67-28.26-4.64-56.9-6.88-85.53-6.82-3.84,0-7.69.05-11.53.14v1.35c3.84-.09,7.69-.13,11.53-.13,28.56-.04,57.13,2.21,85.3,6.85,28.17,4.65,55.95,11.75,82.74,21.64,13.39,4.96,26.6,10.42,39.28,16.95,12.6,6.7,24.92,13.92,36.87,21.74,11.96,7.81,23.71,15.95,35.51,24.02,11.81,8.07,23.78,15.93,36.11,23.24l9.32,5.34c3.15,1.71,6.35,3.33,9.52,4.99,1.6.81,3.15,1.7,4.79,2.43l4.88,2.26,4.88,2.26,2.44,1.13,2.49,1,9.98,4.01c1.65.71,3.37,1.21,5.06,1.81l5.09,1.72,5.09,1.72c1.69.59,3.45.99,5.17,1.49l10.37,2.86,1.3.36,1.31.28,2.63.56,5.26,1.13,5.26,1.13c.88.18,1.75.39,2.63.55l2.66.44c7.08,1.18,14.24,1.99,21.42,2.22,14.36.51,28.81-1.06,42.71-4.72,13.92-3.63,27.24-9.28,39.86-16.09,12.64-6.81,24.61-14.74,36.3-22.99,11.69-8.27,23.13-16.85,34.72-25.2,11.58-8.37,23.34-16.48,35.59-23.78,6.16-3.58,12.37-7.09,18.82-10.13l2.4-1.17,2.44-1.08,4.89-2.16c3.32-1.28,6.59-2.7,9.97-3.8,13.41-4.75,27.46-7.72,41.64-8.72,14.18-1.09,28.51.35,42.22,4.07,6.86,1.87,13.53,4.39,20.05,7.23,6.52,2.86,12.8,6.23,19,9.75,12.35,7.13,24.16,15.18,36.1,23.06,5.96,3.95,11.99,7.82,18.08,11.58,6.13,3.7,12.31,7.34,18.68,10.63,12.69,6.68,26.03,12.14,39.81,16.17l5.21,1.36c1.74.45,3.47.94,5.23,1.27l10.52,2.22c.88.18,1.75.39,2.63.54l2.65.42,5.31.84,5.31.84c1.77.27,3.56.41,5.34.62,14.22,1.81,28.6,2.25,42.91,1.83,14.32-.45,28.63-1.88,42.72-4.49,28.21-5.12,55.65-14.2,81.5-26.54,5.44-2.59,10.8-5.33,16.09-8.2v-1.53Z" style="fill: #fff;"/>
      <path d="M1137.58,148.35c-6.75,3.46-13.63,6.69-20.59,9.69-25.87,11.12-53.22,18.8-81.12,22.53-27.89,3.85-56.32,3.43-84.15-.71l-2.61-.36-2.6-.48-5.19-.95c-3.46-.64-6.93-1.22-10.34-2.09l-10.28-2.4c-1.71-.42-3.39-.93-5.09-1.39-1.69-.49-3.4-.91-5.07-1.46-13.43-4.16-26.49-9.5-39.04-15.86-6.29-3.16-12.45-6.57-18.55-10.08-6.08-3.55-12.12-7.19-18.11-10.91-12-7.4-23.92-15.01-36.4-21.7-6.25-3.31-12.59-6.49-19.18-9.13-6.58-2.65-13.3-4.98-20.2-6.67-1.71-.46-3.47-.76-5.2-1.15l-2.61-.55-2.63-.41c-1.76-.25-3.51-.58-5.27-.77l-5.3-.5c-7.08-.46-14.21-.55-21.28.14-3.55.2-7.05.76-10.57,1.24-1.76.2-3.5.59-5.24.91l-5.22,1-5.17,1.26-2.58.64-2.55.75c-1.7.51-3.41.98-5.1,1.51l-5.03,1.72c-1.69.54-3.33,1.2-4.99,1.84-1.65.65-3.32,1.24-4.94,1.95-3.25,1.4-6.52,2.77-9.71,4.32-3.22,1.47-6.35,3.12-9.51,4.72-1.57.81-3.11,1.68-4.67,2.52-1.56.84-3.11,1.69-4.64,2.58-6.17,3.47-12.17,7.22-18.15,10.98-5.94,3.82-11.85,7.7-17.69,11.66-11.71,7.88-23.3,15.93-35.11,23.63-11.8,7.7-23.83,15.04-36.42,21.3-12.58,6.26-25.73,11.41-39.37,14.74-13.63,3.35-27.7,4.81-41.72,4.39-7.01-.19-14.01-.89-20.95-1.97-.87-.14-1.74-.25-2.6-.4l-2.59-.51-5.18-1.01-5.18-1.01c-1.72-.35-3.46-.64-5.16-1.11-6.81-1.77-13.69-3.26-20.37-5.5l-5.04-1.56c-1.68-.53-3.37-1-5.01-1.65l-9.91-3.63-2.48-.91-2.43-1.02-4.86-2.05-4.86-2.05c-1.63-.66-3.19-1.48-4.79-2.21-3.18-1.52-6.37-2.99-9.53-4.54l-9.37-4.88c-12.4-6.67-24.52-13.88-36.48-21.34-11.97-7.46-23.88-15.04-35.97-22.34-12.08-7.32-24.49-14.11-37.16-20.4-12.77-6.12-26.01-11.16-39.34-15.8-26.69-9.34-54.31-15.93-82.24-20.17-27.95-4.25-56.24-6.01-84.5-5.67-4.13.07-8.27.19-12.4.35v1.42c4.14-.16,8.28-.27,12.42-.34,28.18-.33,56.4,1.46,84.25,5.72,27.85,4.25,55.37,10.84,81.95,20.17,13.3,4.65,26.48,9.67,39.16,15.77,12.6,6.27,24.96,13.04,37.01,20.36,12.06,7.3,23.96,14.87,35.93,22.35,11.97,7.48,24.12,14.72,36.56,21.42l9.4,4.91c3.17,1.56,6.38,3.04,9.57,4.57,1.61.74,3.17,1.56,4.81,2.23l4.89,2.07,4.89,2.06,2.44,1.03,2.49.92,9.96,3.66c1.65.65,3.35,1.13,5.04,1.66l5.07,1.57c6.71,2.26,13.64,3.76,20.48,5.55,1.71.47,3.45.77,5.19,1.12l5.21,1.02,5.21,1.02,2.6.51c.87.16,1.75.27,2.63.41,7,1.1,14.07,1.81,21.17,2.01,14.18.44,28.43-1.04,42.21-4.41,13.8-3.35,27.09-8.54,39.76-14.85,12.69-6.3,24.8-13.67,36.63-21.38,11.83-7.73,23.42-15.79,35.11-23.67,5.84-3.96,11.73-7.83,17.65-11.64,5.96-3.75,11.93-7.49,18.06-10.95,1.52-.89,3.06-1.73,4.61-2.57,1.55-.83,3.08-1.7,4.64-2.51,3.13-1.59,6.24-3.24,9.44-4.69,3.16-1.55,6.4-2.9,9.62-4.3,1.61-.7,3.27-1.29,4.9-1.94,1.64-.63,3.27-1.29,4.94-1.83l4.98-1.7c1.67-.53,3.36-1,5.05-1.5l2.52-.74,2.55-.63,5.11-1.25,5.17-1c1.73-.32,3.44-.71,5.18-.91,3.48-.47,6.94-1.03,10.44-1.23,6.98-.69,14.01-.6,21-.15l5.23.49c1.74.18,3.47.51,5.2.75l2.6.4,2.57.54c1.71.38,3.44.67,5.13,1.13,6.81,1.66,13.45,3.97,19.96,6.58,6.52,2.61,12.81,5.77,19.03,9.04,12.41,6.63,24.31,14.21,36.33,21.62,6,3.72,12.05,7.36,18.16,10.92,6.13,3.52,12.32,6.94,18.65,10.11,12.63,6.38,25.78,11.75,39.31,15.93,1.68.55,3.4.97,5.1,1.46,1.71.46,3.4.98,5.12,1.4l10.33,2.4c3.43.87,6.92,1.45,10.4,2.09l5.22.95,2.61.48,2.63.36c27.98,4.14,56.55,4.54,84.58.65,28.04-3.77,55.52-11.51,81.49-22.7,6.77-2.93,13.46-6.06,20.03-9.42v-1.58Z" style="fill: #fff;"/>
      <path d="M1137.58,160.73c-8.03,3.87-16.23,7.39-24.56,10.56-25.98,9.88-53.32,16.18-81,18.56-13.84,1.2-27.75,1.52-41.63.88-13.87-.75-27.69-2.35-41.37-4.77-3.41-.64-6.8-1.4-10.21-2.09l-5.1-1.07-5.05-1.29c-3.36-.87-6.74-1.69-10.09-2.59-3.32-1.01-6.67-1.92-9.96-3.02-13.21-4.29-26.09-9.55-38.59-15.63-12.5-6.08-24.64-12.87-36.69-19.85-12.07-6.94-24.08-14.06-36.62-20.25-12.5-6.23-25.64-11.4-39.36-14.43-6.86-1.44-13.83-2.48-20.84-2.84-1.75-.16-3.51-.1-5.26-.16-1.75-.03-3.51-.09-5.26.01l-5.26.2c-1.75.11-3.49.31-5.24.46-3.5.24-6.95.88-10.43,1.35-1.74.25-3.44.65-5.16.97-1.71.36-3.45.64-5.15,1.06-3.4.84-6.82,1.63-10.16,2.67-3.38.93-6.68,2.1-10,3.2-13.19,4.71-25.89,10.67-38.13,17.39-12.27,6.68-24.15,14.02-35.95,21.42-11.81,7.41-23.53,14.92-35.46,22.08-11.92,7.15-24.08,13.93-36.71,19.68-12.62,5.76-25.73,10.46-39.24,13.52-13.5,3.08-27.37,4.47-41.22,4.15l-10.37-.53-10.32-1.22c-1.72-.16-3.43-.51-5.14-.81l-5.13-.91-5.13-.91-2.56-.45c-.85-.16-1.69-.38-2.54-.56-6.76-1.58-13.58-2.95-20.23-4.97l-5.01-1.41c-1.67-.47-3.35-.92-4.99-1.5l-9.89-3.28-2.47-.83-2.43-.93-4.87-1.86-4.87-1.86c-1.63-.6-3.2-1.34-4.81-2.01l-9.57-4.11-9.43-4.44c-12.51-6.06-24.78-12.63-36.89-19.49-12.12-6.85-24.17-13.85-36.36-20.63-12.18-6.8-24.61-13.15-37.3-19-12.78-5.68-25.97-10.33-39.23-14.63-26.52-8.74-53.87-14.91-81.52-18.69-27.66-3.76-55.62-5.16-83.51-4.42-1.74.05-3.49.06-5.23.13l-5.23.28c-.95.06-1.91.1-2.86.15v1.53c.98-.05,1.96-.09,2.94-.15l5.21-.27c1.74-.07,3.48-.08,5.21-.12,27.81-.69,55.68.77,83.23,4.59,27.55,3.8,54.79,9.96,81.19,18.69,13.23,4.3,26.36,8.94,39.04,14.59,12.6,5.83,25,12.17,37.14,18.96,12.16,6.77,24.2,13.78,36.33,20.65,12.13,6.87,24.43,13.48,36.99,19.58l9.47,4.47,9.62,4.14c1.61.67,3.19,1.42,4.83,2.02l4.89,1.87,4.89,1.87,2.45.94,2.48.84,9.94,3.31c1.65.58,3.33,1.04,5.02,1.51l5.04,1.42c6.69,2.04,13.54,3.42,20.35,5.02.85.19,1.7.41,2.56.57l2.58.46,5.16.92,5.16.92c1.72.3,3.43.65,5.18.82l10.43,1.24,10.5.55c14.01.34,28.06-1.06,41.73-4.16,13.67-3.08,26.93-7.83,39.65-13.63,12.74-5.79,24.96-12.6,36.93-19.77,11.96-7.19,23.69-14.71,35.48-22.13,11.79-7.4,23.62-14.74,35.83-21.38,12.17-6.69,24.77-12.62,37.82-17.29,3.29-1.1,6.55-2.26,9.89-3.18,3.31-1.03,6.68-1.81,10.04-2.65,1.68-.42,3.39-.69,5.09-1.05,1.7-.32,3.39-.72,5.1-.96,3.43-.46,6.84-1.1,10.29-1.34,1.72-.15,3.44-.34,5.17-.46l5.18-.2c1.73-.11,3.46-.05,5.18-.02,1.73.06,3.46,0,5.18.15,6.91.34,13.76,1.37,20.53,2.78,13.52,2.97,26.5,8.07,38.93,14.24,12.46,6.13,24.44,13.23,36.53,20.16,12.06,6.97,24.26,13.79,36.83,19.88,12.56,6.1,25.54,11.39,38.84,15.69,3.31,1.11,6.69,2.02,10.03,3.04,3.37.9,6.77,1.73,10.15,2.6l5.08,1.29,5.13,1.07c3.42.69,6.83,1.45,10.27,2.09,13.76,2.43,27.66,4.02,41.61,4.76,13.96.64,27.96.31,41.87-.92,27.83-2.46,55.31-8.86,81.39-18.84,8.14-3.12,16.15-6.57,24.01-10.35v-1.67Z" style="fill: #fff;"/>
      <path d="M1137.58,173.33c-9.32,4.18-18.84,7.91-28.55,11.06-26.1,8.51-53.35,13.44-80.77,14.61-13.71.56-27.45.22-41.13-.9l-10.24-1.05c-1.71-.14-3.4-.44-5.1-.67l-5.09-.74-5.09-.74-5.06-.95c-3.37-.65-6.75-1.22-10.11-1.94-6.68-1.58-13.4-2.96-19.99-4.92-3.3-.94-6.63-1.77-9.91-2.79l-4.91-1.54-2.45-.77-2.43-.84c-13-4.4-25.72-9.59-38.16-15.41-12.43-5.83-24.6-12.23-36.71-18.76-6.06-3.25-12.12-6.52-18.24-9.7-6.11-3.18-12.29-6.27-18.59-9.1-12.55-5.74-25.7-10.42-39.34-13.03-6.82-1.25-13.72-2.09-20.66-2.3-1.73-.1-3.47-.03-5.2-.05h-2.6c-.87,0-1.73.08-2.6.12l-5.19.27-5.17.53c-13.79,1.46-27.29,4.93-40.35,9.46-6.51,2.34-12.93,4.91-19.23,7.74-6.29,2.86-12.52,5.85-18.62,9.06-24.48,12.76-47.77,27.51-71.86,40.72-12.04,6.61-24.29,12.84-36.94,18.1-12.64,5.27-25.7,9.56-39.1,12.37-13.38,2.83-27.08,4.14-40.75,3.9-3.42-.15-6.84-.26-10.25-.45l-10.21-1.06c-.85-.07-1.7-.19-2.55-.34l-2.54-.4-5.08-.8-5.08-.8-2.54-.41-2.52-.52c-6.72-1.39-13.47-2.64-20.09-4.44l-4.99-1.25-2.5-.63c-.83-.22-1.65-.48-2.47-.72l-9.86-2.93c-.82-.25-1.65-.48-2.46-.74l-2.44-.83-4.87-1.66c-3.25-1.11-6.51-2.18-9.69-3.46l-9.61-3.69-9.49-4c-12.6-5.46-25.01-11.38-37.26-17.62l-36.72-18.87c-12.28-6.25-24.73-12.17-37.43-17.59-12.79-5.25-25.92-9.49-39.1-13.49-26.36-8.12-53.46-13.81-80.83-17.17-27.37-3.34-55.01-4.39-82.56-3.29-4.76.23-9.53.52-14.29.87v1.56c4.78-.34,9.57-.61,14.36-.83,27.46-1.01,55,.11,82.26,3.52,27.26,3.39,54.25,9.08,80.49,17.19,13.15,4.01,26.24,8.25,38.91,13.47,12.61,5.4,25.03,11.31,37.27,17.57l36.7,18.91c12.27,6.27,24.71,12.22,37.36,17.71l9.53,4.02,9.66,3.72c3.2,1.29,6.48,2.37,9.74,3.49l4.9,1.68,2.45.84c.82.27,1.65.5,2.48.75l9.92,2.96c.83.24,1.65.51,2.48.73l2.51.63,5.02,1.27c6.66,1.82,13.45,3.08,20.21,4.49l2.54.52,2.55.41,5.11.81,5.11.81,2.56.41c.85.15,1.7.27,2.57.34l10.32,1.08c3.45.2,6.91.31,10.37.47,13.84.26,27.72-1.06,41.26-3.91,13.55-2.83,26.76-7.15,39.52-12.45,12.77-5.3,25.1-11.55,37.19-18.18,24.16-13.29,47.43-28.05,71.77-40.77,6.07-3.2,12.25-6.18,18.49-9.02,6.25-2.81,12.61-5.37,19.05-7.69,12.92-4.49,26.26-7.93,39.86-9.39l5.1-.53,5.11-.27c.85-.04,1.71-.11,2.56-.12h2.56c1.71.02,3.42-.06,5.12.04,6.83.2,13.62,1.03,20.33,2.24,13.42,2.56,26.41,7.15,38.87,12.84,6.25,2.81,12.4,5.87,18.49,9.04,6.1,3.15,12.16,6.41,18.23,9.66,12.12,6.51,24.34,12.92,36.83,18.77,12.5,5.83,25.31,11.04,38.38,15.45l2.45.84,2.47.77,4.94,1.55c3.29,1.03,6.64,1.86,9.96,2.8,6.62,1.95,13.39,3.34,20.1,4.92,3.37.72,6.78,1.29,10.17,1.94l5.09.95,5.12.74,5.12.74c1.71.23,3.41.53,5.13.67l10.3,1.04c13.76,1.12,27.58,1.46,41.37.86,27.58-1.26,54.98-6.3,81.19-14.93,9.54-3.13,18.9-6.81,28.05-10.93v-1.64Z" style="fill: #fff;"/>
      <path d="M1137.58,186.13c-4.34,1.79-8.74,3.45-13.15,5.07-6.41,2.21-12.87,4.31-19.42,6.07-26.17,7.2-53.32,10.61-80.44,10.61-27.13-.07-54.22-3.54-80.59-9.91l-9.86-2.51c-1.65-.39-3.28-.88-4.9-1.37l-4.88-1.45c-6.52-1.88-12.98-3.97-19.37-6.24-12.8-4.5-25.39-9.62-37.77-15.2-12.37-5.6-24.55-11.63-36.72-17.71-12.18-6.05-24.38-12.15-37.02-17.35-6.31-2.62-12.74-4.97-19.3-6.93-6.56-1.95-13.22-3.63-20.01-4.66-6.77-1.05-13.62-1.7-20.48-1.76-1.71-.06-3.43.04-5.14.06l-2.57.05c-.86.04-1.71.11-2.57.16l-5.13.36-5.1.59c-1.71.17-3.39.45-5.08.73-1.69.28-3.38.53-5.07.85l-5.03,1.05-2.51.52-2.49.63c-6.66,1.58-13.19,3.65-19.65,5.87-6.46,2.23-12.79,4.83-19.07,7.5-6.25,2.75-12.44,5.62-18.55,8.65-24.44,12.1-47.98,25.8-72.27,37.94-12.14,6.08-24.47,11.75-37.14,16.54-12.66,4.79-25.67,8.68-38.95,11.25-13.27,2.58-26.8,3.83-40.32,3.68-3.38-.13-6.76-.17-10.13-.36l-10.1-.89c-3.36-.39-6.72-.91-10.08-1.36-3.36-.49-6.73-.85-10.06-1.52l-10.01-1.8-2.5-.45-2.48-.55-4.97-1.1-4.97-1.1-2.48-.55-2.46-.64-9.84-2.59c-1.65-.41-3.27-.89-4.89-1.39l-4.87-1.47c-3.25-.98-6.5-1.93-9.7-3.06l-9.64-3.27-9.54-3.55c-25.41-9.6-49.91-21.43-74.63-32.83-12.37-5.7-24.84-11.17-37.55-16.16-12.79-4.83-25.87-8.68-38.97-12.39-26.22-7.5-53.08-12.72-80.18-15.67l-10.17-1.03-2.54-.25-2.55-.16-5.1-.33-10.2-.64-10.22-.3c-6.81-.31-13.63-.11-20.44-.12-1.7-.02-3.41.05-5.11.12l-5.11.19c-3.4.15-6.81.18-10.21.47-5.11.32-10.22.71-15.32,1.17v1.56c5.13-.45,10.27-.82,15.41-1.12,3.39-.27,6.78-.29,10.18-.42l5.09-.17c1.7-.06,3.39-.12,5.09-.1,6.79.04,13.58-.13,20.37.2l10.18.34,10.16.68,5.08.35,2.54.17,2.53.26,10.13,1.07c26.99,2.99,53.73,8.21,79.82,15.72,13.07,3.72,26.11,7.58,38.78,12.38,12.61,4.98,25.06,10.46,37.39,16.16,24.67,11.41,49.22,23.3,74.72,32.98l9.58,3.58,9.68,3.3c3.21,1.14,6.49,2.1,9.75,3.09l4.9,1.49c1.63.51,3.26.99,4.92,1.41l9.89,2.62,2.47.65,2.5.56,4.99,1.12,4.99,1.12,2.5.55,2.52.46,10.07,1.83c3.35.67,6.74,1.04,10.12,1.54,3.38.46,6.75.97,10.14,1.38l10.22.92c3.41.2,6.84.25,10.26.38,13.69.18,27.39-1.07,40.82-3.67,13.44-2.59,26.6-6.5,39.38-11.32,12.79-4.81,25.21-10.51,37.4-16.6,24.37-12.23,47.89-25.96,72.21-38.04,6.08-3.02,12.23-5.89,18.43-8.62,6.23-2.66,12.5-5.24,18.89-7.46,6.39-2.21,12.85-4.27,19.42-5.83l2.46-.62,2.48-.52,4.96-1.04c1.66-.31,3.33-.56,5-.84,1.67-.28,3.33-.56,5.01-.73l5.03-.59,5.05-.37c.84-.05,1.68-.13,2.53-.17l2.53-.05c1.69-.02,3.37-.12,5.06-.06,6.75.05,13.48.68,20.14,1.7,6.67,1,13.24,2.65,19.71,4.56,6.48,1.92,12.84,4.24,19.1,6.83,12.54,5.13,24.71,11.19,36.9,17.23,12.18,6.06,24.4,12.09,36.82,17.69,12.43,5.58,25.08,10.71,37.96,15.21,6.43,2.27,12.92,4.36,19.48,6.24l4.91,1.45c1.63.49,3.27.97,4.93,1.37l9.92,2.51c26.52,6.37,53.77,9.84,81.07,9.85,27.28-.11,54.58-3.64,80.87-10.98,6.58-1.79,13.06-3.93,19.5-6.18,4.24-1.57,8.46-3.19,12.64-4.92v-1.59Z" style="fill: #fff;"/>
      <path d="M1137.58,199.11c-11.9,4.53-24.16,8.07-36.59,10.84-26.21,5.82-53.21,7.78-80,6.56l-5.02-.26c-1.67-.09-3.35-.15-5.02-.32l-10.02-.88c-3.34-.36-6.66-.82-9.99-1.22-3.34-.36-6.64-.93-9.95-1.47l-4.97-.81-2.48-.41-2.47-.49-9.87-1.98c-3.28-.69-6.53-1.53-9.8-2.29l-4.9-1.17c-1.63-.39-3.24-.88-4.86-1.32l-9.7-2.7c-3.22-.96-6.4-2.01-9.6-3.02-3.2-1.02-6.41-2-9.57-3.14-3.17-1.1-6.35-2.19-9.49-3.36-12.62-4.59-25.08-9.64-37.4-15-12.32-5.37-24.5-11.06-36.73-16.7-12.23-5.63-24.52-11.21-37.2-15.9-6.33-2.37-12.79-4.43-19.33-6.16-6.55-1.73-13.2-3.12-19.94-3.96-6.73-.84-13.52-1.31-20.31-1.2-1.7-.02-3.39.11-5.09.16l-2.54.1-2.53.21c-1.69.15-3.38.27-5.07.46l-5.04.66c-1.69.19-3.35.52-5.02.8-1.67.31-3.35.54-5,.9-3.31.73-6.64,1.36-9.9,2.25-3.29.79-6.53,1.77-9.78,2.7-1.62.49-3.22,1.03-4.84,1.54-1.61.5-3.22,1.05-4.81,1.62-12.79,4.41-25.18,9.8-37.41,15.48-24.42,11.42-48.19,24.08-72.66,35.16-12.22,5.54-24.63,10.68-37.31,15-12.68,4.33-25.64,7.83-38.81,10.18-13.17,2.36-26.54,3.54-39.92,3.48-3.34-.1-6.69-.09-10.03-.27l-10.01-.73-9.99-1.17c-3.33-.4-6.67-.73-9.98-1.3l-9.94-1.55-2.48-.39-2.47-.48-4.94-.95-4.94-.95-2.47-.48-2.45-.56-9.81-2.25c-13.02-3.24-25.97-6.8-38.69-11.12-25.52-8.39-50.32-18.84-75.19-29.12-12.45-5.13-24.94-10.15-37.65-14.72-12.78-4.41-25.81-7.89-38.83-11.31-26.08-6.89-52.71-11.64-79.56-14.18-26.85-2.48-53.9-2.92-80.79-.81-5.48.38-10.96.89-16.42,1.5v1.53c5.5-.59,11.01-1.07,16.54-1.43,26.8-1.97,53.75-1.4,80.48,1.2,26.73,2.59,53.25,7.36,79.2,14.26,13,3.43,25.99,6.93,38.65,11.32,12.61,4.56,25.09,9.59,37.51,14.74,24.84,10.31,49.68,20.84,75.3,29.3,12.77,4.35,25.78,7.96,38.87,11.24l9.86,2.27,2.47.57,2.48.48,4.97.97,4.97.97,2.48.48,2.5.4,10,1.57c3.33.58,6.68.92,10.03,1.33l10.05,1.19,10.12.76c3.38.19,6.76.19,10.15.29,13.54.09,27.08-1.09,40.4-3.45,13.33-2.35,26.43-5.87,39.22-10.21,12.8-4.34,25.3-9.49,37.59-15.05,24.56-11.17,48.31-23.88,72.63-35.3,12.17-5.67,24.48-11.04,37.14-15.44,1.57-.57,3.16-1.11,4.76-1.61,1.59-.51,3.18-1.04,4.78-1.53,3.21-.93,6.41-1.9,9.67-2.69,3.23-.88,6.51-1.52,9.77-2.24,1.63-.36,3.29-.6,4.93-.9,1.65-.28,3.29-.61,4.95-.79l4.97-.65c1.66-.19,3.32-.3,4.98-.46l2.49-.21,2.5-.11c1.67-.05,3.33-.19,5-.17,6.67-.12,13.34.34,19.96,1.15,6.62.81,13.17,2.17,19.63,3.86,6.46,1.7,12.85,3.72,19.12,6.06,12.58,4.63,24.83,10.16,37.05,15.76,12.22,5.61,24.44,11.29,36.8,16.66,12.37,5.36,24.87,10.4,37.55,14.99,3.16,1.17,6.35,2.26,9.54,3.36,3.17,1.14,6.4,2.12,9.62,3.13,3.22,1,6.42,2.06,9.66,3.01l9.75,2.69c1.63.44,3.24.93,4.88,1.32l4.92,1.17c3.29.76,6.55,1.6,9.86,2.29l9.93,1.97,2.48.49,2.5.41,5,.8c3.33.54,6.66,1.1,10.01,1.46,3.35.4,6.69.85,10.05,1.21l10.09.87c3.36.3,6.74.37,10.11.56,26.96,1.1,54.1-1.01,80.43-6.99,12.31-2.8,24.45-6.36,36.24-10.88v-1.51Z" style="fill: #fff;"/>
      <path d="M1137.58,212.34c-.63.21-1.27.44-1.9.65-12.61,4.19-25.58,7.23-38.67,9.44-26.22,4.36-53,4.96-79.44,2.54-13.22-1.19-26.4-3.01-39.42-5.66l-4.89-.94-4.86-1.1-9.71-2.24-9.63-2.55c-1.6-.44-3.22-.83-4.81-1.3l-4.77-1.44c-25.46-7.6-50.27-17.36-74.79-27.67-12.26-5.17-24.45-10.54-36.71-15.78-6.13-2.61-12.3-5.16-18.51-7.62-6.22-2.43-12.5-4.74-18.86-6.83-6.36-2.08-12.83-3.89-19.37-5.38-6.54-1.5-13.19-2.6-19.88-3.23-6.69-.63-13.42-.91-20.14-.63-6.71.29-13.42.88-20.04,1.96-6.62,1.08-13.21,2.41-19.68,4.13-6.49,1.68-12.9,3.63-19.22,5.82-12.67,4.31-25.01,9.47-37.24,14.8-24.43,10.72-48.39,22.38-73,32.41-24.57,10.04-49.95,18.36-76.12,22.59-13.07,2.13-26.3,3.25-39.54,3.27-3.31-.07-6.62-.02-9.93-.18l-9.91-.58-9.91-.97c-3.31-.32-6.61-.62-9.9-1.09l-9.88-1.29c-1.65-.19-3.29-.47-4.92-.74l-4.92-.8c-6.57-.99-13.07-2.33-19.59-3.6-12.99-2.76-25.93-5.81-38.7-9.51-25.59-7.2-50.63-16.26-75.66-25.37-12.53-4.55-25.05-9.08-37.77-13.22-12.78-4-25.75-7.12-38.71-10.22-25.95-6.25-52.39-10.53-79-12.64-13.3-1.15-26.66-1.45-40-1.52l-10.01.21-5,.11-5,.27-9.99.54-9.97.85c-1.66.15-3.33.26-4.98.44l-4.97.58c-2.54.31-5.09.57-7.63.89v1.47c2.6-.32,5.2-.57,7.8-.87l4.96-.55c1.65-.17,3.31-.27,4.97-.41l9.94-.79,9.96-.47,4.98-.24,4.99-.08,9.97-.15c13.29.15,26.59.53,39.83,1.76,26.49,2.21,52.8,6.55,78.62,12.86,12.93,3.15,25.87,6.3,38.51,10.31,12.6,4.15,25.12,8.73,37.62,13.31,24.99,9.2,50.08,18.36,75.79,25.61,12.82,3.74,25.82,6.82,38.88,9.61,6.55,1.28,13.1,2.64,19.7,3.64l4.94.81c1.65.27,3.29.55,4.95.75l9.93,1.31c3.31.48,6.63.78,9.96,1.11l9.97.98,10.03.6c3.35.17,6.7.12,10.05.2,13.4,0,26.79-1.13,40.01-3.27,26.48-4.25,52.09-12.61,76.8-22.69,24.73-10.11,48.7-21.81,73.04-32.52,12.18-5.33,24.44-10.47,36.99-14.75,6.26-2.18,12.6-4.11,19.01-5.78,6.39-1.71,12.88-3.02,19.4-4.1,6.52-1.07,13.11-1.66,19.7-1.95,6.6-.28,13.2-.01,19.77.6,13.15,1.2,26.06,4.38,38.66,8.44,6.3,2.07,12.53,4.35,18.72,6.76,6.18,2.43,12.32,4.97,18.45,7.56,12.26,5.18,24.47,10.52,36.77,15.66,24.61,10.25,49.5,19.95,75.14,27.51l4.8,1.43c1.6.47,3.23.86,4.84,1.29l9.69,2.53,9.77,2.21,4.89,1.09,4.92.93c13.1,2.61,26.36,4.41,39.67,5.54,26.61,2.28,53.53,1.51,79.87-3.03,13.15-2.3,26.18-5.44,38.83-9.73.5-.17.99-.34,1.48-.51v-1.39Z" style="fill: #fff;"/>
      <path d="M1137.58,225.81c-1.91.57-3.82,1.13-5.74,1.65-12.72,3.38-25.69,5.81-38.78,7.19-13.08,1.41-26.26,1.93-39.42,1.67-13.16-.26-26.3-1.27-39.34-3.06-26.09-3.47-51.83-9.49-76.86-17.63-3.13-1.03-6.27-1.99-9.38-3.08l-9.3-3.33-4.65-1.67-4.62-1.75c-3.08-1.16-6.16-2.34-9.23-3.54-12.3-4.76-24.52-9.7-36.73-14.69-12.21-5-24.4-10.05-36.7-14.89-12.31-4.81-24.75-9.37-37.52-13.02-12.76-3.61-25.88-6.27-39.19-7.08-13.3-.92-26.68.03-39.78,2.28-13.11,2.27-25.94,5.82-38.49,10.05-12.56,4.22-24.87,9.08-37.1,14.08l-36.56,15.2c-12.19,5.04-24.4,9.97-36.78,14.44-24.71,9-50.11,16.26-76.1,20.08-12.98,1.92-26.09,2.98-39.21,3.1-3.28-.03-6.56.05-9.84-.08-3.28-.14-6.55-.25-9.83-.43l-9.84-.75-4.92-.37c-1.64-.12-3.27-.33-4.91-.49l-9.81-1.04c-3.27-.34-6.52-.85-9.79-1.26-6.53-.8-13.02-1.91-19.52-2.95-12.96-2.27-25.88-4.81-38.68-7.92l-4.81-1.13-4.79-1.21c-3.19-.82-6.39-1.61-9.57-2.46-6.36-1.73-12.71-3.45-19.03-5.31-12.66-3.65-25.26-7.54-37.84-11.52-12.59-3.96-25.15-7.98-37.86-11.7-12.76-3.59-25.69-6.38-38.58-9.18-25.84-5.62-52.08-9.44-78.48-11.14-26.39-1.77-52.92-1-79.21,1.71-6.29.73-12.56,1.54-18.82,2.47v1.38c6.31-.89,12.64-1.66,18.98-2.35,26.22-2.52,52.65-3.09,78.91-1.14,26.27,1.82,52.39,5.72,78.09,11.42,12.88,2.85,25.76,5.68,38.39,9.29,12.6,3.75,25.17,7.83,37.73,11.83,25.14,8.05,50.42,15.83,76.18,21.89,12.85,3.13,25.83,5.7,38.86,8.01,6.53,1.06,13.05,2.18,19.62,3,3.28.42,6.55.94,9.84,1.28l9.87,1.06c1.65.16,3.29.38,4.94.5l4.95.38,9.9.77c3.31.18,6.63.29,9.94.44,3.31.13,6.63.06,9.95.1,13.27-.1,26.53-1.16,39.65-3.08,26.27-3.82,51.9-11.12,76.76-20.14,12.44-4.52,24.7-9.49,36.89-14.55l36.53-15.24c12.19-5.01,24.44-9.86,36.89-14.06,12.44-4.22,25.12-7.74,38.02-9.99,12.9-2.22,26.02-3.17,39.07-2.29,13.06.77,25.96,3.37,38.58,6.92,12.62,3.58,24.99,8.11,37.27,12.86,12.28,4.77,24.48,9.78,36.72,14.73,12.24,4.95,24.5,9.85,36.84,14.57,3.08,1.19,6.17,2.36,9.26,3.51l4.64,1.74,4.68,1.66,9.35,3.31c3.12,1.09,6.29,2.03,9.44,3.06,6.27,2.1,12.66,3.83,19.02,5.66,1.58.47,3.19.88,4.79,1.27l4.81,1.21c3.21.8,6.4,1.66,9.65,2.32l9.69,2.12,9.75,1.82c3.25.65,6.52,1.11,9.79,1.61,3.27.49,6.53,1.04,9.83,1.38,13.12,1.7,26.34,2.62,39.57,2.79,13.23.17,26.47-.45,39.62-1.96,13.15-1.49,26.17-4.03,38.93-7.51,1.81-.5,3.62-1.04,5.41-1.59v-1.23Z" style="fill: #fff;"/>
      <path d="M1137.58,239.53c-3.17.82-6.36,1.56-9.56,2.23-6.39,1.35-12.84,2.33-19.31,3.19-6.48.74-12.98,1.38-19.5,1.68-26.08,1.35-52.25-.76-77.96-5.21-12.85-2.3-25.61-5.06-38.23-8.39-12.59-3.42-25.12-7.12-37.42-11.49-3.07-1.09-6.19-2.08-9.23-3.26l-9.16-3.46c-3.06-1.13-6.1-2.33-9.14-3.55l-9.12-3.62-36.45-14.56-18.28-7.18-9.19-3.48-4.6-1.73-4.63-1.65c-12.31-4.51-24.87-8.45-37.65-11.59l-4.81-1.12c-1.6-.37-3.2-.78-4.83-1.03l-9.74-1.71-9.84-1.11c-.82-.08-1.64-.22-2.46-.24l-2.47-.11-4.95-.21c-13.2-.35-26.43.77-39.38,3.21l-1.22.2-1.2.27-2.41.54-4.82,1.08-4.82,1.08-4.77,1.26c-6.34,1.74-12.64,3.62-18.87,5.69-12.47,4.11-24.76,8.68-36.99,13.33-12.24,4.65-24.43,9.37-36.68,13.93-12.25,4.58-24.52,9.01-36.95,12.96-24.83,7.96-50.24,14.22-76.06,17.62-12.91,1.71-25.91,2.71-38.92,2.93-3.25,0-6.51.11-9.76.02-3.25-.09-6.5-.14-9.76-.27l-9.77-.53-4.89-.26c-1.63-.1-3.25-.25-4.88-.38l-9.76-.78c-3.25-.26-6.49-.66-9.74-.98-6.5-.61-12.96-1.5-19.44-2.32-12.93-1.8-25.83-3.83-38.64-6.34-6.42-1.17-12.8-2.58-19.2-3.89-6.37-1.43-12.75-2.82-19.1-4.36-12.71-3-25.37-6.24-38.01-9.62-12.64-3.36-25.23-6.84-37.94-10.14-12.75-3.19-25.62-5.66-38.46-8.14-25.74-4.98-51.81-8.34-78-9.62l-2.45-.14-2.46-.06-4.92-.12c-3.28-.05-6.55-.22-9.83-.18-6.55.08-13.11.02-19.66.37-13.1.41-26.17,1.63-39.17,3.2l-9.74,1.31c-3.24.47-6.47,1.04-9.7,1.55l-.7.11v1.26l.9-.14c3.23-.49,6.45-1.03,9.69-1.47l9.72-1.22c12.98-1.45,26.01-2.55,39.06-2.85,6.52-.3,13.05-.18,19.58-.2,3.26,0,6.53.18,9.79.26l4.89.16,2.45.08,2.44.16c26.07,1.43,52.01,4.88,77.62,9.97,12.83,2.54,25.66,5.07,38.28,8.3,12.61,3.33,25.22,6.89,37.85,10.31,25.26,6.87,50.69,13.28,76.45,18.18,12.86,2.54,25.82,4.61,38.8,6.43,6.5.83,13,1.73,19.53,2.36,3.26.33,6.52.73,9.79,1l9.8.8c1.63.13,3.27.28,4.9.38l4.91.27,9.82.55c3.28.14,6.57.19,9.86.29,3.29.09,6.57-.01,9.86,0,13.15-.2,26.28-1.2,39.31-2.9,26.08-3.4,51.7-9.66,76.69-17.64,12.5-4,24.84-8.47,37.09-13.07,12.26-4.59,24.46-9.33,36.68-14,12.21-4.66,24.45-9.24,36.83-13.34,6.19-2.06,12.42-3.94,18.69-5.66l4.71-1.25,4.75-1.07,4.75-1.07,2.38-.53,1.19-.27,1.2-.2c12.76-2.43,25.74-3.54,38.68-3.22l4.85.2,2.43.1c.81.02,1.61.16,2.42.23l9.66,1.07,9.59,1.67c1.6.24,3.18.64,4.76,1l4.75,1.1c12.63,3.08,25.08,6.98,37.35,11.42l4.62,1.62,4.59,1.7,9.18,3.43,18.29,7.08,36.52,14.39,9.14,3.57c3.04,1.2,6.09,2.39,9.17,3.51l9.21,3.43c3.06,1.17,6.19,2.15,9.29,3.23,12.38,4.33,24.98,7.98,37.65,11.36,12.7,3.28,25.53,6.02,38.46,8.23,25.87,4.25,52.2,6.14,78.39,4.57,6.55-.35,13.07-1.05,19.58-1.85,6.49-.92,12.97-1.97,19.38-3.37,3.13-.69,6.24-1.44,9.34-2.26v-1.03Z" style="fill: #fff;"/>
      <path d="M1137.58,253.43c-4.43.93-8.9,1.7-13.39,2.33-12.82,1.85-25.8,2.53-38.74,2.47-25.92-.14-51.73-3.58-77.06-8.93-12.67-2.72-25.2-6-37.65-9.59l-9.28-2.87-4.64-1.44-4.6-1.55-9.2-3.11-9.13-3.33c-12.17-4.43-24.14-9.39-36.16-14.34-12.01-4.93-24.06-9.79-36.17-14.51-6.05-2.38-12.16-4.6-18.24-6.91l-9.2-3.25c-3.06-1.09-6.13-2.18-9.24-3.15l-9.3-2.99-9.41-2.68c-1.57-.43-3.13-.92-4.72-1.3l-4.76-1.13-4.77-1.13c-.8-.18-1.58-.39-2.39-.55l-2.41-.45c-12.79-2.69-25.92-3.98-39.01-3.89-13.1.11-26.18,1.6-38.98,4.26-1.62.26-3.19.7-4.78,1.06l-4.77,1.12-4.77,1.13-4.73,1.27c-6.28,1.74-12.52,3.61-18.73,5.59-12.4,3.97-24.66,8.27-36.92,12.55-12.25,4.29-24.5,8.57-36.8,12.68-12.3,4.12-24.63,8.06-37.1,11.5-24.92,6.95-50.33,12.22-76.02,15.22-12.84,1.5-25.75,2.44-38.67,2.77-3.23.04-6.46.16-9.69.13-3.23-.04-6.46-.02-9.7-.1l-9.71-.31-4.85-.15-4.85-.25c-25.87-1.29-51.68-3.86-77.31-7.68-6.42-.9-12.81-1.98-19.2-3.01-6.38-1.12-12.77-2.2-19.14-3.42-12.75-2.35-25.45-4.96-38.12-7.72-12.68-2.74-25.31-5.66-38-8.51-12.73-2.78-25.55-4.96-38.35-7.12-25.65-4.32-51.56-7.21-77.57-8.08l-9.76-.13-4.88-.06c-1.63,0-3.25.05-4.88.08l-9.75.19-9.74.49-4.87.26-4.86.4c-3.24.28-6.48.51-9.72.83-6.46.75-12.93,1.38-19.36,2.38-7.21,1-14.39,2.2-21.54,3.53v1.19c.83-.15,1.67-.31,2.5-.45l9.6-1.56,2.4-.39,2.41-.32,4.82-.64c6.41-.94,12.87-1.51,19.32-2.2,3.23-.29,6.46-.49,9.69-.73l4.85-.35,4.85-.21,9.71-.4,9.72-.1c1.62,0,3.24-.05,4.86-.03l4.86.1,9.71.22c25.89,1.03,51.68,4.04,77.21,8.49,12.78,2.23,25.56,4.48,38.18,7.31,12.62,2.91,25.28,5.91,37.96,8.73,50.68,11.44,102.24,19.77,154.25,22.36l4.87.26,4.88.16,9.75.33c3.25.08,6.52.08,9.78.12,3.26.04,6.52-.08,9.78-.11,13.03-.3,26.05-1.23,39-2.72,25.9-2.98,51.51-8.23,76.6-15.19,12.55-3.49,24.96-7.47,37.27-11.62,12.32-4.14,24.58-8.45,36.82-12.76,12.24-4.31,24.48-8.62,36.8-12.59,6.16-1.98,12.35-3.85,18.58-5.59l4.68-1.26,4.71-1.12,4.71-1.11c1.57-.35,3.13-.8,4.72-1.05,12.62-2.64,25.46-4.12,38.31-4.26,12.85-.11,25.72,1.13,38.35,3.76l2.38.43c.79.15,1.57.36,2.36.54l4.71,1.11,4.71,1.11c1.57.37,3.11.86,4.67,1.28l9.33,2.64,9.25,2.93c3.09.94,6.15,2.01,9.21,3.08l9.18,3.19c6.07,2.27,12.17,4.45,18.22,6.79,12.11,4.64,24.16,9.44,36.2,14.29,12.02,4.87,24.07,9.78,36.32,14.17l9.18,3.29,9.26,3.07,4.63,1.53,4.67,1.42,9.34,2.83c12.52,3.53,25.13,6.77,37.87,9.41,25.49,5.15,51.45,8.36,77.49,8.26,13.01-.07,26.03-.86,38.89-2.84,4.44-.68,8.86-1.5,13.24-2.47v-.87Z" style="fill: #fff;"/>
      <path d="M1137.58,267.77c-5.67.92-11.39,1.57-17.12,1.99-12.84.99-25.74.87-38.58.1-25.71-1.6-51.14-6.26-76.07-12.57-12.49-3.11-24.81-6.85-37.07-10.77-6.09-2.09-12.22-4.04-18.25-6.3l-9.07-3.3-9-3.5c-6.02-2.27-11.93-4.82-17.88-7.27l-17.83-7.52c-11.9-4.99-23.87-9.85-35.94-14.43-24.12-9.19-48.84-17.34-74.5-21.61-12.83-2.09-25.89-2.86-38.89-2.31-13,.57-25.93,2.43-38.58,5.3-1.6.3-3.16.72-4.74,1.1l-4.72,1.17-4.72,1.18-4.68,1.28c-6.23,1.74-12.43,3.59-18.6,5.49-12.34,3.82-24.6,7.83-36.87,11.75-12.27,3.93-24.57,7.77-36.91,11.43-12.35,3.68-24.72,7.12-37.23,10.06-25,5.96-50.4,10.27-75.97,12.86-12.79,1.3-25.62,2.17-38.46,2.6-12.84.46-25.71.34-38.57.06-51.48-1.14-102.77-6.99-153.58-15.46-12.71-2.12-25.37-4.44-38.05-6.83-12.71-2.34-25.48-4.28-38.25-6.1-25.57-3.62-51.35-6.1-77.2-6.44-6.46.02-12.92-.06-19.38.23-6.46.12-12.91.59-19.35.99-3.22.21-6.43.58-9.65.86l-4.82.45c-1.61.17-3.21.39-4.81.58l-9.61,1.2-9.57,1.46c-7.71,1.21-15.39,2.63-23.03,4.18v1.03c1.39-.27,2.78-.54,4.16-.81,3.16-.61,6.35-1.09,9.52-1.65,3.17-.54,6.35-1.09,9.54-1.51l9.56-1.35,9.59-1.09c1.6-.17,3.2-.38,4.8-.52l4.81-.4c3.21-.25,6.41-.57,9.62-.75,6.43-.33,12.85-.73,19.29-.78,6.43-.22,12.87-.07,19.3-.02,25.73.54,51.39,3.16,76.85,6.94,12.75,1.9,25.47,3.92,38.1,6.33,12.65,2.47,25.34,4.88,38.05,7.09,25.43,4.45,51,8.17,76.7,10.86,25.68,2.77,51.48,4.49,77.32,5.17l4.84.14,4.85.05,9.69.1c6.47,0,12.94-.07,19.4-.27,12.93-.41,25.85-1.25,38.72-2.53,25.75-2.56,51.32-6.83,76.51-12.79,12.59-2.99,25.06-6.49,37.42-10.2,12.37-3.69,24.69-7.57,36.97-11.53,12.28-3.95,24.53-7.99,36.81-11.82,6.15-1.91,12.3-3.76,18.49-5.5l4.64-1.28,4.67-1.17,4.67-1.16c1.56-.38,3.11-.8,4.68-1.1,12.49-2.87,25.19-4.71,37.95-5.3,12.75-.56,25.56.16,38.2,2.19,25.27,4.19,49.86,12.1,73.95,21.09,12.06,4.49,24.03,9.26,35.94,14.16l17.87,7.4c5.99,2.42,11.94,4.94,18,7.18l9.05,3.46,9.13,3.25c6.06,2.23,12.23,4.15,18.36,6.21,3.07.99,6.17,1.9,9.26,2.85l4.63,1.41c1.55.46,3.11.88,4.66,1.32l9.34,2.59,9.4,2.37c25.11,6.06,50.68,10.47,76.5,11.81,6.45.3,12.91.52,19.37.41,6.46-.04,12.92-.36,19.35-.92,5.71-.5,11.4-1.23,17.05-2.23v-.6Z" style="fill: #fff;"/>
      <path d="M1137.58,282.49c-.52.06-1.05.12-1.57.18-6.37.65-12.78,1-19.18,1.04-12.81.09-25.62-.74-38.33-2.26-12.72-1.53-25.35-3.72-37.87-6.39-12.53-2.68-24.92-5.93-37.22-9.5-12.31-3.53-24.45-7.63-36.53-11.88-6.01-2.21-12.04-4.35-17.99-6.73l-8.95-3.5-8.88-3.66c-11.84-4.87-23.5-10.18-35.29-15.27-11.8-5.06-23.68-9.93-35.72-14.41-12.04-4.49-24.23-8.61-36.63-12.07-12.4-3.44-25.03-6.22-37.86-7.82-12.82-1.63-25.83-1.95-38.73-.94-12.9,1.06-25.64,3.42-38.16,6.46-12.53,3.02-24.86,6.62-37.16,10.27-12.3,3.66-24.56,7.37-36.86,10.94-12.3,3.56-24.64,6.98-37.03,10.19-12.4,3.24-24.82,6.16-37.34,8.68-12.54,2.44-25.16,4.5-37.82,6.25-12.67,1.66-25.39,3.06-38.13,4.13-12.75,1.03-25.51,1.87-38.3,2.39-12.78.49-25.58.81-38.37.83-51.19.13-102.39-3.25-153.23-9.35-12.71-1.53-25.39-3.26-38.06-5.18-12.7-1.9-25.42-3.65-38.17-5.15-25.51-2.97-51.21-4.84-76.93-4.65-25.72.18-51.42,2.58-76.68,7.18-8.23,1.48-16.41,3.15-24.57,4.96v1.2c8.25-1.66,16.53-3.2,24.84-4.52,12.64-2.03,25.36-3.53,38.1-4.61,12.74-1.07,25.53-1.5,38.32-1.47,25.58.08,51.1,2.35,76.5,5.47,12.7,1.55,25.38,3.34,38.04,5.29,12.68,1.95,25.41,3.7,38.16,5.26,50.98,6.2,102.31,9.69,153.7,9.64,51.35-.09,102.89-3.66,153.4-13.69,12.61-2.56,25.15-5.53,37.56-8.81,12.42-3.25,24.79-6.72,37.11-10.32,12.32-3.6,24.59-7.35,36.86-11.05,12.27-3.68,24.55-7.3,36.95-10.33,12.39-3.04,24.93-5.39,37.59-6.47,12.66-1.09,25.42-.89,38.05.61,25.31,2.97,49.96,10.42,73.99,19.1,12.03,4.36,23.92,9.12,35.73,14.07,11.8,4.96,23.51,10.22,35.43,15.01l8.93,3.6,8.99,3.43c5.98,2.33,12.05,4.43,18.09,6.6,12.14,4.17,24.34,8.19,36.71,11.63,12.35,3.48,24.8,6.64,37.38,9.23,12.57,2.58,25.25,4.68,38,6.11,12.75,1.44,25.6,2.12,38.43,1.9,6.41-.11,12.82-.52,19.2-1.24.52-.06,1.03-.13,1.55-.2v-.18Z" style="fill: #fff;"/>
    </g>
  </g>
</svg>