<svg width="48" height="48" viewBox="0 0 48 48" fill="none" xmlns="http://www.w3.org/2000/svg">
<path d="M21.75 5.25C19.2645 5.25 17.25 7.2645 17.25 9.75H11.25C8.7645 9.75 6.75 11.7645 6.75 14.25V33.75C6.75 36.2355 8.7645 38.25 11.25 38.25H36.75C39.2355 38.25 41.25 36.2355 41.25 33.75V14.25C41.25 11.7645 39.2355 9.75 36.75 9.75H30.75C30.75 7.2645 28.7355 5.25 26.25 5.25H21.75ZM21.75 8.25H26.25C27.078 8.25 27.75 8.92125 27.75 9.75H20.25C20.25 8.92125 20.922 8.25 21.75 8.25ZM11.25 12.75H36.75C37.5788 12.75 38.25 13.4213 38.25 14.25V20.4961C35.8952 20.899 30.2077 21.75 24 21.75C17.7943 21.75 12.1066 20.8995 9.75 20.4961V14.25C9.75 13.4213 10.4212 12.75 11.25 12.75ZM9.75 23.5386C11.8886 23.8918 15.7456 24.4307 20.25 24.6489V24.75C20.25 25.5788 20.9213 26.25 21.75 26.25H25.5C26.3288 26.25 27 25.5788 27 24.75V24.6885C31.8285 24.4992 35.9916 23.9114 38.25 23.5386V33.75C38.25 34.5788 37.5788 35.25 36.75 35.25H11.25C10.4212 35.25 9.75 34.5788 9.75 33.75V23.5386Z" fill="#203e71"/>
</svg>
