<svg width="18" height="18" viewBox="0 0 18 18" fill="none" xmlns="http://www.w3.org/2000/svg">
<g clip-path="url(#clip0_2033_740)">
<path d="M8.53015 11.8242L7.86295 13.3524C7.60675 13.9398 6.79375 13.9398 6.53695 13.3524L5.86975 11.8242C5.27575 10.464 4.20715 9.38161 2.87395 8.79001L1.03795 7.97521C0.454148 7.71601 0.454148 6.86641 1.03795 6.60721L2.81695 5.81761C4.18435 5.21041 5.27215 4.08781 5.85595 2.68201L6.53155 1.05361C6.78235 0.449414 7.61755 0.449414 7.86835 1.05361L8.54395 2.68201C9.12775 4.08841 10.2155 5.21101 11.5829 5.81761L13.3619 6.60721C13.9457 6.86641 13.9457 7.71601 13.3619 7.97521L11.5253 8.79061C10.1927 9.38221 9.12355 10.4646 8.53015 11.8242Z" fill="white"/>
<path d="M14.6885 16.6776L14.4851 17.1438C14.3363 17.4852 13.8635 17.4852 13.7147 17.1438L13.5113 16.6776C13.1489 15.8466 12.4955 15.1848 11.6807 14.8224L11.0543 14.544C10.7153 14.3934 10.7153 13.9008 11.0543 13.7502L11.6459 13.4874C12.4817 13.116 13.1465 12.4296 13.5029 11.5704L13.7117 11.0664C13.8575 10.7154 14.3429 10.7154 14.4881 11.0664L14.6969 11.5704C15.0533 12.4296 15.7181 13.116 16.5539 13.4874L17.1455 13.7502C17.4845 13.9008 17.4845 14.3934 17.1455 14.544L16.5191 14.8224C15.7043 15.1848 15.0509 15.8466 14.6885 16.6776Z" fill="white"/>
</g>
<defs>
<clipPath id="clip0_2033_740">
<rect width="18" height="18" fill="white"/>
</clipPath>
</defs>
</svg>
