<svg xmlns="http://www.w3.org/2000/svg" width="59" height="78" viewBox="0 0 59 78" fill="none"><g clip-path="url(#clip0_158_344)"><path d="M41.3888 19.3736C41.0765 19.3736 40.7561 19.2773 40.4758 19.0848C39.747 18.5794 39.5708 17.5766 40.0674 16.8546L47.083 6.6985C47.5875 5.96848 48.5806 5.78396 49.3094 6.28936C50.0382 6.79476 50.2144 7.79754 49.7178 8.51954L42.7022 18.6757C42.3899 19.1249 41.8933 19.3656 41.3808 19.3656L41.3888 19.3736Z" fill="#FF6D76"></path><path d="M17.7712 19.3736C17.2666 19.3736 16.7621 19.133 16.4498 18.6837L9.43415 8.5276C8.9296 7.79758 9.1138 6.80282 9.84259 6.29742C10.5714 5.79202 11.5645 5.97653 12.069 6.70655L19.0846 16.8627C19.5892 17.5927 19.405 18.5875 18.6762 19.0929C18.3959 19.2854 18.0835 19.3817 17.7632 19.3817L17.7712 19.3736Z" fill="#00A98F"></path><path d="M25.2514 15.1942C24.5306 15.1942 23.8819 14.7048 23.6977 13.9748L20.7025 1.98961C20.4862 1.13123 21.0068 0.256807 21.8717 0.0402075C22.7287 -0.176392 23.6016 0.345052 23.8179 1.21145L26.8131 13.1966C27.0293 14.055 26.5088 14.9294 25.6438 15.146C25.5157 15.1781 25.3796 15.1942 25.2514 15.1942Z" fill="#BE8FFF"></path><path d="M33.5643 15.194C33.4362 15.194 33.308 15.178 33.1719 15.1459C32.315 14.9293 31.7944 14.0629 32.0026 13.1965L34.9979 1.2113C35.2141 0.35292 36.0871 -0.168524 36.944 0.0400536C37.8009 0.256653 38.3215 1.12305 38.1133 1.98945L35.118 13.9746C34.9338 14.7047 34.2851 15.194 33.5643 15.194Z" fill="#FF9C47"></path><path d="M54.1548 55.0003C54.3149 54.7997 54.4591 54.5911 54.6032 54.3826C54.7474 54.182 54.8996 53.9895 55.0357 53.7809C55.1719 53.5723 55.3 53.3557 55.4362 53.1471C55.5723 52.9305 55.7084 52.722 55.8366 52.5054C55.9567 52.2888 56.0688 52.0722 56.189 51.8556C56.3091 51.6309 56.4372 51.4063 56.5494 51.1817C56.6535 50.9651 56.7496 50.7405 56.8537 50.5239C56.9658 50.2832 57.0779 50.0506 57.174 49.8099C57.2621 49.5933 57.3422 49.3687 57.4303 49.1441C57.5264 48.8954 57.6225 48.6547 57.7106 48.406C57.7907 48.1814 57.8468 47.9568 57.9188 47.7321C57.9989 47.4754 58.087 47.2267 58.1511 46.97C58.2152 46.7454 58.2632 46.5208 58.3113 46.2962C58.3753 46.0314 58.4474 45.7747 58.5035 45.51C58.5515 45.2934 58.5836 45.0688 58.6156 44.8522C58.6637 44.5794 58.7197 44.3067 58.7598 44.0419C58.7918 43.8253 58.8078 43.6007 58.8318 43.3841C58.8639 43.1113 58.9039 42.8386 58.9199 42.5578C58.9359 42.3412 58.9359 42.1246 58.952 41.9C58.968 41.6272 58.984 41.3545 58.984 41.0817C58.984 40.8571 58.976 40.6405 58.968 40.4159C58.968 40.1431 58.968 39.8784 58.952 39.6056C58.9359 39.373 58.9119 39.1484 58.8879 38.9157C58.8639 38.659 58.8479 38.4023 58.8158 38.1536C58.7838 37.913 58.7357 37.6723 58.6957 37.4316C58.6556 37.199 58.6236 36.9583 58.5756 36.7257C58.5195 36.4529 58.4474 36.1802 58.3753 35.9074C58.3273 35.7149 58.2872 35.5223 58.2312 35.3298C58.103 34.8725 57.9509 34.4153 57.7827 33.974C55.7805 28.6232 51.584 25.3181 45.9699 24.6763C38.722 23.842 31.2259 28.7757 27.8622 32.6103L27.2376 31.808C23.3293 26.746 18.7804 25.5427 15.657 25.4224C10.4113 25.2218 6.11064 27.8371 4.0444 30.1394C1.12123 33.4045 -0.368385 38.274 0.0801011 43.1515C0.448501 47.2107 2.2905 53.1231 8.96174 58.2573C18.8364 65.8543 27.2536 75.5051 27.3737 75.6414C28.3348 76.6683 30.2088 78.008 32.219 78.008C33.2201 78.008 34.2532 77.6791 35.2302 76.8046C36.6157 75.5692 37.0963 74.1493 37.0882 72.8016C37.2965 72.8256 37.5047 72.8417 37.7209 72.8417C38.7541 72.8417 39.8833 72.5208 40.9324 71.6143C42.5662 70.2024 43.0707 68.5658 42.9826 67.0737C43.9997 67.0256 45.0489 66.6405 46.0019 65.6939C47.3314 64.3622 47.9801 62.9102 47.94 61.3699C47.94 61.3699 47.94 61.3619 47.94 61.3539C48.2283 61.402 48.5086 61.4261 48.7809 61.4261C49.6779 61.4261 50.4868 61.1774 51.1996 60.672C52.8173 59.5408 53.2258 58.161 53.2898 57.1984C53.3139 56.8293 53.2898 56.4683 53.2258 56.1154C53.3859 55.9389 53.5381 55.7463 53.6903 55.5618C53.8504 55.3773 54.0106 55.1928 54.1628 55.0003H54.1548ZM45.6255 27.8451C49.9822 28.3424 53.2418 30.9176 54.8035 35.0811C54.9316 35.4261 55.0517 35.779 55.1478 36.132C55.1879 36.2684 55.2119 36.4048 55.2519 36.5412C55.308 36.7658 55.3721 36.9904 55.4201 37.223C55.4522 37.3915 55.4842 37.568 55.5082 37.7445C55.5403 37.945 55.5803 38.1376 55.6123 38.3381C55.6364 38.5226 55.6524 38.7152 55.6684 38.8997C55.6924 39.0922 55.7165 39.2848 55.7245 39.4773C55.7405 39.6778 55.7405 39.8704 55.7485 40.0709C55.7485 40.2554 55.7645 40.448 55.7725 40.6325C55.7725 40.833 55.7645 41.0416 55.7565 41.2422C55.7565 41.4267 55.7565 41.6112 55.7405 41.7957C55.7325 42.0043 55.7084 42.2048 55.6924 42.4134C55.6764 42.5979 55.6684 42.7824 55.6444 42.9669C55.6204 43.1755 55.5883 43.3761 55.5563 43.5847C55.5323 43.7692 55.5082 43.9537 55.4762 44.1382C55.4442 44.3468 55.3961 44.5473 55.3561 44.7559C55.316 44.9404 55.284 45.1249 55.2439 45.3094C55.1959 45.518 55.1398 45.7186 55.0838 45.9191C55.0357 46.1036 54.9957 46.2801 54.9396 46.4646C54.8836 46.6652 54.8115 46.8657 54.7474 47.0663C54.6913 47.2428 54.6353 47.4273 54.5712 47.6038C54.4991 47.8043 54.419 47.9969 54.347 48.1894C54.2749 48.3659 54.2108 48.5424 54.1387 48.7189C54.0587 48.9114 53.9706 49.0959 53.8825 49.2804C53.8024 49.4569 53.7223 49.6334 53.6422 49.8019C53.5541 49.9864 53.45 50.1629 53.3539 50.3474C53.2658 50.5159 53.1777 50.6923 53.0816 50.8608C52.9775 51.0373 52.8734 51.2058 52.7612 51.3823C52.6571 51.5507 52.561 51.7112 52.4569 51.8796C52.3448 52.0481 52.2247 52.2085 52.1125 52.369C52.0164 52.5054 51.9203 52.6417 51.8162 52.7781L50.5428 51.6149L37.6408 38.4745C37.3125 38.1456 36.864 37.9771 36.3995 38.0012C35.935 38.0253 35.5105 38.2579 35.2302 38.6189C33.4203 40.9694 28.8874 45.4137 26.4287 44.1221C25.6038 43.6889 25.1313 43.1916 25.0192 42.638C24.8269 41.7075 25.5798 40.5362 25.8521 40.1993L29.1837 36.2122C29.2477 36.14 29.3038 36.0598 29.3519 35.9716C31.2179 32.6744 39.1945 27.099 45.6335 27.8371L45.6255 27.8451ZM49.3576 58.0407C47.924 59.0354 42.4541 55.4014 36.888 48.5665C36.3274 47.8765 35.3183 47.7803 34.6376 48.3418C33.9568 48.9034 33.8527 49.9142 34.4133 50.5961C34.5255 50.7325 37.1283 53.9092 40.3077 56.7732C41.509 57.8562 42.6222 58.7306 43.6714 59.4366C43.7515 59.605 43.8636 59.7655 44.0078 59.9018C44.0078 59.9018 44.7285 60.5918 44.7445 61.4822C44.7526 62.0919 44.4162 62.7497 43.7435 63.4236C43.0787 64.0894 42.2218 63.8809 41.5811 63.568C41.3809 63.3594 41.1406 63.207 40.8764 63.1268C40.7722 63.0466 40.7002 62.9904 40.6761 62.9663C37.5688 60.0142 32.4592 55.1286 31.9867 54.5911C31.4101 53.9173 30.401 53.837 29.7283 54.4227C29.0555 55.0003 28.9754 56.0111 29.5521 56.6849C30.2088 57.4551 37.0963 63.9932 38.4978 65.3329C38.746 65.5495 39.0504 65.7821 39.4028 66.0067C39.8432 66.7127 40.2517 67.9642 38.8421 69.1916C37.8571 70.0419 36.7759 69.4723 36.4475 69.2638L26.0443 59.2681C25.4036 58.6584 24.3945 58.6744 23.7778 59.3162C23.1611 59.958 23.1852 60.9688 23.8259 61.5865L32.8517 70.2585C32.8517 70.2585 32.8917 70.3307 32.9157 70.3628C33.2441 70.7719 34.7978 72.8898 33.0919 74.422C31.7785 75.6013 29.7923 73.5476 29.7443 73.5075C29.3919 73.1064 21.0388 63.5279 10.9078 55.7303C5.15761 51.3101 3.5799 46.3042 3.26756 42.8787C2.89916 38.8756 4.08444 34.9126 6.44701 32.2974C8.17688 30.3721 11.6607 28.5029 15.5609 28.6393C19.0607 28.7676 22.2321 30.5486 24.7388 33.7895L25.8601 35.2175L23.3934 38.1616C23.1852 38.4103 21.3592 40.6726 21.8717 43.2718C22.08 44.3387 22.7847 45.8549 24.9391 46.9861C29.2718 49.2644 34.3092 44.5553 36.5917 42.0043L48.2924 53.9173C48.2924 53.9173 48.3324 53.9574 48.3485 53.9734H48.3565C48.9571 54.535 50.1504 55.987 50.0863 57.0219C50.0783 57.1743 50.0463 57.5754 49.3576 58.0648V58.0407Z" fill="white"></path></g><defs><clipPath id="clip0_158_344"><rect width="59" height="78" fill="white"></rect></clipPath></defs></svg>