<svg xmlns="http://www.w3.org/2000/svg" width="223" height="57" viewBox="0 0 223 57" fill="none"><g clip-path="url(#clip0_563_41)"><path d="M148.188 8.28524C147.654 6.21874 146.856 4.58132 145.793 3.37682C144.727 2.17425 143.426 1.31225 141.883 0.786963C140.338 0.265528 138.581 0 136.613 0C129.348 0 122.063 8.46034 117.107 12.8666C115.162 14.5925 114.194 15.1601 114.194 15.1601V40.3564H124.569V18.0578C124.569 14.8657 125.037 12.5626 125.97 11.1483C126.899 9.73795 129.358 9.0318 131.592 9.02988C133.826 9.0318 136.285 9.73795 137.216 11.1483C138.145 12.5606 138.612 14.8657 138.612 18.0578V40.3564H148.988V15.9375C148.988 12.9031 148.722 10.3498 148.19 8.28332" fill="url(#paint0_radial_563_41)"></path><path d="M42.5087 20.7285C42.5087 22.4564 42.6671 24.0534 42.9879 25.5176C43.3068 26.9838 43.786 28.2672 44.4237 29.3639C45.0614 30.4645 45.9006 31.315 46.9393 31.9172C47.9761 32.5176 49.2143 32.8196 50.6501 32.8196C53.3633 32.8196 55.3859 31.8518 56.7161 29.9142C58.0463 27.9786 58.7114 24.9173 58.7114 20.7285C58.7114 17.1169 58.0972 14.2 56.8746 11.9738C55.65 9.75142 53.5746 8.63928 50.6482 8.63928C48.0935 8.63928 46.0982 9.58017 44.6624 11.4639C43.2246 13.3476 42.5067 16.4377 42.5067 20.7285M31.8125 20.7285C31.8125 14.0845 33.4615 8.96445 36.7615 5.37983C40.0596 1.7952 44.6898 0 50.6501 0C53.8425 0 56.6105 0.498346 58.95 1.49311C61.2935 2.48788 63.234 3.88671 64.7793 5.69346C66.3227 7.5002 67.4788 9.686 68.2515 12.2508C69.0222 14.8138 69.4076 17.6422 69.4076 20.7285C69.4076 27.3763 67.7722 32.4945 64.4996 36.0791C61.227 39.6637 56.6105 41.457 50.6501 41.457C47.4577 41.457 44.6898 40.9586 42.3502 39.9639C40.0068 38.971 38.0506 37.5703 36.4838 35.7635C34.913 33.9568 33.7413 31.7748 32.9705 29.2081C32.1998 26.6452 31.8145 23.8167 31.8145 20.7285" fill="url(#paint1_radial_563_41)"></path><path d="M164.296 20.7285C164.296 22.4564 164.455 24.0534 164.776 25.5176C165.094 26.9838 165.574 28.2672 166.211 29.3639C166.853 30.4645 167.688 31.315 168.727 31.9172C169.766 32.5176 171.002 32.8196 172.438 32.8196C175.151 32.8196 177.174 31.8518 178.504 29.9142C179.834 27.9786 180.499 24.9173 180.499 20.7285C180.499 17.1169 179.889 14.2 178.662 11.9738C177.438 9.75142 175.362 8.63928 172.436 8.63928C169.881 8.63928 167.886 9.58017 166.45 11.4639C165.012 13.3476 164.294 16.4377 164.294 20.7285M153.6 20.7285C153.6 14.0845 155.249 8.96445 158.549 5.37983C161.849 1.7952 166.477 0 172.438 0C175.63 0 178.398 0.498346 180.738 1.49311C183.081 2.48788 185.022 3.88671 186.567 5.69346C188.11 7.5002 189.266 9.686 190.039 12.2508C190.81 14.8138 191.195 17.6422 191.195 20.7285C191.195 27.3763 189.56 32.4945 186.287 36.0791C183.015 39.6637 178.398 41.457 172.438 41.457C169.245 41.457 166.477 40.9586 164.138 39.9639C161.794 38.971 159.84 37.5703 158.271 35.7635C156.701 33.9568 155.531 31.7748 154.758 29.2081C153.987 26.6452 153.602 23.8167 153.602 20.7285" fill="url(#paint2_radial_563_41)"></path><path d="M98.74 27.4803C98.1532 29.262 97.316 30.5954 96.2244 31.4863C95.1329 32.3752 93.5778 32.8197 91.5551 32.8197C89.1608 32.8197 87.324 31.8249 86.0466 29.8354C84.7693 27.8459 84.1316 24.9424 84.1316 21.1211C84.1316 16.8303 84.8769 13.6998 86.3674 11.7391C87.8561 9.77649 89.9296 8.79519 92.5938 8.79519C95.041 8.79519 97.089 9.13768 98.74 9.8169V27.4803ZM102.308 0.863987C99.6203 0.394503 96.5726 0.157837 93.1689 0.157837C86.6746 0.157837 81.7275 1.96458 78.3218 5.57615C74.9162 9.18771 73.2144 14.5002 73.2144 21.5136C73.2144 28.527 74.478 33.1333 77.0073 36.2735C79.5327 39.4136 83.3785 40.9818 88.5388 40.9818C93.2765 40.9818 96.5726 39.7523 98.4368 37.2933H98.7576V39.8062C98.7576 42.5769 98.1062 44.7357 96.8015 46.2827C95.4967 47.8259 93.0359 48.5975 89.419 48.5975C88.1514 48.5975 86.9954 48.5282 85.943 48.3954C86.1112 48.6629 86.2814 48.9265 86.4457 49.2035C87.9128 51.7068 89.0591 54.6565 89.5657 56.9443C90.2641 56.9943 90.5066 56.9962 91.0152 56.9962C96.6548 56.9962 101.044 55.6493 104.186 52.9536C107.326 50.258 108.896 46.0576 108.896 40.3526V2.51488C107.193 1.88762 104.998 1.33732 102.312 0.865911" fill="url(#paint3_radial_563_41)"></path><path d="M27.2177 23.0047C26.314 21.5405 25.1951 20.3475 23.8669 19.4316C22.5347 18.5177 21.0735 17.7711 19.4773 17.1958C17.8791 16.6186 16.4159 16.0837 15.0877 15.5834C13.7556 15.087 12.6386 14.5502 11.7329 13.9749C10.8292 13.3995 10.3773 12.6414 10.3773 11.6986C10.3773 9.3435 11.9207 8.16595 15.0075 8.16595C16.9226 8.16595 18.8122 8.42763 20.6744 8.95099C22.5347 9.47435 24.0781 9.97269 25.3027 10.4422L27.6187 3.06127C26.2358 2.27623 24.3187 1.57008 21.8696 0.942817C19.4206 0.315555 16.68 0 13.648 0C9.23298 0 5.85082 1.02171 3.51127 3.06127C1.16782 5.10468 0 8.06204 0 11.9353C0 14.2904 0.449912 16.2145 1.35561 17.7057C2.25934 19.1969 3.37825 20.4283 4.70647 21.3962C6.03665 22.364 7.5018 23.124 9.09605 23.6743C10.6942 24.2246 12.1574 24.7614 13.4856 25.2829C14.8158 25.8062 15.9328 26.3796 16.8365 27.0088C17.7422 27.6399 18.196 28.475 18.196 29.5217C18.196 30.8859 17.7305 31.8537 16.7993 32.4271C15.8682 33.0044 14.6319 33.293 13.0885 33.293C10.9603 33.293 8.88283 32.9659 6.86214 32.3117C5.28158 31.7999 3.94749 31.2784 2.85401 30.7512C2.94986 31.0745 3.03984 31.4016 3.12396 31.7325C3.87903 34.7168 4.10594 37.5799 3.88489 40.012C4.29177 40.1447 4.71039 40.2737 5.14465 40.3987C7.61917 41.1049 10.2658 41.4589 13.0885 41.4589C18.2488 41.4589 22.1181 40.3198 24.7021 38.0436C27.2842 35.7655 28.5714 32.6388 28.5714 28.6616C28.5714 26.3604 28.1195 24.4748 27.2158 23.0086" fill="url(#paint4_radial_563_41)"></path><path d="M219.874 31.7325C219.958 31.3996 220.048 31.0745 220.142 30.7512C219.049 31.2784 217.719 31.7979 216.136 32.3097C214.113 32.964 212.04 33.291 209.91 33.291C208.366 33.291 207.128 33.0044 206.197 32.429C205.268 31.8537 204.802 30.884 204.802 29.5236C204.802 28.4769 205.254 27.6399 206.158 27.0107C207.061 26.3835 208.18 25.8082 209.509 25.2829C210.841 24.7614 212.304 24.2227 213.898 23.6743C215.496 23.124 216.96 22.3659 218.288 21.3962C219.62 20.4303 220.737 19.1988 221.643 17.7057C222.546 16.2145 222.998 14.2904 222.998 11.9372C222.998 8.06397 221.828 5.1066 219.485 3.06319C217.147 1.02171 213.767 0 209.35 0C206.316 0 203.576 0.315555 201.128 0.942817C198.681 1.57008 196.766 2.27623 195.381 3.06127L197.695 10.4422C198.92 9.97077 200.463 9.47435 202.326 8.95099C204.19 8.42763 206.078 8.16595 207.993 8.16595C211.077 8.16595 212.621 9.34158 212.621 11.6967C212.621 12.6395 212.169 13.3995 211.265 13.9749C210.361 14.5521 209.243 15.087 207.914 15.5834C206.584 16.0818 205.119 16.6186 203.525 17.192C201.927 17.7692 200.463 18.5158 199.133 19.4297C197.803 20.3456 196.688 21.5366 195.784 23.0028C194.879 24.469 194.425 26.3527 194.425 28.6559C194.425 32.6349 195.716 35.7616 198.296 38.0378C200.878 40.3141 204.749 41.4531 209.91 41.4531C212.73 41.4531 215.377 41.0972 217.852 40.391C218.288 40.2679 218.704 40.139 219.111 40.0062C218.892 37.5741 219.121 34.711 219.874 31.7267" fill="url(#paint5_radial_563_41)"></path></g><defs><radialGradient id="paint0_radial_563_41" cx="0" cy="0" r="1" gradientUnits="userSpaceOnUse" gradientTransform="translate(131.588 20.1801) scale(19.0196 18.7082)"><stop stop-color="#1D3562"></stop><stop offset="0.44" stop-color="#1C325F"></stop><stop offset="0.74" stop-color="#192C56"></stop><stop offset="1" stop-color="#142147"></stop></radialGradient><radialGradient id="paint1_radial_563_41" cx="0" cy="0" r="1" gradientUnits="userSpaceOnUse" gradientTransform="translate(50.611 20.7285) scale(19.9683 19.6414)"><stop stop-color="#1D3562"></stop><stop offset="0.44" stop-color="#1C325F"></stop><stop offset="0.74" stop-color="#192C56"></stop><stop offset="1" stop-color="#142147"></stop></radialGradient><radialGradient id="paint2_radial_563_41" cx="0" cy="0" r="1" gradientUnits="userSpaceOnUse" gradientTransform="translate(172.399 20.7285) scale(19.9683 19.6414)"><stop stop-color="#1D3562"></stop><stop offset="0.44" stop-color="#1C325F"></stop><stop offset="0.74" stop-color="#192C56"></stop><stop offset="1" stop-color="#142147"></stop></radialGradient><radialGradient id="paint3_radial_563_41" cx="0" cy="0" r="1" gradientUnits="userSpaceOnUse" gradientTransform="translate(91.0544 28.5789) scale(24.0116 23.6185)"><stop stop-color="#1D3562"></stop><stop offset="0.44" stop-color="#1C325F"></stop><stop offset="0.74" stop-color="#192C56"></stop><stop offset="1" stop-color="#142147"></stop></radialGradient><radialGradient id="paint4_radial_563_41" cx="0" cy="0" r="1" gradientUnits="userSpaceOnUse" gradientTransform="translate(14.2876 20.7285) scale(18.0024 17.7076)"><stop stop-color="#1D3562"></stop><stop offset="0.44" stop-color="#1C325F"></stop><stop offset="0.74" stop-color="#192C56"></stop><stop offset="1" stop-color="#142147"></stop></radialGradient><radialGradient id="paint5_radial_563_41" cx="0" cy="0" r="1" gradientUnits="userSpaceOnUse" gradientTransform="translate(208.712 20.7285) scale(18.0024 17.7076)"><stop stop-color="#1D3562"></stop><stop offset="0.44" stop-color="#1C325F"></stop><stop offset="0.74" stop-color="#192C56"></stop><stop offset="1" stop-color="#142147"></stop></radialGradient><clipPath id="clip0_563_41"><rect width="223" height="57" fill="white"></rect></clipPath></defs></svg>