<?xml version="1.0" encoding="UTF-8"?>
<svg id="Layer_2" data-name="Layer 2" xmlns="http://www.w3.org/2000/svg" viewBox="0 0 555 160">
  <g>
    <path d="M313.4,17.8c-1.13-4.44-2.82-7.96-5.07-10.55-2.25-2.58-5.01-4.44-8.27-5.57C296.8.57,293.09,0,288.92,0c-15.36,0-30.77,18.18-41.26,27.65-4.11,3.71-6.16,4.93-6.16,4.93v54.14h21.94v-47.91c0-6.86.99-11.81,2.96-14.84,1.97-3.03,7.17-4.55,11.89-4.55,4.72,0,9.92,1.52,11.89,4.55,1.97,3.04,2.96,7.99,2.96,14.84v47.91h21.94v-52.47c0-6.52-.56-12.01-1.69-16.45" style="fill: #fff;"/>
    <path d="M89.9,44.54c0,3.71.34,7.15,1.01,10.29.67,3.15,1.69,5.91,3.04,8.27,1.35,2.36,3.12,4.19,5.32,5.48,2.19,1.29,4.81,1.94,7.85,1.94,5.74,0,10.01-2.08,12.83-6.24,2.81-4.16,4.22-10.74,4.22-19.74,0-7.76-1.3-14.03-3.88-18.81-2.59-4.77-6.98-7.17-13.17-7.17-5.4,0-9.62,2.02-12.66,6.07-3.04,4.05-4.56,10.69-4.56,19.91M67.28,44.54c0-14.28,3.49-25.28,10.47-32.98C84.72,3.86,94.52,0,107.12,0c6.75,0,12.61,1.07,17.55,3.21,4.95,2.14,9.06,5.14,12.33,9.02,3.26,3.88,5.71,8.58,7.34,14.09,1.63,5.51,2.45,11.58,2.45,18.22,0,14.28-3.46,25.28-10.38,32.98-6.92,7.7-16.69,11.55-29.29,11.55-6.75,0-12.61-1.07-17.55-3.21-4.95-2.13-9.09-5.14-12.41-9.02-3.32-3.88-5.8-8.57-7.43-14.09-1.63-5.51-2.45-11.58-2.45-18.22" style="fill: #fff;"/>
    <path d="M347.47,44.54c0,3.71.34,7.15,1.01,10.29.67,3.15,1.69,5.91,3.04,8.27,1.36,2.36,3.12,4.19,5.32,5.48,2.2,1.29,4.81,1.94,7.85,1.94,5.74,0,10.01-2.08,12.83-6.24,2.81-4.16,4.22-10.74,4.22-19.74,0-7.76-1.29-14.03-3.88-18.81-2.59-4.77-6.98-7.17-13.17-7.17-5.4,0-9.62,2.02-12.66,6.07-3.04,4.05-4.56,10.69-4.56,19.91M324.85,44.54c0-14.28,3.49-25.28,10.47-32.98,6.98-7.7,16.77-11.56,29.37-11.56,6.75,0,12.61,1.07,17.55,3.21,4.95,2.14,9.06,5.14,12.33,9.02,3.26,3.88,5.71,8.58,7.34,14.09,1.63,5.51,2.45,11.58,2.45,18.22,0,14.28-3.46,25.28-10.38,32.98-6.92,7.7-16.69,11.55-29.29,11.55-6.75,0-12.61-1.07-17.55-3.21-4.95-2.13-9.09-5.14-12.41-9.02-3.32-3.88-5.8-8.57-7.43-14.09-1.63-5.51-2.45-11.58-2.45-18.22" style="fill: #fff;"/>
    <path d="M208.83,59.05c-1.24,3.83-3.01,6.69-5.32,8.61-2.31,1.91-5.6,2.87-9.88,2.87-5.07,0-8.95-2.14-11.65-6.41-2.7-4.27-4.05-10.51-4.05-18.72,0-9.22,1.58-15.94,4.73-20.16,3.15-4.22,7.54-6.32,13.17-6.32,5.18,0,9.51.73,13,2.19v37.95ZM216.37,1.86c-5.69-1.01-12.13-1.52-19.33-1.52-13.73,0-24.2,3.88-31.4,11.64-7.2,7.76-10.8,19.18-10.8,34.25s2.67,24.97,8.02,31.72c5.34,6.75,13.47,10.12,24.39,10.12,10.02,0,16.99-2.64,20.93-7.92h.68v5.4c0,5.96-1.38,10.59-4.14,13.92-2.76,3.31-7.96,4.98-15.61,4.98-2.68,0-5.13-.15-7.35-.43.36.58.72,1.14,1.06,1.74,3.1,5.38,5.53,11.72,6.6,16.63,1.48.11,1.99.11,3.07.11,11.93,0,21.21-2.9,27.85-8.69,6.64-5.79,9.96-14.82,9.96-27.08V5.4c-3.6-1.35-8.25-2.53-13.93-3.54" style="fill: #fff;"/>
    <path d="M57.56,49.43c-1.91-3.15-4.28-5.71-7.09-7.68-2.82-1.96-5.91-3.57-9.28-4.8-3.38-1.24-6.47-2.39-9.28-3.46-2.82-1.07-5.18-2.22-7.09-3.46-1.91-1.23-2.87-2.87-2.87-4.89,0-5.06,3.26-7.59,9.79-7.59,4.05,0,8.04.56,11.99,1.69,3.94,1.12,7.2,2.19,9.79,3.2l4.9-15.86c-2.93-1.69-6.98-3.2-12.16-4.55-5.18-1.35-10.97-2.03-17.39-2.03C19.53,0,12.37,2.19,7.42,6.58,2.47,10.97,0,17.32,0,25.65c0,5.06.95,9.2,2.87,12.4,1.91,3.2,4.28,5.85,7.09,7.93,2.81,2.08,5.91,3.71,9.28,4.89,3.38,1.18,6.47,2.33,9.28,3.46,2.81,1.12,5.18,2.36,7.09,3.71,1.92,1.35,2.87,3.15,2.87,5.4,0,2.93-.99,5.01-2.96,6.24-1.97,1.24-4.58,1.86-7.85,1.86-4.5,0-8.9-.7-13.17-2.11-3.34-1.1-6.17-2.22-8.48-3.35.2.7.39,1.4.57,2.11,1.6,6.41,2.08,12.56,1.61,17.79.86.28,1.74.56,2.66.83,5.23,1.52,10.83,2.28,16.8,2.28,10.91,0,19.1-2.45,24.56-7.34,5.46-4.89,8.18-11.61,8.18-20.16,0-4.95-.96-9-2.87-12.15" style="fill: #fff;"/>
    <path d="M465.01,68.18c.18-.72.37-1.41.57-2.11-2.31,1.13-5.13,2.25-8.47,3.35-4.28,1.41-8.66,2.11-13.17,2.11-3.26,0-5.88-.61-7.85-1.85-1.97-1.23-2.95-3.32-2.95-6.24,0-2.25.96-4.05,2.87-5.4,1.91-1.35,4.28-2.58,7.09-3.71,2.82-1.12,5.91-2.28,9.28-3.46,3.38-1.18,6.47-2.81,9.28-4.89,2.82-2.07,5.18-4.72,7.09-7.93,1.91-3.2,2.87-7.34,2.87-12.4,0-8.32-2.47-14.68-7.43-19.07C459.25,2.2,452.1,0,442.76,0c-6.42,0-12.21.68-17.39,2.03-5.18,1.35-9.23,2.87-12.15,4.55l4.89,15.86c2.59-1.01,5.85-2.08,9.79-3.2,3.94-1.12,7.93-1.69,11.99-1.69,6.53,0,9.79,2.53,9.79,7.59,0,2.03-.96,3.66-2.87,4.89-1.91,1.24-4.28,2.39-7.09,3.46-2.81,1.07-5.91,2.22-9.28,3.46-3.38,1.24-6.47,2.84-9.29,4.81-2.81,1.97-5.17,4.53-7.08,7.68-1.92,3.15-2.87,7.2-2.87,12.15,0,8.55,2.73,15.27,8.19,20.16,5.46,4.89,13.65,7.34,24.56,7.34,5.96,0,11.56-.76,16.8-2.28.92-.26,1.8-.54,2.66-.83-.46-5.23.02-11.38,1.61-17.79" style="fill: #fff;"/>
  </g>
  <g>
    <path d="M262.91,141.97c-1.01.45-2.15.82-3.41,1.1-1.26.28-2.7.42-4.32.42-2.27,0-4.43-.32-6.48-.95-2.05-.63-3.83-1.65-5.34-3.07-1.52-1.41-2.73-3.26-3.64-5.53-.91-2.27-1.37-5.05-1.37-8.33,0-2.98.46-5.61,1.37-7.88s2.21-4.18,3.9-5.72c1.69-1.54,3.71-2.7,6.06-3.48,2.35-.78,4.97-1.17,7.85-1.17s5.42.37,7.77,1.1c2.35.73,4.18,1.53,5.5,2.39.96.66,1.72,1.4,2.27,2.23.56.83.83,1.88.83,3.14v28.56c0,2.63-.48,4.9-1.44,6.82-.96,1.92-2.29,3.5-3.98,4.73-1.69,1.24-3.68,2.16-5.95,2.77-2.27.61-4.73.91-7.35.91s-5.09-.23-7.09-.68c-2-.45-3.58-1.04-4.74-1.74-1.72-1.21-2.58-2.83-2.58-4.85,0-1.06.23-2.03.68-2.92.46-.88.96-1.53,1.52-1.93,1.41.81,3.04,1.5,4.89,2.08,1.84.58,3.8.87,5.88.87,2.83,0,5.07-.49,6.71-1.48,1.64-.98,2.46-2.61,2.46-4.89v-2.5ZM257.23,134.77c1.21,0,2.26-.15,3.15-.45.88-.3,1.68-.71,2.39-1.21v-15.53c-.61-.25-1.28-.5-2.01-.76-.73-.25-1.66-.38-2.77-.38-2.43,0-4.39.75-5.87,2.23-1.49,1.49-2.24,3.83-2.24,7.01,0,1.72.19,3.16.57,4.32.38,1.16.9,2.1,1.55,2.8.66.71,1.43,1.21,2.31,1.52.88.3,1.86.45,2.92.45Z" style="fill: #92278d;"/>
    <path d="M288.91,131.51c.71,2.12,1.95,3.62,3.72,4.51,1.77.88,3.82,1.33,6.14,1.33,2.12,0,4.12-.29,5.99-.87,1.87-.58,3.38-1.22,4.55-1.93.76.51,1.39,1.16,1.9,1.97.5.81.76,1.69.76,2.65,0,1.16-.35,2.17-1.06,3.03-.71.86-1.68,1.58-2.92,2.16-1.24.58-2.7,1.01-4.4,1.29-1.69.28-3.55.42-5.57.42-2.98,0-5.74-.42-8.26-1.25-2.53-.83-4.7-2.07-6.52-3.71-1.82-1.64-3.25-3.7-4.28-6.17-1.04-2.47-1.56-5.38-1.56-8.71s.52-6.03,1.55-8.41c1.04-2.37,2.43-4.34,4.17-5.91,1.74-1.56,3.74-2.71,5.99-3.45,2.25-.73,4.56-1.1,6.94-1.1,2.58,0,4.94.39,7.09,1.17,2.15.78,3.99,1.88,5.53,3.3,1.54,1.41,2.74,3.11,3.6,5.08.86,1.97,1.29,4.12,1.29,6.44,0,1.62-.43,2.83-1.29,3.64-.86.81-2.07,1.34-3.64,1.59l-19.71,2.95ZM296.11,115.91c-2.17,0-3.98.67-5.42,2.01-1.44,1.34-2.29,3.27-2.54,5.8l14.48-2.35c-.1-1.31-.68-2.55-1.74-3.71-1.06-1.16-2.65-1.74-4.78-1.74Z" style="fill: #92278d;"/>
    <path d="M338.79,117.73c-1.06-.86-2.48-1.29-4.24-1.29-1.21,0-2.33.15-3.34.45-1.01.3-1.95.68-2.8,1.14v26.82c-.51.15-1.21.29-2.12.42-.91.13-1.92.19-3.03.19-2.27,0-3.92-.37-4.93-1.1-1.01-.73-1.52-2.16-1.52-4.28v-23.41c0-1.31.28-2.37.83-3.18.56-.81,1.34-1.56,2.35-2.27,1.62-1.16,3.7-2.1,6.25-2.8,2.55-.71,5.37-1.06,8.45-1.06,5.51,0,9.77,1.21,12.77,3.64,3.01,2.42,4.51,5.88,4.51,10.38v23.49c-.56.15-1.29.29-2.2.42-.91.13-1.92.19-3.03.19-2.27,0-3.9-.37-4.89-1.1-.99-.73-1.48-2.16-1.48-4.28v-18.41c0-1.77-.53-3.08-1.59-3.94Z" style="fill: #92278d;"/>
    <path d="M394.21,126.67c0,2.98-.46,5.67-1.36,8.07-.91,2.4-2.21,4.43-3.9,6.1-1.69,1.67-3.73,2.95-6.1,3.86-2.38.91-5.03,1.36-7.96,1.36s-5.6-.44-8-1.33c-2.4-.88-4.45-2.16-6.14-3.83-1.69-1.67-2.99-3.7-3.9-6.1-.91-2.4-1.37-5.11-1.37-8.14s.47-5.59,1.4-7.99c.94-2.4,2.25-4.43,3.94-6.1,1.69-1.67,3.74-2.95,6.14-3.86,2.4-.91,5.04-1.36,7.92-1.36s5.51.45,7.88,1.36c2.38.91,4.41,2.21,6.1,3.9,1.69,1.69,3.01,3.73,3.94,6.1.93,2.37,1.4,5.03,1.4,7.95ZM374.88,116.44c-2.38,0-4.22.88-5.53,2.65-1.32,1.77-1.97,4.29-1.97,7.58s.64,5.95,1.93,7.69c1.29,1.74,3.15,2.61,5.57,2.61s4.28-.88,5.57-2.65c1.29-1.77,1.93-4.32,1.93-7.65s-.66-5.74-1.97-7.54c-1.31-1.79-3.16-2.69-5.53-2.69Z" style="fill: #92278d;"/>
    <path d="M421.35,141.97c-1.01.45-2.15.82-3.41,1.1-1.26.28-2.7.42-4.32.42-2.27,0-4.43-.32-6.48-.95-2.05-.63-3.83-1.65-5.34-3.07-1.52-1.41-2.73-3.26-3.64-5.53-.91-2.27-1.37-5.05-1.37-8.33,0-2.98.46-5.61,1.37-7.88s2.21-4.18,3.9-5.72c1.69-1.54,3.71-2.7,6.06-3.48,2.35-.78,4.97-1.17,7.85-1.17s5.42.37,7.77,1.1c2.35.73,4.18,1.53,5.5,2.39.96.66,1.72,1.4,2.27,2.23.56.83.83,1.88.83,3.14v28.56c0,2.63-.48,4.9-1.44,6.82-.96,1.92-2.29,3.5-3.98,4.73-1.69,1.24-3.68,2.16-5.95,2.77-2.27.61-4.73.91-7.35.91s-5.09-.23-7.09-.68c-2-.45-3.58-1.04-4.74-1.74-1.72-1.21-2.58-2.83-2.58-4.85,0-1.06.23-2.03.68-2.92.46-.88.96-1.53,1.52-1.93,1.41.81,3.04,1.5,4.89,2.08,1.84.58,3.8.87,5.88.87,2.83,0,5.07-.49,6.71-1.48,1.64-.98,2.46-2.61,2.46-4.89v-2.5ZM415.66,134.77c1.21,0,2.26-.15,3.15-.45.88-.3,1.68-.71,2.39-1.21v-15.53c-.61-.25-1.28-.5-2.01-.76-.73-.25-1.66-.38-2.77-.38-2.43,0-4.39.75-5.87,2.23-1.49,1.49-2.24,3.83-2.24,7.01,0,1.72.19,3.16.57,4.32.38,1.16.9,2.1,1.55,2.8.66.71,1.43,1.21,2.31,1.52.88.3,1.86.45,2.92.45Z" style="fill: #92278d;"/>
    <path d="M447.96,144.85c-.51.15-1.21.29-2.12.42-.91.13-1.92.19-3.03.19-2.27,0-3.92-.37-4.93-1.1-1.01-.73-1.52-2.16-1.52-4.28v-23.11c0-1.41.35-2.63,1.06-3.64.71-1.01,1.69-1.89,2.96-2.65,1.67-1.01,3.68-1.81,6.03-2.39,2.35-.58,4.81-.87,7.39-.87,5.26,0,7.88,1.77,7.88,5.3,0,.86-.13,1.64-.38,2.35-.25.71-.53,1.31-.83,1.82-1.16-.25-2.58-.38-4.25-.38-1.47,0-2.93.18-4.4.53-1.47.35-2.75.83-3.87,1.44v26.36Z" style="fill: #92278d;"/>
    <path d="M478.51,107.35c2.63,0,5.02.27,7.16.8,2.15.53,3.98,1.35,5.5,2.46,1.52,1.11,2.69,2.53,3.53,4.24.83,1.72,1.25,3.74,1.25,6.06v17.12c0,1.31-.34,2.36-1.02,3.14-.68.78-1.5,1.45-2.46,2.01-1.57.96-3.49,1.69-5.76,2.2-2.27.5-4.85.76-7.73.76-5.21,0-9.35-1-12.43-2.99-3.08-1.99-4.62-5.04-4.62-9.13,0-3.48,1.03-6.14,3.11-7.95,2.07-1.82,5.26-2.95,9.55-3.41l10.08-1.06v-.83c0-1.62-.66-2.8-1.97-3.56s-3.21-1.14-5.69-1.14c-1.92,0-3.8.23-5.65.68s-3.5.98-4.97,1.59c-.61-.4-1.13-1.02-1.55-1.86-.43-.83-.64-1.73-.64-2.69,0-2.22,1.16-3.81,3.49-4.77,1.47-.56,3.17-.97,5.12-1.25,1.95-.28,3.85-.42,5.72-.42ZM478.96,137.58c1.11,0,2.21-.11,3.3-.34,1.09-.23,1.91-.52,2.46-.87v-6.97s-6.22.53-6.22.53c-1.62.15-2.92.52-3.9,1.1-.99.58-1.48,1.45-1.48,2.61,0,1.21.46,2.17,1.37,2.88.91.71,2.4,1.06,4.47,1.06Z" style="fill: #92278d;"/>
    <path d="M555,144.85c-.56.15-1.29.29-2.2.42-.91.13-1.92.19-3.03.19-2.27,0-3.9-.37-4.89-1.1-.99-.73-1.48-2.16-1.48-4.28v-18.79c0-1.67-.46-2.89-1.37-3.67-.91-.78-2.15-1.17-3.71-1.17-1.01,0-1.96.18-2.84.53-.89.35-1.68.81-2.39,1.36.05.25.09.51.11.76.03.25.04.51.04.76v25c-.56.15-1.29.29-2.2.42-.91.13-1.92.19-3.03.19-2.27,0-3.9-.37-4.89-1.1-.99-.73-1.48-2.16-1.48-4.28v-18.79c0-1.67-.51-2.89-1.52-3.67-1.01-.78-2.25-1.17-3.71-1.17-1.06,0-2.02.16-2.88.49-.86.33-1.57.64-2.12.95v26.97c-.51.15-1.21.29-2.12.42-.91.13-1.92.19-3.03.19-2.27,0-3.92-.37-4.93-1.1-1.01-.73-1.52-2.16-1.52-4.28v-23.41c0-1.31.28-2.37.83-3.18.56-.81,1.34-1.56,2.35-2.27,1.67-1.16,3.73-2.1,6.18-2.8,2.45-.71,5.02-1.06,7.69-1.06,2.12,0,4.13.29,6.03.87,1.9.58,3.63,1.48,5.19,2.69,1.52-1.01,3.23-1.86,5.16-2.54,1.92-.68,4.19-1.02,6.82-1.02,1.97,0,3.85.24,5.65.72,1.79.48,3.37,1.26,4.74,2.35,1.37,1.09,2.46,2.5,3.3,4.24.83,1.74,1.25,3.85,1.25,6.33v23.86Z" style="fill: #92278d;"/>
  </g>
  <g>
    <path d="M545.85,77.77h-29.49c-1.1,0-2-.9-2-2s.9-2,2-2h29.49c2.84,0,5.15-2.31,5.15-5.15V26.67c0-2.84-2.31-5.14-5.15-5.14h-50.3c-2.84,0-5.15,2.31-5.15,5.14v19.66c0,1.1-.9,2-2,2s-2-.9-2-2v-19.66c0-5.04,4.1-9.14,9.15-9.14h50.3c5.05,0,9.15,4.1,9.15,9.14v41.96c0,5.04-4.1,9.14-9.15,9.14Z" style="fill: #fff;"/>
    <path d="M497.75,73.24c-6.31,0-11.44-5.13-11.44-11.44s5.13-11.44,11.44-11.44,11.44,5.13,11.44,11.44-5.13,11.44-11.44,11.44ZM497.75,54.37c-4.1,0-7.44,3.34-7.44,7.44s3.34,7.44,7.44,7.44,7.44-3.34,7.44-7.44-3.34-7.44-7.44-7.44Z" style="fill: #fff;"/>
    <path d="M514.94,93.63h-34.38c-1.1,0-2-.9-2-2v-1.56c0-7.11,5.79-12.9,12.91-12.9h12.57c7.12,0,12.91,5.79,12.91,12.9v1.56c0,1.1-.9,2-2,2ZM482.58,89.63h30.35c-.23-4.7-4.13-8.46-8.89-8.46h-12.57c-4.76,0-8.66,3.76-8.89,8.46Z" style="fill: #fff;"/>
    <path d="M539.26,57.9l.08-7.69-8.87-.09v-6.04h8.69v-7.52c1.78-.41,3.1-1.99,3.1-3.89,0-2.21-1.79-4-4-4s-4,1.79-4,4c0,1.82,1.23,3.34,2.9,3.82v5.58h-15.54v-5.57c1.69-.47,2.94-2,2.94-3.84,0-2.21-1.79-4-4-4s-4,1.79-4,4c0,1.88,1.31,3.45,3.06,3.87v5.53h-16.42v-5.54c1.72-.45,3-2,3-3.86,0-2.21-1.79-4-4-4s-4,1.79-4,4c0,1.86,1.28,3.41,3,3.86v7.54h27.27v6.02l-8.84-.09-.08,7.9c-1.73.44-3.02,1.99-3.02,3.86,0,2.21,1.79,4,4,4s4-1.79,4-4c0-1.85-1.27-3.4-2.98-3.85l.06-5.89,15.71.16-.06,5.71c-1.72.45-3,2-3,3.86,0,2.21,1.79,4,4,4s4-1.79,4-4c0-1.86-1.28-3.41-3-3.86Z" style="fill: #92278d;"/>
  </g>
</svg>