<?xml version="1.0" encoding="UTF-8"?>
<svg id="Layer_2" data-name="Layer 2" xmlns="http://www.w3.org/2000/svg" xmlns:xlink="http://www.w3.org/1999/xlink" viewBox="0 0 556.42 240.77">
  <defs>
    <radialGradient id="New_Gradient_Swatch_1" data-name="New Gradient Swatch 1" cx="278.26" cy="43.38" fx="278.26" fy="43.38" r="40.22" gradientUnits="userSpaceOnUse">
      <stop offset="0" stop-color="#1e3562"/>
      <stop offset=".44" stop-color="#1c325f"/>
      <stop offset=".74" stop-color="#192c56"/>
      <stop offset="1" stop-color="#142147"/>
    </radialGradient>
    <radialGradient id="New_Gradient_Swatch_1-2" data-name="New Gradient Swatch 1" cx="107.02" cy="44.56" fx="107.02" fy="44.56" r="42.22" xlink:href="#New_Gradient_Swatch_1"/>
    <radialGradient id="New_Gradient_Swatch_1-3" data-name="New Gradient Swatch 1" cx="364.56" cy="44.56" fx="364.56" fy="44.56" r="42.22" xlink:href="#New_Gradient_Swatch_1"/>
    <radialGradient id="New_Gradient_Swatch_1-4" data-name="New Gradient Swatch 1" cx="192.55" cy="61.44" fx="192.55" fy="61.44" r="50.78" xlink:href="#New_Gradient_Swatch_1"/>
    <radialGradient id="New_Gradient_Swatch_1-5" data-name="New Gradient Swatch 1" cx="30.21" cy="44.56" fx="30.21" fy="44.56" r="38.07" xlink:href="#New_Gradient_Swatch_1"/>
    <radialGradient id="New_Gradient_Swatch_1-6" data-name="New Gradient Swatch 1" cx="441.35" cy="44.56" fx="441.35" fy="44.56" r="38.07" xlink:href="#New_Gradient_Swatch_1"/>
  </defs>
  <g id="Layer_1-2" data-name="Layer 1">
    <g>
      <g>
        <g>
          <path d="M534.43,40.4c-.39,0-.79-.12-1.14-.36-.91-.63-1.13-1.88-.51-2.78l8.76-12.66c.63-.91,1.87-1.14,2.78-.51.91.63,1.13,1.88.51,2.78l-8.76,12.66c-.39.56-1.01.86-1.65.86Z" style="fill: #00a98f;"/>
          <path d="M504.94,40.4c-.63,0-1.26-.3-1.65-.86l-8.76-12.66c-.63-.91-.4-2.15.51-2.78s2.15-.4,2.78.51l8.76,12.66c.63.91.4,2.15-.51,2.78-.35.24-.74.36-1.14.36Z" style="fill: #00a98f;"/>
          <path d="M514.28,35.18c-.9,0-1.71-.61-1.94-1.52l-3.74-14.94c-.27-1.07.38-2.16,1.46-2.43,1.07-.27,2.16.38,2.43,1.46l3.74,14.94c.27,1.07-.38,2.16-1.46,2.43-.16.04-.33.06-.49.06Z" style="fill: #00a98f;"/>
          <path d="M524.66,35.18c-.16,0-.32-.02-.49-.06-1.07-.27-1.72-1.35-1.46-2.43l3.74-14.94c.27-1.07,1.36-1.72,2.43-1.46,1.07.27,1.72,1.35,1.46,2.43l-3.74,14.94c-.23.91-1.04,1.52-1.94,1.52Z" style="fill: #00a98f;"/>
          <path d="M550.37,84.81c.2-.25.38-.51.56-.77.18-.25.37-.49.54-.75.17-.26.33-.53.5-.79.17-.27.34-.53.5-.8.15-.27.29-.54.44-.81.15-.28.31-.56.45-.84.13-.27.25-.55.38-.82.14-.3.28-.59.4-.89.11-.27.21-.55.32-.83.12-.31.24-.61.35-.92.1-.28.17-.56.26-.84.1-.32.21-.63.29-.95.08-.28.14-.56.2-.84.08-.33.17-.65.24-.98.06-.27.1-.55.14-.82.06-.34.13-.68.18-1.01.04-.27.06-.55.09-.82.04-.34.09-.68.11-1.03.02-.27.02-.54.04-.82.02-.34.04-.68.04-1.02,0-.28-.01-.55-.02-.83,0-.34,0-.67-.02-1.01-.02-.29-.05-.57-.08-.86-.03-.32-.05-.64-.09-.95-.04-.3-.1-.6-.15-.9-.05-.29-.09-.59-.15-.88-.07-.34-.16-.68-.25-1.02-.06-.24-.11-.48-.18-.72-.16-.57-.35-1.14-.56-1.69-2.5-6.67-7.74-10.79-14.75-11.59-9.05-1.04-18.41,5.11-22.61,9.89l-.78-1c-4.88-6.31-10.56-7.81-14.46-7.96-6.55-.25-11.92,3.01-14.5,5.88-3.67,4.08-5.53,10.15-4.98,16.23.46,5.06,2.76,12.43,11.09,18.83,12.33,9.47,22.84,21.5,22.99,21.67,1.2,1.28,3.54,2.95,6.05,2.95,1.25,0,2.54-.41,3.76-1.5,1.73-1.54,2.33-3.31,2.32-4.99.26.03.52.05.79.05,1.29,0,2.7-.4,4.01-1.53,2.04-1.76,2.67-3.8,2.56-5.66,1.27-.06,2.58-.54,3.77-1.72,1.66-1.66,2.47-3.47,2.42-5.39,0,0,0-.01,0-.02.36.06.71.09,1.05.09,1.12,0,2.13-.31,3.02-.94,2.02-1.41,2.53-3.13,2.61-4.33.03-.46,0-.91-.08-1.35.2-.22.39-.46.58-.69.2-.23.4-.46.59-.7ZM539.72,50.96c5.44.62,9.51,3.83,11.46,9.02.16.43.31.87.43,1.31.05.17.08.34.13.51.07.28.15.56.21.85.04.21.08.43.11.65.04.25.09.49.13.74.03.23.05.47.07.7.03.24.06.48.07.72.02.25.02.49.03.74,0,.23.02.47.03.7,0,.25-.01.51-.02.76,0,.23,0,.46-.02.69-.01.26-.04.51-.06.77-.02.23-.03.46-.06.69-.03.26-.07.51-.11.77-.03.23-.06.46-.1.69-.04.26-.1.51-.15.77-.05.23-.09.46-.14.69-.06.26-.13.51-.2.76-.06.23-.11.45-.18.68-.07.25-.16.5-.24.75-.07.22-.14.45-.22.67-.09.25-.19.49-.28.73-.09.22-.17.44-.26.66-.1.24-.21.47-.32.7-.1.22-.2.44-.3.65-.11.23-.24.45-.36.68-.11.21-.22.43-.34.64-.13.22-.26.43-.4.65-.13.21-.25.41-.38.62-.14.21-.29.41-.43.61-.12.17-.24.34-.37.51l-1.59-1.45-16.11-16.38c-.41-.41-.97-.62-1.55-.59-.58.03-1.11.32-1.46.77-2.26,2.93-7.92,8.47-10.99,6.86-1.03-.54-1.62-1.16-1.76-1.85-.24-1.16.7-2.62,1.04-3.04l4.16-4.97c.08-.09.15-.19.21-.3,2.33-4.11,12.29-11.06,20.33-10.14ZM544.38,88.6c-1.79,1.24-8.62-3.29-15.57-11.81-.7-.86-1.96-.98-2.81-.28-.85.7-.98,1.96-.28,2.81.14.17,3.39,4.13,7.36,7.7,1.5,1.35,2.89,2.44,4.2,3.32.1.21.24.41.42.58,0,0,.9.86.92,1.97.01.76-.41,1.58-1.25,2.42-.83.83-1.9.57-2.7.18-.25-.26-.55-.45-.88-.55-.13-.1-.22-.17-.25-.2-3.88-3.68-10.26-9.77-10.85-10.44-.72-.84-1.98-.94-2.82-.21-.84.72-.94,1.98-.22,2.82.82.96,9.42,9.11,11.17,10.78.31.27.69.56,1.13.84.55.88,1.06,2.44-.7,3.97-1.23,1.06-2.58.35-2.99.09l-12.99-12.46c-.8-.76-2.06-.74-2.83.06s-.74,2.06.06,2.83l11.27,10.81s.05.09.08.13c.41.51,2.35,3.15.22,5.06-1.64,1.47-4.12-1.09-4.18-1.14-.44-.5-10.87-12.44-23.52-22.16-7.18-5.51-9.15-11.75-9.54-16.02-.46-4.99,1.02-9.93,3.97-13.19,2.16-2.4,6.51-4.73,11.38-4.56,4.37.16,8.33,2.38,11.46,6.42l1.4,1.78-3.08,3.67c-.26.31-2.54,3.13-1.9,6.37.26,1.33,1.14,3.22,3.83,4.63,5.41,2.84,11.7-3.03,14.55-6.21l14.61,14.85s.05.05.07.07h.01c.75.7,2.24,2.51,2.16,3.8-.01.19-.05.69-.91,1.3Z" style="fill: #122348;"/>
        </g>
        <g>
          <path d="M288.26,157.86c-2.07,1.14-4.43,2.2-7.07,3.18-2.64.99-5.77,1.48-9.39,1.48-6.42,0-11.65-1.94-15.68-5.82-4.04-3.88-6.06-9.65-6.06-17.31,0-3.83.57-7.19,1.71-10.09,1.14-2.9,2.66-5.33,4.58-7.3,1.91-1.97,4.19-3.47,6.83-4.5,2.64-1.03,5.51-1.55,8.62-1.55,3.62,0,6.7.49,9.24,1.48,2.54.98,4.84,2.05,6.91,3.18,1.14-.83,2.15-1.92,3.03-3.26.88-1.34,1.32-2.85,1.32-4.5,0-3.52-2.07-6.49-6.21-8.93-4.14-2.43-9.68-3.65-16.61-3.65-5.38,0-10.46.8-15.22,2.41-4.76,1.61-8.93,4.04-12.5,7.3-3.57,3.26-6.39,7.35-8.46,12.27-2.07,4.92-3.11,10.64-3.11,17.16s.96,12.06,2.87,16.92c1.91,4.87,4.63,8.93,8.15,12.19,3.52,3.26,7.74,5.69,12.65,7.3,4.92,1.6,10.33,2.41,16.23,2.41,7.04,0,12.63-1.14,16.77-3.42,4.14-2.28,6.21-5.17,6.21-8.7,0-1.76-.44-3.31-1.32-4.66-.88-1.34-2.05-2.54-3.49-3.57Z" style="fill: #00a98f;"/>
          <path d="M358.05,106.77c-6.06-4.35-14.16-6.52-24.3-6.52-3.94,0-7.82.31-11.65.93-3.83.62-7.25,1.55-10.25,2.79-2.17,1.04-3.75,2.2-4.74,3.49-.98,1.3-1.48,2.98-1.48,5.05,0,1.66.39,3.18,1.16,4.58.78,1.4,1.73,2.51,2.87,3.34,3-1.45,6.42-2.66,10.25-3.65,3.83-.98,7.76-1.48,11.8-1.48,5.18,0,9.19.93,12.03,2.79,2.85,1.86,4.27,4.76,4.27,8.7v2.79l-21.27,2.17c-8.38.83-14.78,3.08-19.18,6.75-4.4,3.68-6.6,8.98-6.6,15.92,0,7.97,2.98,13.95,8.93,17.93,5.95,3.98,14.1,5.98,24.46,5.98,5.69,0,10.76-.52,15.22-1.55,4.45-1.03,8.12-2.43,11.02-4.19,1.86-1.14,3.42-2.43,4.66-3.88,1.24-1.45,1.86-3.42,1.86-5.9v-35.87c0-9.11-3.03-15.84-9.08-20.19ZM348.04,160.5c-1.14.83-2.95,1.53-5.43,2.1-2.48.57-5.23.85-8.23.85-4.97,0-8.57-.83-10.79-2.48-2.23-1.65-3.34-3.98-3.34-6.99s1.09-5.2,3.26-6.6c2.17-1.4,5.33-2.3,9.47-2.72l15.06-1.4v17.24Z" style="fill: #00a98f;"/>
          <path d="M413.02,100.25c-5.49,0-10.59.62-15.29,1.86-4.71,1.24-8.67,2.85-11.88,4.81-2.38,1.45-4.19,3.11-5.44,4.97-1.24,1.86-1.86,4.14-1.86,6.83v49.22c0,3.42.88,5.8,2.64,7.14,1.76,1.34,4.45,2.02,8.07,2.02,1.97,0,3.73-.16,5.28-.47,1.55-.31,2.79-.57,3.73-.78v-55.59c2.28-1.24,5.02-2.28,8.23-3.11,3.21-.83,6.62-1.24,10.25-1.24s6.47.26,8.85.78c.52-.83,1.01-1.89,1.48-3.18.47-1.29.7-2.66.7-4.11,0-6.11-4.92-9.16-14.75-9.16Z" style="fill: #00a98f;"/>
          <path d="M498.87,139.07c1.5-1.45,2.25-3.62,2.25-6.52,0-4.66-.85-8.98-2.56-12.97-1.71-3.98-4.06-7.4-7.07-10.25-3-2.85-6.63-5.07-10.87-6.68-4.25-1.6-8.9-2.41-13.98-2.41s-9.68.78-14.13,2.33c-4.45,1.55-8.36,3.94-11.72,7.14-3.37,3.21-6.03,7.2-8,11.96-1.97,4.76-2.95,10.35-2.95,16.77s1.01,12.42,3.03,17.39c2.02,4.97,4.81,9.14,8.38,12.5,3.57,3.36,7.87,5.88,12.89,7.53,5.02,1.65,10.58,2.48,16.69,2.48,3.83,0,7.4-.31,10.71-.93,3.31-.62,6.18-1.5,8.62-2.64,2.43-1.14,4.35-2.51,5.75-4.11,1.4-1.6,2.1-3.44,2.1-5.51,0-1.65-.47-3.21-1.4-4.66-.93-1.45-2.12-2.59-3.57-3.42-2.28,1.45-5.25,2.82-8.93,4.11-3.68,1.3-7.69,1.94-12.03,1.94-5.8,0-10.66-1.19-14.6-3.57-3.94-2.38-6.63-6.21-8.07-11.49l43.17-6.21c2.69-.41,4.79-1.34,6.29-2.79ZM448.17,134.41c.41-6.21,2.33-11,5.75-14.36,3.42-3.36,7.66-5.05,12.73-5.05s8.9,1.43,11.49,4.27c2.59,2.85,4.09,6.19,4.5,10.01l-34.47,5.12Z" style="fill: #00a98f;"/>
        </g>
        <g>
          <path d="M313.36,17.81c-1.13-4.44-2.82-7.96-5.06-10.55-2.25-2.59-5.01-4.44-8.27-5.57C296.76.57,293.05,0,288.89,0c-15.36,0-30.77,18.19-41.25,27.66-4.11,3.71-6.16,4.93-6.16,4.93v54.17h21.94v-47.94c0-6.86.99-11.82,2.96-14.85,1.97-3.03,7.16-4.55,11.89-4.56,4.72,0,9.92,1.52,11.89,4.56,1.97,3.04,2.96,7.99,2.96,14.85v47.94h21.94v-52.49c0-6.53-.56-12.01-1.69-16.46" style="fill: url(#New_Gradient_Swatch_1);"/>
          <path d="M89.89,44.56c0,3.71.34,7.15,1.01,10.3.67,3.15,1.69,5.91,3.04,8.27,1.35,2.36,3.12,4.19,5.32,5.49,2.19,1.29,4.81,1.94,7.85,1.94,5.74,0,10.01-2.08,12.83-6.25,2.81-4.16,4.22-10.74,4.22-19.75,0-7.76-1.3-14.04-3.88-18.82-2.59-4.78-6.98-7.17-13.17-7.17-5.4,0-9.62,2.02-12.66,6.07-3.04,4.05-4.56,10.69-4.56,19.92M67.27,44.56c0-14.29,3.49-25.29,10.47-33C84.71,3.86,94.5,0,107.11,0c6.75,0,12.6,1.07,17.55,3.21,4.95,2.14,9.06,5.15,12.32,9.03,3.26,3.88,5.71,8.58,7.34,14.1,1.63,5.51,2.45,11.59,2.45,18.23,0,14.29-3.46,25.29-10.38,33-6.92,7.71-16.68,11.56-29.29,11.56-6.75,0-12.6-1.07-17.55-3.21-4.95-2.13-9.09-5.15-12.41-9.03-3.32-3.88-5.8-8.58-7.43-14.09-1.63-5.51-2.45-11.59-2.45-18.23" style="fill: url(#New_Gradient_Swatch_1-2);"/>
          <path d="M347.43,44.56c0,3.71.34,7.15,1.01,10.3.67,3.15,1.69,5.91,3.04,8.27,1.35,2.36,3.12,4.19,5.32,5.49,2.2,1.29,4.81,1.94,7.85,1.94,5.74,0,10.01-2.08,12.83-6.25,2.81-4.16,4.22-10.74,4.22-19.75,0-7.76-1.29-14.04-3.88-18.82-2.59-4.78-6.98-7.17-13.17-7.17-5.4,0-9.62,2.02-12.66,6.07-3.04,4.05-4.56,10.69-4.56,19.92M324.81,44.56c0-14.29,3.49-25.29,10.47-33,6.98-7.71,16.76-11.57,29.37-11.57,6.75,0,12.6,1.07,17.55,3.21,4.95,2.14,9.06,5.15,12.32,9.03,3.26,3.88,5.71,8.58,7.34,14.1,1.63,5.51,2.45,11.59,2.45,18.23,0,14.29-3.46,25.29-10.38,33-6.92,7.71-16.68,11.56-29.29,11.56-6.75,0-12.6-1.07-17.55-3.21-4.95-2.13-9.09-5.15-12.41-9.03-3.32-3.88-5.79-8.58-7.43-14.09-1.63-5.51-2.45-11.59-2.45-18.23" style="fill: url(#New_Gradient_Swatch_1-3);"/>
          <path d="M208.8,59.08c-1.24,3.83-3.01,6.7-5.32,8.61-2.31,1.91-5.6,2.87-9.87,2.87-5.06,0-8.95-2.14-11.65-6.41-2.7-4.28-4.05-10.52-4.05-18.73,0-9.23,1.58-15.95,4.73-20.17,3.15-4.22,7.53-6.33,13.17-6.33,5.17,0,9.5.74,13,2.2v37.97ZM216.35,1.86c-5.68-1.01-12.13-1.52-19.33-1.52-13.73,0-24.19,3.88-31.4,11.65-7.2,7.76-10.8,19.19-10.8,34.26s2.67,24.98,8.02,31.73c5.34,6.75,13.47,10.12,24.39,10.12,10.02,0,16.99-2.64,20.93-7.93h.68v5.4c0,5.96-1.38,10.6-4.14,13.92-2.76,3.32-7.96,4.98-15.61,4.98-2.68,0-5.13-.15-7.35-.43.36.58.72,1.14,1.06,1.74,3.1,5.38,5.53,11.72,6.6,16.64,1.48.11,1.99.11,3.07.11,11.93,0,21.21-2.9,27.85-8.69,6.64-5.79,9.96-14.82,9.96-27.09V5.4c-3.6-1.35-8.25-2.53-13.92-3.55" style="fill: url(#New_Gradient_Swatch_1-4);"/>
          <path d="M57.55,49.46c-1.91-3.15-4.28-5.71-7.09-7.68-2.82-1.97-5.91-3.57-9.28-4.8-3.38-1.24-6.47-2.39-9.28-3.46-2.82-1.07-5.18-2.22-7.09-3.46-1.91-1.23-2.87-2.87-2.87-4.89,0-5.06,3.26-7.6,9.79-7.6,4.05,0,8.04.56,11.98,1.69,3.94,1.12,7.2,2.2,9.79,3.2l4.9-15.87c-2.93-1.69-6.98-3.2-12.16-4.56-5.17-1.35-10.97-2.03-17.38-2.03C19.52,0,12.37,2.2,7.42,6.58,2.47,10.97,0,17.33,0,25.66c0,5.06.95,9.2,2.87,12.41,1.91,3.2,4.28,5.85,7.09,7.93,2.81,2.08,5.91,3.71,9.28,4.9,3.38,1.18,6.47,2.34,9.28,3.46,2.81,1.12,5.17,2.36,7.09,3.71,1.92,1.36,2.87,3.15,2.87,5.4,0,2.93-.99,5.01-2.96,6.25-1.97,1.24-4.58,1.86-7.85,1.86-4.5,0-8.89-.7-13.17-2.11-3.34-1.1-6.16-2.22-8.48-3.35.2.7.39,1.4.57,2.11,1.6,6.41,2.08,12.57,1.61,17.8.86.28,1.74.56,2.66.83,5.23,1.52,10.83,2.28,16.8,2.28,10.91,0,19.1-2.45,24.56-7.34,5.46-4.9,8.18-11.62,8.18-20.17,0-4.95-.96-9-2.87-12.15" style="fill: url(#New_Gradient_Swatch_1-5);"/>
          <path d="M464.95,68.22c.18-.72.37-1.41.57-2.11-2.31,1.13-5.13,2.25-8.47,3.35-4.28,1.41-8.66,2.11-13.17,2.11-3.26,0-5.88-.62-7.85-1.85-1.97-1.23-2.95-3.32-2.95-6.25,0-2.25.96-4.05,2.87-5.4,1.91-1.35,4.28-2.59,7.09-3.71,2.82-1.12,5.91-2.28,9.28-3.46,3.38-1.18,6.47-2.81,9.28-4.9,2.82-2.08,5.18-4.72,7.09-7.93,1.91-3.2,2.87-7.34,2.87-12.4,0-8.33-2.47-14.68-7.43-19.08C459.19,2.2,452.04,0,442.7,0c-6.41,0-12.21.68-17.38,2.03-5.18,1.35-9.23,2.87-12.15,4.56l4.89,15.87c2.59-1.01,5.85-2.08,9.79-3.2,3.94-1.12,7.93-1.69,11.98-1.69,6.53,0,9.79,2.53,9.79,7.59,0,2.03-.96,3.66-2.87,4.9-1.91,1.24-4.28,2.39-7.09,3.46-2.81,1.07-5.91,2.22-9.28,3.46-3.38,1.24-6.47,2.84-9.29,4.81-2.81,1.97-5.17,4.53-7.08,7.68-1.92,3.15-2.87,7.2-2.87,12.15,0,8.55,2.73,15.28,8.19,20.17,5.46,4.89,13.65,7.34,24.56,7.34,5.96,0,11.56-.76,16.79-2.28.92-.26,1.8-.54,2.66-.83-.46-5.23.02-11.38,1.61-17.8" style="fill: url(#New_Gradient_Swatch_1-6);"/>
        </g>
      </g>
      <g>
        <path d="M73.09,220.73c0,2.19-.3,4.09-.9,5.7-.6,1.61-1.45,2.95-2.56,4.02s-2.45,1.86-4.02,2.38c-1.57.52-3.33.78-5.28.78-.85,0-1.81-.03-2.88-.1-1.07-.07-2.08-.25-3.04-.54-1.12-.35-1.68-.96-1.68-1.84v-20.56c0-.43.11-.75.32-.98s.55-.41,1-.54c.83-.27,1.76-.44,2.8-.52s2.08-.12,3.12-.12c1.95,0,3.73.26,5.34.78,1.61.52,2.99,1.29,4.14,2.32,1.15,1.03,2.04,2.31,2.68,3.84.64,1.53.96,3.33.96,5.38ZM69.77,220.73c0-1.71-.26-3.17-.78-4.38-.52-1.21-1.23-2.21-2.12-2.98s-1.93-1.34-3.12-1.7-2.46-.54-3.82-.54c-.85,0-1.59.03-2.22.08-.63.05-1.21.13-1.74.24v19.04c.64.16,1.33.27,2.06.32.73.05,1.49.08,2.26.08,3.15,0,5.51-.85,7.1-2.56,1.59-1.71,2.38-4.24,2.38-7.6Z" style="fill: #122348;"/>
        <path d="M78.37,208.85c0-.56.19-1.03.58-1.42.39-.39.89-.58,1.5-.58s1.11.19,1.48.58c.37.39.56.86.56,1.42s-.19,1.03-.56,1.42c-.37.39-.87.58-1.48.58s-1.11-.19-1.5-.58c-.39-.39-.58-.86-.58-1.42ZM82.05,233.09c-.13.05-.33.11-.6.18s-.56.1-.88.1c-1.15,0-1.72-.48-1.72-1.44v-17.16c.13-.05.34-.11.62-.18.28-.07.58-.1.9-.1,1.12,0,1.68.49,1.68,1.48v17.12Z" style="fill: #122348;"/>
        <path d="M101.73,228.25c0,1.71-.63,3.04-1.88,4-1.25.96-3.07,1.44-5.44,1.44-1.01,0-1.95-.09-2.8-.26s-1.58-.4-2.18-.68-1.07-.6-1.4-.96c-.33-.36-.5-.73-.5-1.1,0-.32.09-.63.26-.92.17-.29.43-.55.78-.76.72.53,1.56,1.01,2.52,1.42.96.41,2.05.62,3.28.62,2.77,0,4.16-.93,4.16-2.8,0-1.52-.92-2.51-2.76-2.96l-3.32-.88c-1.63-.43-2.81-1.05-3.56-1.86-.75-.81-1.12-1.86-1.12-3.14,0-.69.14-1.36.42-2,.28-.64.71-1.2,1.3-1.68.59-.48,1.31-.86,2.18-1.14.87-.28,1.89-.42,3.06-.42,1.87,0,3.37.27,4.52.82,1.15.55,1.72,1.18,1.72,1.9,0,.35-.09.65-.26.92-.17.27-.41.47-.7.6-.48-.32-1.16-.67-2.04-1.04-.88-.37-1.92-.56-3.12-.56s-2.15.23-2.86.68c-.71.45-1.06,1.09-1.06,1.92,0,.61.2,1.13.6,1.56.4.43,1.07.75,2,.96l2.76.68c1.81.45,3.17,1.13,4.08,2.02.91.89,1.36,2.1,1.36,3.62Z" style="fill: #122348;"/>
        <path d="M113.97,214.17c2.32,0,4.16.52,5.52,1.56,1.36,1.04,2.04,2.68,2.04,4.92v9.48c0,.59-.11,1.03-.34,1.34-.23.31-.57.59-1.02.86-.64.37-1.49.7-2.54.98-1.05.28-2.26.42-3.62.42-2.51,0-4.45-.49-5.82-1.48-1.37-.99-2.06-2.41-2.06-4.28,0-1.76.57-3.09,1.72-3.98s2.76-1.45,4.84-1.66l5.68-.56v-1.12c0-1.33-.4-2.31-1.2-2.92-.8-.61-1.88-.92-3.24-.92-1.12,0-2.17.16-3.16.48s-1.87.68-2.64,1.08c-.21-.19-.41-.4-.58-.64-.17-.24-.26-.51-.26-.8,0-.37.09-.68.28-.92.19-.24.48-.47.88-.68.72-.37,1.55-.66,2.48-.86s1.95-.3,3.04-.3ZM114.01,231.09c1.12,0,2.05-.11,2.78-.34s1.26-.45,1.58-.66v-5.8l-4.96.52c-1.39.13-2.41.45-3.08.94-.67.49-1,1.22-1,2.18,0,1.01.39,1.79,1.16,2.34.77.55,1.95.82,3.52.82Z" style="fill: #122348;"/>
        <path d="M136.01,214.17c1.23,0,2.37.2,3.44.6,1.07.4,1.99,1,2.78,1.8.79.8,1.4,1.81,1.84,3.04.44,1.23.66,2.67.66,4.32s-.23,3.13-.68,4.36c-.45,1.23-1.09,2.24-1.9,3.04s-1.79,1.39-2.94,1.78c-1.15.39-2.4.58-3.76.58s-2.49-.15-3.54-.46c-1.05-.31-1.91-.66-2.58-1.06-.56-.35-.95-.69-1.16-1.02-.21-.33-.32-.78-.32-1.34v-22.56c.13-.05.34-.11.62-.18s.58-.1.9-.1c1.12,0,1.68.48,1.68,1.44v7.16c.59-.37,1.29-.7,2.1-.98s1.77-.42,2.86-.42ZM135.53,216.81c-.93,0-1.78.17-2.54.5-.76.33-1.41.73-1.94,1.18v11.32c.4.29.98.57,1.74.84.76.27,1.65.4,2.66.4.91,0,1.73-.14,2.46-.42.73-.28,1.37-.71,1.9-1.3.53-.59.95-1.33,1.24-2.22.29-.89.44-1.95.44-3.18s-.15-2.29-.44-3.2c-.29-.91-.71-1.65-1.24-2.22-.53-.57-1.17-1-1.9-1.28-.73-.28-1.53-.42-2.38-.42Z" style="fill: #122348;"/>
        <path d="M149.85,208.85c0-.56.19-1.03.58-1.42.39-.39.89-.58,1.5-.58s1.11.19,1.48.58c.37.39.56.86.56,1.42s-.19,1.03-.56,1.42c-.37.39-.87.58-1.48.58s-1.11-.19-1.5-.58c-.39-.39-.58-.86-.58-1.42ZM153.53,233.09c-.13.05-.33.11-.6.18s-.56.1-.88.1c-1.15,0-1.72-.48-1.72-1.44v-17.16c.13-.05.34-.11.62-.18.28-.07.58-.1.9-.1,1.12,0,1.68.49,1.68,1.48v17.12Z" style="fill: #122348;"/>
        <path d="M163.17,233.27c-.27.07-.56.1-.88.1-1.15,0-1.72-.48-1.72-1.44v-24.68c.13-.05.34-.11.62-.18s.57-.1.86-.1c1.15,0,1.72.48,1.72,1.44v24.68c-.13.05-.33.11-.6.18Z" style="fill: #122348;"/>
        <path d="M170.29,208.85c0-.56.19-1.03.58-1.42.39-.39.89-.58,1.5-.58s1.11.19,1.48.58c.37.39.56.86.56,1.42s-.19,1.03-.56,1.42c-.37.39-.87.58-1.48.58s-1.11-.19-1.5-.58c-.39-.39-.58-.86-.58-1.42ZM173.97,233.09c-.13.05-.33.11-.6.18s-.56.1-.88.1c-1.15,0-1.72-.48-1.72-1.44v-17.16c.13-.05.34-.11.62-.18.28-.07.58-.1.9-.1,1.12,0,1.68.49,1.68,1.48v17.12Z" style="fill: #122348;"/>
        <path d="M186.93,233.69c-1.87,0-3.38-.41-4.54-1.24s-1.74-2.2-1.74-4.12v-19c.13-.05.34-.11.62-.18s.58-.1.9-.1c1.12,0,1.68.48,1.68,1.44v4.6h6.56c.08.13.16.31.24.54s.12.47.12.74c0,.91-.4,1.36-1.2,1.36h-5.72v10.4c0,1.07.3,1.82.9,2.26.6.44,1.45.66,2.54.66.45,0,.96-.08,1.52-.24.56-.16,1.03-.35,1.4-.56.16.16.31.36.44.6.13.24.2.52.2.84,0,.59-.35,1.07-1.04,1.44s-1.65.56-2.88.56Z" style="fill: #122348;"/>
        <path d="M199.81,229.05c-.35-.64-.75-1.45-1.2-2.44-.45-.99-.93-2.09-1.42-3.32-.49-1.23-.99-2.53-1.5-3.9-.51-1.37-.99-2.77-1.44-4.18.19-.27.43-.48.74-.64.31-.16.63-.24.98-.24.45,0,.82.12,1.1.36.28.24.53.64.74,1.2.8,2.27,1.63,4.49,2.5,6.68.87,2.19,1.85,4.48,2.94,6.88h.16c.43-.83.87-1.83,1.32-3.02.45-1.19.9-2.45,1.34-3.78.44-1.33.85-2.69,1.24-4.06.39-1.37.73-2.69,1.02-3.94.19-.08.39-.15.6-.22.21-.07.47-.1.76-.1.45,0,.83.11,1.12.34.29.23.44.57.44,1.02,0,.53-.19,1.51-.56,2.92-.37,1.41-.86,3-1.46,4.76-.6,1.76-1.29,3.57-2.06,5.42s-1.56,3.5-2.36,4.94c-1.25,2.27-2.38,4.01-3.38,5.22-1,1.21-1.93,1.82-2.78,1.82-.61,0-1.09-.16-1.42-.48-.33-.32-.54-.69-.62-1.12.43-.37.91-.85,1.44-1.44s1.07-1.22,1.6-1.9c.53-.68,1.04-1.38,1.52-2.1.48-.72.88-1.41,1.2-2.08-.45-.13-.87-.37-1.26-.7-.39-.33-.82-.97-1.3-1.9Z" style="fill: #122348;"/>
        <path d="M244.01,233.73c-.29,0-.56-.08-.8-.24s-.51-.39-.8-.68l-2.04-2.12c-.88.93-1.96,1.68-3.24,2.24-1.28.56-2.8.84-4.56.84-1.39,0-2.64-.19-3.76-.58-1.12-.39-2.08-.93-2.88-1.62s-1.42-1.54-1.86-2.54c-.44-1-.66-2.11-.66-3.34,0-1.87.49-3.42,1.48-4.66.99-1.24,2.24-2.14,3.76-2.7-.64-.75-1.12-1.48-1.44-2.2s-.48-1.51-.48-2.36c0-1.65.55-2.97,1.66-3.96,1.11-.99,2.67-1.48,4.7-1.48,1.41,0,2.49.2,3.22.6.73.4,1.1.91,1.1,1.52,0,.32-.09.61-.26.86-.17.25-.37.45-.58.58-.43-.24-.93-.44-1.5-.6-.57-.16-1.17-.24-1.78-.24-1.01,0-1.81.25-2.4.74s-.88,1.17-.88,2.02.21,1.56.64,2.2c.43.64,1.04,1.37,1.84,2.2l7.52,7.84c.37-.85.66-1.87.86-3.04.2-1.17.3-2.49.3-3.96.24-.11.49-.19.74-.26.25-.07.5-.1.74-.1,1.07,0,1.6.6,1.6,1.8,0,1.36-.17,2.73-.52,4.12s-.84,2.64-1.48,3.76l3.52,3.64c-.16,1.15-.75,1.72-1.76,1.72ZM232.61,231.05c.93,0,1.91-.19,2.92-.56,1.01-.37,1.96-1,2.84-1.88l-7.76-8.12c-.51.16-1,.38-1.48.66-.48.28-.9.64-1.26,1.08-.36.44-.65.95-.88,1.54-.23.59-.34,1.24-.34,1.96,0,1.6.53,2.89,1.58,3.86,1.05.97,2.51,1.46,4.38,1.46Z" style="fill: #122348;"/>
        <path d="M273.09,226.85c-.19.13-.43.25-.74.36s-.65.16-1.02.16c-.43,0-.81-.07-1.14-.2-.33-.13-.57-.35-.7-.64-1.44-2.99-2.68-5.72-3.72-8.2-1.04-2.48-1.88-4.53-2.52-6.16h-.16c-.08,2-.17,3.86-.26,5.58-.09,1.72-.19,3.4-.3,5.04s-.21,3.3-.32,4.98c-.11,1.68-.21,3.48-.32,5.4-.16.05-.37.11-.62.16-.25.05-.53.08-.82.08-.59,0-1-.12-1.24-.36-.24-.24-.36-.59-.36-1.04,0-.27.02-.84.06-1.72.04-.88.1-1.95.18-3.2.08-1.25.17-2.64.26-4.16.09-1.52.2-3.07.32-4.64s.24-3.12.36-4.64c.12-1.52.23-2.91.34-4.16.21-.19.52-.36.92-.52.4-.16.85-.24,1.36-.24,1.23,0,2.08.49,2.56,1.48.51,1.04,1.02,2.14,1.54,3.3.52,1.16,1.04,2.34,1.56,3.54.52,1.2,1.03,2.39,1.52,3.56.49,1.17.97,2.29,1.42,3.36h.16c.59-1.41,1.17-2.81,1.76-4.18.59-1.37,1.16-2.7,1.72-3.98.56-1.28,1.09-2.48,1.6-3.6s.96-2.15,1.36-3.08c.24-.13.55-.23.92-.3.37-.07.72-.1,1.04-.1,1.25,0,1.97.43,2.16,1.28.11.48.23,1.27.36,2.38.13,1.11.27,2.38.4,3.82s.26,2.99.38,4.64c.12,1.65.23,3.25.34,4.78.11,1.53.2,2.95.28,4.24.08,1.29.15,2.31.2,3.06-.48.32-1.04.48-1.68.48-.4,0-.75-.1-1.06-.3-.31-.2-.49-.57-.54-1.1-.13-1.95-.25-3.88-.36-5.8-.11-1.92-.21-3.75-.3-5.48-.09-1.73-.18-3.33-.26-4.78s-.15-2.69-.2-3.7h-.16c-.29.75-.63,1.59-1.02,2.52-.39.93-.84,1.99-1.36,3.16-.52,1.17-1.1,2.5-1.74,3.98-.64,1.48-1.36,3.13-2.16,4.94Z" style="fill: #122348;"/>
        <path d="M292.41,225.81c.72,3.49,3.01,5.24,6.88,5.24,1.12,0,2.13-.19,3.04-.56.91-.37,1.63-.77,2.16-1.2.64.37.96.88.96,1.52,0,.37-.17.73-.5,1.08-.33.35-.79.65-1.36.92-.57.27-1.24.48-2,.64s-1.58.24-2.46.24c-3.09,0-5.54-.84-7.34-2.52-1.8-1.68-2.7-4.13-2.7-7.36,0-1.52.22-2.87.66-4.06.44-1.19,1.05-2.19,1.84-3.02.79-.83,1.73-1.46,2.82-1.9,1.09-.44,2.28-.66,3.56-.66,1.2,0,2.31.2,3.32.6,1.01.4,1.89.97,2.62,1.7.73.73,1.31,1.6,1.72,2.6.41,1,.62,2.1.62,3.3,0,.59-.13,1.01-.4,1.26-.27.25-.64.41-1.12.46l-12.32,1.72ZM297.93,216.77c-1.63,0-2.97.57-4.04,1.7-1.07,1.13-1.63,2.75-1.68,4.86l11-1.52c-.13-1.47-.65-2.67-1.54-3.62-.89-.95-2.14-1.42-3.74-1.42Z" style="fill: #122348;"/>
        <path d="M322.83,217.85c-.84-.69-1.97-1.04-3.38-1.04-1.07,0-2.01.13-2.84.4-.83.27-1.53.57-2.12.92v14.96c-.13.05-.33.11-.6.18-.27.07-.56.1-.88.1-1.15,0-1.72-.48-1.72-1.44v-13.64c0-.56.11-1.02.34-1.38.23-.36.62-.71,1.18-1.06.69-.43,1.61-.81,2.76-1.16,1.15-.35,2.44-.52,3.88-.52,2.43,0,4.34.55,5.74,1.64,1.4,1.09,2.1,2.81,2.1,5.16v12.12c-.13.05-.34.11-.62.18s-.57.1-.86.1c-1.15,0-1.72-.48-1.72-1.44v-10.8c0-1.49-.42-2.59-1.26-3.28Z" style="fill: #122348;"/>
        <path d="M340.01,233.69c-1.87,0-3.38-.41-4.54-1.24s-1.74-2.2-1.74-4.12v-19c.13-.05.34-.11.62-.18s.58-.1.9-.1c1.12,0,1.68.48,1.68,1.44v4.6h6.56c.08.13.16.31.24.54s.12.47.12.74c0,.91-.4,1.36-1.2,1.36h-5.72v10.4c0,1.07.3,1.82.9,2.26.6.44,1.45.66,2.54.66.45,0,.96-.08,1.52-.24.56-.16,1.03-.35,1.4-.56.16.16.31.36.44.6.13.24.2.52.2.84,0,.59-.35,1.07-1.04,1.44-.69.37-1.65.56-2.88.56Z" style="fill: #122348;"/>
        <path d="M355.77,214.17c2.32,0,4.16.52,5.52,1.56s2.04,2.68,2.04,4.92v9.48c0,.59-.11,1.03-.34,1.34-.23.31-.57.59-1.02.86-.64.37-1.49.7-2.54.98-1.05.28-2.26.42-3.62.42-2.51,0-4.45-.49-5.82-1.48-1.37-.99-2.06-2.41-2.06-4.28,0-1.76.57-3.09,1.72-3.98,1.15-.89,2.76-1.45,4.84-1.66l5.68-.56v-1.12c0-1.33-.4-2.31-1.2-2.92-.8-.61-1.88-.92-3.24-.92-1.12,0-2.17.16-3.16.48-.99.32-1.87.68-2.64,1.08-.21-.19-.41-.4-.58-.64-.17-.24-.26-.51-.26-.8,0-.37.09-.68.28-.92.19-.24.48-.47.88-.68.72-.37,1.55-.66,2.48-.86s1.95-.3,3.04-.3ZM355.81,231.09c1.12,0,2.05-.11,2.78-.34s1.26-.45,1.58-.66v-5.8l-4.96.52c-1.39.13-2.41.45-3.08.94-.67.49-1,1.22-1,2.18,0,1.01.39,1.79,1.16,2.34.77.55,1.95.82,3.52.82Z" style="fill: #122348;"/>
        <path d="M372.49,233.27c-.27.07-.56.1-.88.1-1.15,0-1.72-.48-1.72-1.44v-24.68c.13-.05.34-.11.62-.18.28-.07.57-.1.86-.1,1.15,0,1.72.48,1.72,1.44v24.68c-.13.05-.33.11-.6.18Z" style="fill: #122348;"/>
        <path d="M407.17,233.27c-.27.07-.56.1-.88.1-1.17,0-1.76-.49-1.76-1.48v-9.68h-12.48v10.88c-.16.05-.37.11-.64.18-.27.07-.56.1-.88.1-1.17,0-1.76-.49-1.76-1.48v-22.96c.13-.05.34-.11.62-.18.28-.07.58-.1.9-.1,1.17,0,1.76.49,1.76,1.48v9.36h12.48v-10.56c.13-.05.34-.11.62-.18.28-.07.58-.1.9-.1,1.17,0,1.76.49,1.76,1.48v22.96c-.16.05-.37.11-.64.18Z" style="fill: #122348;"/>
        <path d="M417.05,225.81c.72,3.49,3.01,5.24,6.88,5.24,1.12,0,2.13-.19,3.04-.56.91-.37,1.63-.77,2.16-1.2.64.37.96.88.96,1.52,0,.37-.17.73-.5,1.08-.33.35-.79.65-1.36.92-.57.27-1.24.48-2,.64s-1.58.24-2.46.24c-3.09,0-5.54-.84-7.34-2.52s-2.7-4.13-2.7-7.36c0-1.52.22-2.87.66-4.06.44-1.19,1.05-2.19,1.84-3.02.79-.83,1.73-1.46,2.82-1.9,1.09-.44,2.28-.66,3.56-.66,1.2,0,2.31.2,3.32.6,1.01.4,1.89.97,2.62,1.7.73.73,1.31,1.6,1.72,2.6.41,1,.62,2.1.62,3.3,0,.59-.13,1.01-.4,1.26-.27.25-.64.41-1.12.46l-12.32,1.72ZM422.57,216.77c-1.63,0-2.97.57-4.04,1.7-1.07,1.13-1.63,2.75-1.68,4.86l11-1.52c-.13-1.47-.65-2.67-1.54-3.62-.89-.95-2.14-1.42-3.74-1.42Z" style="fill: #122348;"/>
        <path d="M442.49,214.17c2.32,0,4.16.52,5.52,1.56s2.04,2.68,2.04,4.92v9.48c0,.59-.11,1.03-.34,1.34-.23.31-.57.59-1.02.86-.64.37-1.49.7-2.54.98-1.05.28-2.26.42-3.62.42-2.51,0-4.45-.49-5.82-1.48-1.37-.99-2.06-2.41-2.06-4.28,0-1.76.57-3.09,1.72-3.98,1.15-.89,2.76-1.45,4.84-1.66l5.68-.56v-1.12c0-1.33-.4-2.31-1.2-2.92-.8-.61-1.88-.92-3.24-.92-1.12,0-2.17.16-3.16.48-.99.32-1.87.68-2.64,1.08-.21-.19-.41-.4-.58-.64-.17-.24-.26-.51-.26-.8,0-.37.09-.68.28-.92.19-.24.48-.47.88-.68.72-.37,1.55-.66,2.48-.86s1.95-.3,3.04-.3ZM442.53,231.09c1.12,0,2.05-.11,2.78-.34s1.26-.45,1.58-.66v-5.8l-4.96.52c-1.39.13-2.41.45-3.08.94-.67.49-1,1.22-1,2.18,0,1.01.39,1.79,1.16,2.34.77.55,1.95.82,3.52.82Z" style="fill: #122348;"/>
        <path d="M459.21,233.27c-.27.07-.56.1-.88.1-1.15,0-1.72-.48-1.72-1.44v-24.68c.13-.05.34-.11.62-.18.28-.07.57-.1.86-.1,1.15,0,1.72.48,1.72,1.44v24.68c-.13.05-.33.11-.6.18Z" style="fill: #122348;"/>
        <path d="M472.85,233.69c-1.87,0-3.38-.41-4.54-1.24s-1.74-2.2-1.74-4.12v-19c.13-.05.34-.11.62-.18s.58-.1.9-.1c1.12,0,1.68.48,1.68,1.44v4.6h6.56c.08.13.16.31.24.54s.12.47.12.74c0,.91-.4,1.36-1.2,1.36h-5.72v10.4c0,1.07.3,1.82.9,2.26.6.44,1.45.66,2.54.66.45,0,.96-.08,1.52-.24.56-.16,1.03-.35,1.4-.56.16.16.31.36.44.6.13.24.2.52.2.84,0,.59-.35,1.07-1.04,1.44-.69.37-1.65.56-2.88.56Z" style="fill: #122348;"/>
        <path d="M484.49,233.27c-.27.07-.56.1-.88.1-1.15,0-1.72-.48-1.72-1.44v-24.68c.13-.05.34-.11.62-.18s.58-.1.9-.1c1.12,0,1.68.48,1.68,1.44v7.2c.64-.37,1.39-.71,2.26-1,.87-.29,1.85-.44,2.94-.44s2.14.15,3.06.44c.92.29,1.71.74,2.38,1.34.67.6,1.19,1.36,1.56,2.28.37.92.56,1.99.56,3.22v11.64c-.13.05-.34.11-.62.18s-.57.1-.86.1c-1.15,0-1.72-.48-1.72-1.44v-10.4c0-1.6-.44-2.79-1.32-3.56-.88-.77-2.04-1.16-3.48-1.16-.93,0-1.81.17-2.62.5-.81.33-1.53.74-2.14,1.22v14.56c-.13.05-.33.11-.6.18Z" style="fill: #122348;"/>
      </g>
    </g>
  </g>
</svg>