<?xml version="1.0" encoding="UTF-8"?>
<svg id="Layer_2" data-name="Layer 2" xmlns="http://www.w3.org/2000/svg" viewBox="0 0 76.43 80.68">
  <g id="Layer_2-2" data-name="Layer 2">
    <g id="Layer_1-2" data-name="Layer 1">
      <g>
        <g>
          <path d="M67.28,4.54h-5.58v-2.54c0-1.1-.9-2-2-2s-2,.9-2,2v2.54h-13.75v-2.54c0-1.1-.9-2-2-2s-2,.9-2,2v2.54h-14.13v-2.54c0-1.1-.9-2-2-2s-2,.9-2,2v2.54h-4.83c-5.04,0-9.15,4.1-9.15,9.15v19.67c0,1.1.9,2,2,2s2-.9,2-2v-10.37h60.59v32.68c0,2.84-2.31,5.15-5.15,5.15h-28.08c-1.1,0-2,.9-2,2s.9,2,2,2h28.08c5.04,0,9.15-4.1,9.15-9.15V13.68c0-5.04-4.1-9.15-9.15-9.15ZM11.84,18.99v-5.3c0-2.84,2.31-5.15,5.15-5.15h4.83v2.53c0,1.1.9,2,2,2s2-.9,2-2v-2.53h14.13v2.53c0,1.1.9,2,2,2s2-.9,2-2v-2.53h13.75v2.53c0,1.1.9,2,2,2s2-.9,2-2v-2.53h5.58c2.84,0,5.15,2.31,5.15,5.15v5.3H11.84Z" style="fill: #fff;"/>
          <path d="M30.63,48.84c0-6.31-5.13-11.44-11.44-11.44s-11.44,5.13-11.44,11.44,5.13,11.44,11.44,11.44,11.44-5.13,11.44-11.44ZM11.74,48.84c0-4.1,3.34-7.44,7.44-7.44s7.44,3.34,7.44,7.44-3.34,7.44-7.44,7.44-7.44-3.34-7.44-7.44Z" style="fill: #fff;"/>
          <path d="M25.47,64.21h-12.56c-7.12,0-12.9,5.79-12.9,12.9v1.56c0,1.1.9,2,2,2h34.37c1.1,0,2-.9,2-2v-1.56c0-7.12-5.79-12.9-12.9-12.9ZM4.01,76.68c.23-4.71,4.13-8.46,8.89-8.46h12.56c4.76,0,8.66,3.76,8.89,8.46H4.01Z" style="fill: #fff;"/>
        </g>
        <circle cx="60.83" cy="35.32" r="4" style="fill: #59bbf7;"/>
        <circle cx="43.09" cy="35.34" r="4" style="fill: #59bbf7;"/>
        <circle cx="60.83" cy="49.15" r="4" style="fill: #59bbf7;"/>
        <circle cx="43.09" cy="49.16" r="4" style="fill: #59bbf7;"/>
      </g>
    </g>
  </g>
</svg>