<svg width="19" height="18" viewBox="0 0 19 18" fill="none" xmlns="http://www.w3.org/2000/svg">
<path d="M9.03015 11.8242L8.36295 13.3524C8.10675 13.9398 7.29375 13.9398 7.03695 13.3524L6.36975 11.8242C5.77575 10.464 4.70715 9.38161 3.37395 8.79001L1.53795 7.97521C0.954148 7.71601 0.954148 6.86641 1.53795 6.60721L3.31695 5.81761C4.68435 5.21041 5.77215 4.08781 6.35595 2.68201L7.03155 1.05361C7.28235 0.449414 8.11755 0.449414 8.36835 1.05361L9.04395 2.68201C9.62775 4.08841 10.7155 5.21101 12.0829 5.81761L13.8619 6.60721C14.4457 6.86641 14.4457 7.71601 13.8619 7.97521L12.0253 8.79061C10.6927 9.38221 9.62355 10.4646 9.03015 11.8242Z" fill="black"/>
<path d="M15.1885 16.6776L14.9851 17.1438C14.8363 17.4852 14.3635 17.4852 14.2147 17.1438L14.0113 16.6776C13.6489 15.8466 12.9955 15.1848 12.1807 14.8224L11.5543 14.544C11.2153 14.3934 11.2153 13.9008 11.5543 13.7502L12.1459 13.4874C12.9817 13.116 13.6465 12.4296 14.0029 11.5704L14.2117 11.0664C14.3575 10.7154 14.8429 10.7154 14.9881 11.0664L15.1969 11.5704C15.5533 12.4296 16.2181 13.116 17.0539 13.4874L17.6455 13.7502C17.9845 13.9008 17.9845 14.3934 17.6455 14.544L17.0191 14.8224C16.2043 15.1848 15.5509 15.8466 15.1885 16.6776Z" fill="black"/>
</svg>
