<svg width="48" height="48" viewBox="0 0 48 48" fill="none" xmlns="http://www.w3.org/2000/svg">
<path d="M24 6.75C18.624 6.75 14.25 11.124 14.25 16.5V20.5107C12.503 21.1289 11.25 22.7911 11.25 24.75V36.75C11.25 39.2355 13.2645 41.25 15.75 41.25H32.25C34.7355 41.25 36.75 39.2355 36.75 36.75V24.75C36.75 22.7911 35.497 21.1289 33.75 20.5107V16.5C33.75 11.124 29.376 6.75 24 6.75ZM24 9.75C27.7222 9.75 30.75 12.7785 30.75 16.5V20.25H17.25V16.5C17.25 12.7785 20.2778 9.75 24 9.75ZM15.75 23.25H32.25C33.0788 23.25 33.75 23.9212 33.75 24.75V36.75C33.75 37.5788 33.0788 38.25 32.25 38.25H15.75C14.9212 38.25 14.25 37.5788 14.25 36.75V24.75C14.25 23.9212 14.9212 23.25 15.75 23.25ZM24 24.75C20.6865 24.75 18 27.4365 18 30.75C18 34.0635 20.6865 36.75 24 36.75C27.3135 36.75 30 34.0635 30 30.75C30 27.4365 27.3135 24.75 24 24.75ZM24 27.75C24.21 27.75 24.4202 27.7741 24.6182 27.8101C24.5462 28.4281 24.7433 29.0647 25.2173 29.5327C25.6853 30.0067 26.3219 30.2038 26.9399 30.1318C26.9759 30.3298 27 30.54 27 30.75C27 32.406 25.656 33.75 24 33.75C22.344 33.75 21 32.406 21 30.75C21 29.094 22.344 27.75 24 27.75Z" fill="#203e71"/>
</svg>
